<svg xmlns="http://www.w3.org/2000/svg" width="118" height="118" viewBox="0 0 118 118">
  <g id="Grupo_1978" data-name="Grupo 1978" transform="translate(-3208 1847)">
    <g id="Grupo_1959" data-name="Grupo 1959" transform="translate(0 -546)">
      <g id="Grupo_1694" data-name="Grupo 1694" transform="translate(3434 -3744.361)">
        <circle id="Elipse_605" data-name="Elipse 605" cx="59" cy="59" r="59" transform="translate(-226.001 2443.361)" fill="#57b8e8"/>
        <circle id="Elipse_606" data-name="Elipse 606" cx="53" cy="53" r="53" transform="translate(-220.001 2449.361)" fill="#fff"/>
      </g>
      <g id="Grupo_1958" data-name="Grupo 1958" transform="translate(2474.002 -1290.897)">
        <g id="Grupo_1957" data-name="Grupo 1957" transform="translate(761.106 17.017)">
          <path id="Trazado_9169" data-name="Trazado 9169" d="M1145.106,306.212v3.318a1.106,1.106,0,0,0,2.212,0v-3.318a1.106,1.106,0,0,0,0-2.212h-2.212a1.106,1.106,0,0,0,0,2.212Z" transform="translate(-1092.02 -265.292)" fill="#009d54"/>
          <path id="Trazado_9170" data-name="Trazado 9170" d="M1147.318,404.424v-3.318a1.106,1.106,0,0,0-2.212,0v3.318a1.106,1.106,0,0,0,0,2.212h2.212a1.106,1.106,0,0,0,0-2.212Z" transform="translate(-1092.02 -348.02)" fill="#009d54"/>
          <path id="Trazado_9171" data-name="Trazado 9171" d="M1189.53,360a1.106,1.106,0,0,0-1.106,1.106h-3.318a1.106,1.106,0,1,0,0,2.212h3.318a1.106,1.106,0,1,0,2.212,0v-2.212A1.106,1.106,0,0,0,1189.53,360Z" transform="translate(-1126.491 -313.55)" fill="#009d54"/>
          <path id="Trazado_9172" data-name="Trazado 9172" d="M1093.53,363.318a1.106,1.106,0,1,0,0-2.212h-3.318a1.106,1.106,0,0,0-2.212,0v2.212a1.106,1.106,0,1,0,2.212,0Z" transform="translate(-1043.762 -313.55)" fill="#009d54"/>
          <circle id="Elipse_664" data-name="Elipse 664" cx="4.424" cy="4.424" r="4.424" transform="translate(49.768 44.238)" fill="#5ec09b"/>
          <path id="Trazado_9173" data-name="Trazado 9173" d="M1178.845,392.633l-.323.325-1.62-1.616a1.106,1.106,0,0,0-1.559,1.559l1.616,1.62-.325.324a1.107,1.107,0,0,0,1.565,1.565l2.212-2.212a1.107,1.107,0,0,0-1.565-1.565Z" transform="translate(-1118.801 -340.33)" fill="#009d54"/>
          <path id="Trazado_9174" data-name="Trazado 9174" d="M1175,325.388a1.106,1.106,0,0,0,1.564,0l1.616-1.616.323.325a1.107,1.107,0,0,0,1.565-1.565l-2.212-2.212a1.107,1.107,0,1,0-1.565,1.565l.325.323-1.616,1.62A1.106,1.106,0,0,0,1175,325.388Z" transform="translate(-1118.453 -279.076)" fill="#009d54"/>
          <path id="Trazado_9175" data-name="Trazado 9175" d="M1105.1,324.42a1.105,1.105,0,0,0,.782-.323l.323-.325,1.62,1.616a1.106,1.106,0,0,0,1.559-1.559l-1.616-1.62.325-.323a1.107,1.107,0,0,0-1.565-1.565l-2.212,2.212a1.106,1.106,0,0,0,.782,1.888Z" transform="translate(-1057.545 -279.076)" fill="#009d54"/>
          <path id="Trazado_9176" data-name="Trazado 9176" d="M1109.388,390.982a1.106,1.106,0,0,0-1.564,0l-1.616,1.616-.323-.325a1.107,1.107,0,0,0-1.565,1.565l2.212,2.212a1.107,1.107,0,1,0,1.565-1.565l-.325-.323,1.616-1.62A1.106,1.106,0,0,0,1109.388,390.982Z" transform="translate(-1057.546 -339.97)" fill="#009d54"/>
          <path id="Trazado_9177" data-name="Trazado 9177" d="M1125.53,347.059a5.53,5.53,0,1,1,5.53-5.53A5.53,5.53,0,0,1,1125.53,347.059Zm0-8.848a3.318,3.318,0,1,0,3.318,3.318A3.318,3.318,0,0,0,1125.53,338.212Z" transform="translate(-1071.338 -292.868)" fill="#1a9663"/>
          <path id="Trazado_9178" data-name="Trazado 9178" d="M814.119,28.424l-.611-1.222a5.789,5.789,0,0,0-5.18-3.2h-.583a5.791,5.791,0,0,0-5.791,5.791v6.374l-5.53,2.212L792,51.649l4.424,4.424V79.3l2.212,1.106v7.742h8.848V84.827l-2.212-1.106V80.4l2.212-1.106L809.7,68.238V79.3l2.212,1.106v7.742h8.848V84.827l-2.212-1.106V80.4l2.212-1.106V56.073l11.059-7.742,1.106,1.106,4.424-3.318L834.026,41.7,829.6,43.907l-4.424,2.212-4.424-7.742-6.636-2.212Z" transform="translate(-788.682 -24)" fill="#eceff0"/>
          <circle id="Elipse_665" data-name="Elipse 665" cx="2.212" cy="2.212" r="2.212" transform="translate(52.584 25.972)" fill="#5ec09b"/>
          <circle id="Elipse_666" data-name="Elipse 666" cx="2.212" cy="2.212" r="2.212" transform="translate(0 9.954)" fill="#5ec09b"/>
          <circle id="Elipse_667" data-name="Elipse 667" cx="2.212" cy="2.212" r="2.212" transform="translate(50.874)" fill="#5ec09b"/>
          <circle id="Elipse_668" data-name="Elipse 668" cx="2.212" cy="2.212" r="2.212" transform="translate(59.721 59.721)" fill="#5ec09b"/>
          <circle id="Elipse_669" data-name="Elipse 669" cx="2.212" cy="2.212" r="2.212" transform="translate(36.496 47.556)" fill="#5ec09b"/>
          <circle id="Elipse_670" data-name="Elipse 670" cx="2.212" cy="2.212" r="2.212" transform="translate(36.546 5.885)" fill="#5ec09b"/>
          <path id="Trazado_9179" data-name="Trazado 9179" d="M907.318,80l-1.106,1.106H904v2.212s0,2.212,3.318,2.212,3.318-2.212,3.318-2.212V81.106h-2.212Z" transform="translate(-885.199 -72.258)" fill="#aedef8"/>
          <path id="Trazado_9180" data-name="Trazado 9180" d="M857.106,66.212a1.106,1.106,0,1,1,0-2.212h4.424a1.106,1.106,0,1,1,0,2.212Z" transform="translate(-843.835 -58.47)" fill="#fcc200"/>
          <path id="Trazado_9181" data-name="Trazado 9181" d="M913.106,145.178A1.106,1.106,0,0,1,912,144.073V113.106a1.106,1.106,0,0,1,2.212,0v30.967A1.106,1.106,0,0,1,913.106,145.178Z" transform="translate(-892.093 -99.835)" fill="#00a8e7"/>
          <path id="Trazado_9182" data-name="Trazado 9182" d="M861.013,202.212H841.106a1.106,1.106,0,0,1,0-2.212h19.907a1.106,1.106,0,0,1,0,2.212Z" transform="translate(-830.046 -175.669)" fill="#00a8e7"/>
          <path id="Trazado_9183" data-name="Trazado 9183" d="M985.106,181.271A1.106,1.106,0,0,1,984,180.165V169.106a1.106,1.106,0,0,1,2.212,0v11.059A1.106,1.106,0,0,1,985.106,181.271Z" transform="translate(-954.139 -148.093)" fill="#d1e1e5"/>
          <path id="Trazado_9184" data-name="Trazado 9184" d="M936,432h6.636v3.318l2.212,1.106v3.318H936Z" transform="translate(-912.775 -375.597)" fill="#00a8e7"/>
          <path id="Trazado_9185" data-name="Trazado 9185" d="M840,432h6.636v3.318l2.212,1.106v3.318H840Z" transform="translate(-830.046 -375.597)" fill="#00a8e7"/>
          <path id="Trazado_9186" data-name="Trazado 9186" d="M1067.318,159.742l-3.318-5.53,4.424-2.212,3.318,4.424Z" transform="translate(-1023.08 -134.305)" fill="#00a8e7"/>
          <path id="Trazado_9187" data-name="Trazado 9187" d="M771.318,312h3.318a3.318,3.318,0,0,1,3.318,3.318v21.013H768V315.318A3.318,3.318,0,0,1,771.318,312Z" transform="translate(-768 -272.186)" fill="#1a9663"/>
          <path id="Trazado_9188" data-name="Trazado 9188" d="M792,288h3.318v3.318H792Z" transform="translate(-788.682 -251.504)" fill="#fcc200"/>
          <path id="Trazado_9189" data-name="Trazado 9189" d="M897.073,191.469a1.106,1.106,0,0,1-.553-2.067l23.225-13.271a1.112,1.112,0,0,1,1.106,1.929l-23.225,13.271A1.106,1.106,0,0,1,897.073,191.469Z" transform="translate(-878.272 -154.972)" fill="#fcc200"/>
          <path id="Trazado_9190" data-name="Trazado 9190" d="M1097.1,133.53a1.106,1.106,0,0,1-.782-1.888l3.318-3.318a1.106,1.106,0,0,1,.782-.323h2.212a1.106,1.106,0,1,1,0,2.212h-1.754l-2.993,2.994A1.106,1.106,0,0,1,1097.1,133.53Z" transform="translate(-1050.651 -113.623)" fill="#fcc200"/>
          <path id="Trazado_9191" data-name="Trazado 9191" d="M806.083,318.377A6.09,6.09,0,0,1,800,312.295v-7.189a1.106,1.106,0,0,1,2.212,0v7.189a3.871,3.871,0,0,0,7.742,0v-6.083a1.106,1.106,0,1,1,2.212,0v6.083A6.09,6.09,0,0,1,806.083,318.377Z" transform="translate(-795.576 -265.292)" fill="#42a87e"/>
          <path id="Trazado_9192" data-name="Trazado 9192" d="M1176.847,130.212h-7.741a1.106,1.106,0,1,1,0-2.212h7.741a1.106,1.106,0,1,1,0,2.212Z" transform="translate(-1112.703 -113.623)" fill="#aedef8"/>
          <path id="Trazado_9193" data-name="Trazado 9193" d="M1161.088,85.524a1.106,1.106,0,0,1-.5-2.1l6.636-3.318a1.107,1.107,0,0,1,.99,1.98l-6.636,3.318A1.106,1.106,0,0,1,1161.088,85.524Z" transform="translate(-1105.791 -72.253)" fill="#aedef8"/>
          <path id="Trazado_9194" data-name="Trazado 9194" d="M1167.745,157.524a1.107,1.107,0,0,1-.494-.116l-6.636-3.318a1.107,1.107,0,0,1,.99-1.98l6.636,3.318a1.106,1.106,0,0,1-.5,2.1Z" transform="translate(-1105.812 -134.299)" fill="#aedef8"/>
          <path id="Trazado_9195" data-name="Trazado 9195" d="M902.605,55.82l-4.393.017A2.212,2.212,0,0,0,896,58.048h0a2.212,2.212,0,0,0,2.212,2.212h1.106l1.106-1.106,1.106,1.106,1.106-.011a2.215,2.215,0,0,0-.014-4.429Z" transform="translate(-878.305 -51.421)" fill="#aedef8"/>
          <path id="Trazado_9196" data-name="Trazado 9196" d="M892.359,54.481h-1.106a3.322,3.322,0,1,1-.012-6.644l4.4-.017h.014a3.323,3.323,0,0,1,.03,6.645l-1.106.011h-.005a1.106,1.106,0,0,1-.783-.323l-.323-.321-.323.325a1.106,1.106,0,0,1-.782.323Zm3.292-4.449-4.4.017a1.11,1.11,0,1,0,0,2.22h.644l.781-.782a1.106,1.106,0,0,1,1.564,0h0l.781.782h.643a1.114,1.114,0,0,0,.771-1.9,1.091,1.091,0,0,0-.788-.323Z" transform="translate(-871.346 -44.527)" fill="#00a8e7"/>
          <path id="Trazado_9197" data-name="Trazado 9197" d="M824.844,190.232h-.079a1.106,1.106,0,0,1-.806-.44l-3.271-4.362-4.369-4.367a1.107,1.107,0,0,1,1.565-1.565l4.424,4.424a1.4,1.4,0,0,1,.1.119l2.553,3.4,2.74-2.743-2.537-2.535a1.106,1.106,0,0,1-.323-.782V179.63l-5.206-5.2a1.107,1.107,0,0,1-.29-1.051l1.106-4.424a1.106,1.106,0,0,1,2.146.536l-.954,3.817,5.087,5.086a1.106,1.106,0,0,1,.323.782v1.754l2.994,2.993a1.106,1.106,0,0,1,0,1.564h0l-4.424,4.424a1.106,1.106,0,0,1-.782.323Z" transform="translate(-809.361 -148.206)" fill="#d1e1e5"/>
          <path id="Trazado_9198" data-name="Trazado 9198" d="M856,267.318,860.424,264l3.318,3.318-4.424,4.424Z" transform="translate(-843.835 -230.822)" fill="#00a8e7"/>
        </g>
        <path id="Trazado_9199" data-name="Trazado 9199" d="M806.007,43.339l4.424-3.318a1.106,1.106,0,0,0,.221-1.548l-1.8-2.393,2.476-2.473h1.754a1.106,1.106,0,1,0,0-2.212h-2.212a1.106,1.106,0,0,0-.782.323l-2.574,2.58-.182-.243a1.106,1.106,0,0,0-1.382-.326l-7.912,3.957-3.894-6.843a1.106,1.106,0,0,0-.611-.5l-5.886-1.956V26.09a3.334,3.334,0,0,0-.046-4.957c.01-.07-.641-1.309-.682-1.409a6.968,6.968,0,0,0-6.753-3.813,6.894,6.894,0,0,0-6.9,6.891v5.631l-4.838,1.935a1.106,1.106,0,0,0-.639.677L763.37,44.318a1.106,1.106,0,0,0,.267,1.132l4.1,4.1v2.86h-3.318a1.106,1.106,0,0,0-1.106,1.106v2.35A4.432,4.432,0,0,0,760,60.149V81.162a1.106,1.106,0,0,0,1.106,1.106h18.8a1.106,1.106,0,0,0,1.106-1.106v-.845a5.075,5.075,0,0,0-2.212-4.208V74.285l3.189-.8,1.235.617v7.059a1.106,1.106,0,0,0,1.106,1.106h8.848a1.106,1.106,0,0,0,1.106-1.106v-.845a5.075,5.075,0,0,0-2.212-4.208V74.1l1.6-.8a1.106,1.106,0,0,0,.611-.99V49.666l9.828-6.88.449.451a1.106,1.106,0,0,0,1.446.1Zm.112-7.225,2.1,2.8-2.772,2.074-.3-.3-1.637-3.274Zm-26.67,17.4-2.74,2.74-1.89-2.519,2.765-2.074Zm-11.708,4.424a2.212,2.212,0,0,1,2.212,2.212v7.367a3.871,3.871,0,0,1-2.212-3.5Zm2.212-1.617V51.758l2.48,2.48,3.05,4.069V64.02a3.871,3.871,0,0,1-3.318,3.831v-7.7A4.423,4.423,0,0,0,769.953,56.32Zm10.139-5.295L778.8,49.738V47.984a1.106,1.106,0,0,0-.323-.782l-3.643-3.641h6.178V50.5Zm3.133-7.465h8.848v.622l-8.848,5.056Zm11.059,1.906,8.382-4.79.156.312-8.538,5.976ZM792.428,32.31l4.214,7.379a1.106,1.106,0,0,0,1.456.441l3.434-1.718.138.288-7.385,4.219V38.03a1.106,1.106,0,0,0-2.212,0v3.318h-8.848V31.395a4.792,4.792,0,0,0,3.325-1.044Zm-7.017-9.788h.026v2.224c-.017,0-.637,0-.653.008l-.777-.778a1.106,1.106,0,0,0-1.564,0h0l-.781.782h-.648a1.11,1.11,0,0,1,0-2.22Zm-3.292,4.449a1.106,1.106,0,0,0,.783-.323l.323-.325.323.325a1.106,1.106,0,0,0,.783.323h1.106v1.082c-.017.209-.206,1.129-2.212,1.129s-2.2-.921-2.212-1.129V26.971Zm-6.141-6.257a4.658,4.658,0,0,1,4.19-2.591,4.8,4.8,0,0,1,4.545,2.19L781,20.327a3.329,3.329,0,0,0-3.119,2.212h-2.394a4.663,4.663,0,0,1,.487-1.825Zm-6.243,11.517,5.057-2.021a1.106,1.106,0,0,0,.691-1.027V24.759h2.4a3.317,3.317,0,0,0,.915,1.362v1.956a3.369,3.369,0,0,0,2.212,2.946V41.348h-7.431l.762-3.05a1.106,1.106,0,0,0-2.146-.536l-1.106,4.424a1.115,1.115,0,0,0,.292,1.051l5.2,5.2v1.2l-3.214,2.411c-1.912-1.912-5.77-5.772-7.686-7.686ZM765.53,54.619h2.212v1.106H765.53Zm-3.318,5.53a2.212,2.212,0,0,1,2.212-2.212h1.106V64.02a6.089,6.089,0,0,0,4.424,5.85V80.056h-7.742Zm9.954,19.907v-5.53h4.424v2.212a1.106,1.106,0,0,0,.611.99,2.875,2.875,0,0,1,1.59,2.328Zm8.848-8.606-3.456.864h-5.391V70.076a6.091,6.091,0,0,0,5.53-6.056V58.395l3.318-3.318Zm4.424,8.606v-5.53h4.424v2.212a1.106,1.106,0,0,0,.611.99,2.875,2.875,0,0,1,1.59,2.328Zm6.636-8.425-1.367.683h-6.113l-1.367-.683V51.785l8.848-5.056ZM820.5,73.1l2.212-2.212a1.107,1.107,0,0,0-1.565-1.565l-.323.325-.918-.925a5.5,5.5,0,0,0,.807-1.935h2.323a1.106,1.106,0,0,0,2.212,0V64.573a1.106,1.106,0,0,0-2.212,0h-2.323a5.5,5.5,0,0,0-.807-1.935l.918-.919.323.325a1.107,1.107,0,0,0,1.565-1.565L820.5,58.266a1.107,1.107,0,1,0-1.565,1.565l.325.323-.925.912a5.5,5.5,0,0,0-1.936-.807V57.937a1.106,1.106,0,0,0,0-2.212h-2.212a1.106,1.106,0,0,0,0,2.212V60.26a5.5,5.5,0,0,0-1.935.807l-.925-.918.325-.323a1.107,1.107,0,0,0-1.565-1.565l-2.212,2.212a1.107,1.107,0,0,0,1.565,1.565l.323-.325.918.919a5.5,5.5,0,0,0-.807,1.935h-2.323a1.106,1.106,0,0,0-2.212,0v2.212a1.106,1.106,0,0,0,2.212,0h2.323a5.5,5.5,0,0,0,.807,1.935l-.918.93-.323-.325a1.107,1.107,0,0,0-1.565,1.565l2.212,2.212a1.107,1.107,0,1,0,1.565-1.565l-.325-.323.919-.918a5.5,5.5,0,0,0,1.935.807v2.322a1.106,1.106,0,0,0,0,2.212H816.4a1.106,1.106,0,0,0,0-2.212V71.1a5.5,5.5,0,0,0,1.935-.807l.919.918-.325.323A1.111,1.111,0,0,0,820.5,73.1ZM815.3,69a3.318,3.318,0,1,1,3.318-3.318A3.318,3.318,0,0,1,815.3,69Zm-2.714-23.8a3.318,3.318,0,1,0,3.318-3.318,3.318,3.318,0,0,0-3.318,3.318Zm4.424,0a1.106,1.106,0,1,1-1.106-1.106A1.106,1.106,0,0,1,817.008,45.2Zm-53.69-12.7A3.318,3.318,0,1,0,760,29.183,3.318,3.318,0,0,0,763.318,32.5Zm0-4.424a1.106,1.106,0,1,1-1.106,1.106A1.106,1.106,0,0,1,763.318,28.077Zm50.874-5.53a3.318,3.318,0,1,0-3.318-3.318A3.318,3.318,0,0,0,814.192,22.547Zm0-4.424a1.106,1.106,0,1,1-1.106,1.106A1.106,1.106,0,0,1,814.192,18.123Zm8.848,57.509a3.318,3.318,0,1,0,3.318,3.318A3.318,3.318,0,0,0,823.039,75.632Zm0,4.424a1.106,1.106,0,1,1,1.106-1.106A1.106,1.106,0,0,1,823.039,80.056ZM799.814,63.467a3.318,3.318,0,1,0,3.318,3.318A3.318,3.318,0,0,0,799.814,63.467Zm0,4.424a1.106,1.106,0,1,1,1.106-1.106A1.106,1.106,0,0,1,799.814,67.891Zm.05-39.459a3.318,3.318,0,1,0-3.318-3.318A3.318,3.318,0,0,0,799.864,28.432Zm0-4.424a1.106,1.106,0,1,1-1.106,1.106A1.106,1.106,0,0,1,799.864,24.008ZM826.357,32.5a1.106,1.106,0,0,1-1.106,1.106h-7.742a1.106,1.106,0,1,1,0-2.212h7.742A1.106,1.106,0,0,1,826.357,32.5Zm-10.448-4.308,6.636-3.318a1.107,1.107,0,0,1,.99,1.98L816.9,30.172a1.107,1.107,0,0,1-.99-1.98Zm8.12,11.438a1.106,1.106,0,0,1-1.484.5h0l-6.636-3.318a1.107,1.107,0,0,1,.99-1.98l6.636,3.318a1.106,1.106,0,0,1,.5,1.483Z" transform="translate(0 0)"/>
      </g>
    </g>
  </g>
</svg>
