<svg xmlns="http://www.w3.org/2000/svg" width="139.683" height="139.683" viewBox="0 0 139.683 139.683">
  <g id="Grupo_2003" data-name="Grupo 2003" transform="translate(-3649 2299)">
    <g id="Grupo_1131" data-name="Grupo 1131" transform="translate(3649 -2299)">
      <g id="Grupo_1129" data-name="Grupo 1129">
        <circle id="Elipse_518" data-name="Elipse 518" cx="69.841" cy="69.841" r="69.841" fill="#57b8e8"/>
        <circle id="Elipse_519" data-name="Elipse 519" cx="62.739" cy="62.739" r="62.739" transform="translate(7.103 7.103)" fill="#fff"/>
      </g>
      <g id="Grupo_1180" data-name="Grupo 1180" transform="translate(-2895.549 -324.38)">
        <path id="Trazado_6295" data-name="Trazado 6295" d="M2995.114,364.138a1.749,1.749,0,1,0,0-3.5h0a1.75,1.75,0,0,0,0,3.5Z" transform="translate(-7.102 -0.274)" fill="#cedae7"/>
        <path id="Trazado_6296" data-name="Trazado 6296" d="M2938.894,389.533a16.165,16.165,0,0,0-2.258,1.47,11.718,11.718,0,0,1-7.139,2.436h-1.646v20.778h1.645a11.542,11.542,0,0,1,7.093,2.4,16.055,16.055,0,0,0,9.983,3.434h30.868a3.173,3.173,0,0,0,0-6.346h-13.687a1.177,1.177,0,1,1,0-2.353h19.5a3.173,3.173,0,1,0,0-6.346h-9.082a1.177,1.177,0,0,1,0-2.354h14.276a3.173,3.173,0,1,0,0-6.346h-24.691a1.177,1.177,0,1,1,0-2.353h19.5a3.173,3.173,0,1,0,0-6.346h-23.932a1.178,1.178,0,0,1-.588-2.2l4.7-2.717.082-.047a3.173,3.173,0,0,0-3.255-5.447l-16.535,9.546a1.164,1.164,0,0,1-1.507-.316l-2.819,1.665A1.163,1.163,0,0,1,2938.894,389.533Zm24.858,13.117h4.927a1.177,1.177,0,0,1,0,2.353h-4.927a1.177,1.177,0,1,1,0-2.353Z" transform="translate(-0.274 -1.953)" fill="#d8b398"/>
        <path id="Trazado_6297" data-name="Trazado 6297" d="M3004.023,373.107a2.683,2.683,0,1,0,0-5.366v0a2.684,2.684,0,0,0,0,5.367Z" transform="translate(-7.934 -1.014)" fill="#cedae7"/>
        <path id="Trazado_6298" data-name="Trazado 6298" d="M3001.236,388.114a10.518,10.518,0,0,0-2.8-2.8,2.2,2.2,0,0,1-.931-2.2,4.51,4.51,0,0,0-7.463-4.13,2.171,2.171,0,0,1-2.481.285,7.222,7.222,0,0,0-10.627,6.053v.05h11.437a5.522,5.522,0,0,1,4.523,8.7h.671a5.524,5.524,0,0,1,4.209,9.1,10.481,10.481,0,0,0,5.215-10.339,1.165,1.165,0,0,1,.9-1.237l-.642-2.04-.719-.992A1.167,1.167,0,0,1,3001.236,388.114Z" transform="translate(-5.389 -2.064)" fill="#cedae7"/>
        <g id="Grupo_1180-2" data-name="Grupo 1180" transform="translate(2963.437 374.82)">
          <path id="Trazado_6299" data-name="Trazado 6299" d="M2995.588,424.347a3.173,3.173,0,1,0,0-6.346h-7.332a5.514,5.514,0,0,1,0,6.346Z" transform="translate(-2970.007 -381.073)" fill="#b7907b"/>
          <path id="Trazado_6300" data-name="Trazado 6300" d="M2978.91,376.951a3.172,3.172,0,0,0-2.623.25l-4.739,2.737h0c0,3.851-3.435,5.1-3.665,5.317h5.748a1.381,1.381,0,0,0,.005-.146A9.56,9.56,0,0,1,2978.91,376.951Z" transform="translate(-2967.883 -376.776)" fill="#b7907b"/>
          <path id="Trazado_6301" data-name="Trazado 6301" d="M3011.5,401.753a3.173,3.173,0,0,0-3.173-3.173h-.229a12.742,12.742,0,0,1-3.182,6.346h3.411A3.173,3.173,0,0,0,3011.5,401.753Z" transform="translate(-2971.743 -379.049)" fill="#b7907b"/>
          <path id="Trazado_6302" data-name="Trazado 6302" d="M3002.073,414.637a3.173,3.173,0,1,0,0-6.346h-1.136a12.831,12.831,0,0,1-5.388,1.716,5.523,5.523,0,0,1-.806,4.628h7.33Z" transform="translate(-2970.683 -380.061)" fill="#b7907b"/>
        </g>
        <g id="Grupo_1130" data-name="Grupo 1130" transform="translate(2925.223 358.012)">
          <path id="Trazado_6202" data-name="Trazado 6202" d="M2967.792,408.017h4.927a1.177,1.177,0,0,0,0-2.353h-4.927a1.177,1.177,0,1,0,0,2.353Z" transform="translate(-2929.537 -362.979)" fill="#0b2d4e"/>
          <path id="Trazado_6203" data-name="Trazado 6203" d="M3003.75,375.188a5.037,5.037,0,1,0-5.036-5.038h0A5.042,5.042,0,0,0,3003.75,375.188Zm0-7.72a2.683,2.683,0,1,1-2.683,2.683h0a2.687,2.687,0,0,1,2.683-2.685Z" transform="translate(-2932.883 -358.752)" fill="#0b2d4e"/>
          <path id="Trazado_6204" data-name="Trazado 6204" d="M2994.841,366.217a4.1,4.1,0,1,0-4.1-4.1h0A4.106,4.106,0,0,0,2994.841,366.217Zm0-5.852a1.749,1.749,0,1,1-1.75,1.749,1.75,1.75,0,0,1,1.75-1.749Z" transform="translate(-2932.052 -358.012)" fill="#0b2d4e"/>
          <path id="Trazado_6205" data-name="Trazado 6205" d="M3005.549,399.207a5.533,5.533,0,0,0-5.526-5.527h-.01a13.118,13.118,0,0,0-.081-1.5,1.177,1.177,0,0,0-2.339.263,10.482,10.482,0,0,1-5.214,10.339,5.524,5.524,0,0,0-4.21-9.1h-.671a5.522,5.522,0,0,0-4.523-8.7H2971.54v-.05a7.223,7.223,0,0,1,10.628-6.053,2.169,2.169,0,0,0,2.48-.285,4.509,4.509,0,0,1,7.463,4.13,2.2,2.2,0,0,0,.931,2.2,10.544,10.544,0,0,1,2.805,2.8,1.177,1.177,0,0,0,1.946-1.325,12.877,12.877,0,0,0-3.348-3.369,6.862,6.862,0,0,0-11.265-6.286,9.609,9.609,0,0,0-5.843-.981,5.533,5.533,0,0,0-6.673-.881l-4.12,2.377a5.533,5.533,0,0,0-7.394-2.559c-.116.056-.231.117-.343.182l-16.532,9.546a1.176,1.176,0,1,0,1.176,2.038l16.535-9.546a3.173,3.173,0,1,1,3.254,5.447l-.082.047-4.7,2.717a1.178,1.178,0,0,0,.588,2.2h23.932a3.173,3.173,0,1,1,0,6.346h-19.5a1.177,1.177,0,1,0,0,2.353h24.691a3.173,3.173,0,1,1,0,6.346h-14.276a1.177,1.177,0,0,0,0,2.354h9.082a3.173,3.173,0,1,1,0,6.346h-19.5a1.177,1.177,0,1,0,0,2.353h13.687a3.173,3.173,0,0,1,0,6.346H2946.3a16.055,16.055,0,0,1-9.983-3.434,11.542,11.542,0,0,0-7.093-2.4h-1.645V393.168h1.646a11.718,11.718,0,0,0,7.139-2.436,16.165,16.165,0,0,1,2.258-1.47,1.177,1.177,0,0,0-1.115-2.073,18.682,18.682,0,0,0-2.585,1.683,9.332,9.332,0,0,1-5.7,1.941H2926.4a1.177,1.177,0,0,0-1.177,1.177v23.128a1.177,1.177,0,0,0,1.177,1.177h2.818a9.186,9.186,0,0,1,5.643,1.9,18.39,18.39,0,0,0,11.431,3.933h42.724a5.523,5.523,0,0,0,4.523-8.7h1.288a5.524,5.524,0,0,0,4.523-8.7h.671A5.533,5.533,0,0,0,3005.549,399.207ZM2967.1,379.664l4.739-2.737a3.174,3.174,0,0,1,2.624-.25,9.56,9.56,0,0,0-5.274,8.159,1.381,1.381,0,0,1-.005.146h-5.748c.23-.214,3.666-1.466,3.665-5.317Zm21.917,40.113h-7.333a5.514,5.514,0,0,0,0-6.346h7.333a3.173,3.173,0,0,1,0,6.346Zm5.811-8.7H2987.5a5.523,5.523,0,0,0,.806-4.628,12.831,12.831,0,0,0,5.388-1.716h1.136a3.173,3.173,0,1,1,0,6.346Zm1.783-8.7a12.741,12.741,0,0,0,3.181-6.346h.229a3.173,3.173,0,1,1,0,6.346Z" transform="translate(-2925.223 -359.694)" fill="#0b2d4e"/>
        </g>
      </g>
    </g>
  </g>
</svg>
