<svg xmlns="http://www.w3.org/2000/svg" width="118" height="118" viewBox="0 0 118 118">
  <g id="Grupo_1980" data-name="Grupo 1980" transform="translate(-3208 1532)">
    <g id="Grupo_1964" data-name="Grupo 1964" transform="translate(0 -570)">
      <circle id="Elipse_672" data-name="Elipse 672" cx="59" cy="59" r="59" transform="translate(3208 -962)" fill="#57b8e8"/>
      <circle id="Elipse_673" data-name="Elipse 673" cx="53" cy="53" r="53" transform="translate(3214 -956)" fill="#fff"/>
      <g id="Grupo_1963" data-name="Grupo 1963" transform="translate(3229.999 -960.597)">
        <path id="Trazado_9215" data-name="Trazado 9215" d="M45.855,96.541h.039A13.835,13.835,0,0,0,22.833,91.8a.924.924,0,0,1-1.513-1.026A19.214,19.214,0,0,1,38.6,80.019a19.234,19.234,0,0,1,2.715-23.076A.925.925,0,0,1,42.8,58.008,13.822,13.822,0,1,0,67.458,58a.925.925,0,0,1,1.49-1.058,19.234,19.234,0,0,1,2.715,23.077A19.211,19.211,0,0,1,88.9,90.68a.925.925,0,0,1-1.5,1.039,13.822,13.822,0,1,0-8.316,23.269.924.924,0,0,1,.5,1.758,19.231,19.231,0,0,1-24.427-7.9,19.23,19.23,0,0,1-24.393,7.918A.925.925,0,0,1,31.25,115a13.832,13.832,0,0,0,14.6-18.457Z" transform="translate(-18.151 -31.701)" fill="#fe4f60"/>
        <path id="Trazado_9216" data-name="Trazado 9216" d="M56.814,77.976a.714.714,0,0,1,.578,1.227A36.01,36.01,0,0,0,47.175,97.648a.492.492,0,0,1-.96.026A13.8,13.8,0,0,0,22.831,91.8a.924.924,0,0,1-1.512-1.027A19.212,19.212,0,0,1,38.6,80.016a19.235,19.235,0,0,1,2.715-23.077A.925.925,0,0,1,42.8,58a13.822,13.822,0,0,0,14.01,19.971Z" transform="translate(-18.15 -31.698)" fill="#ff6d7a"/>
        <path id="Trazado_9217" data-name="Trazado 9217" d="M223.15,245.387a5.528,5.528,0,1,1-5.529,5.529,5.529,5.529,0,0,1,5.529-5.529Z" transform="translate(-186.166 -193.155)" fill="#ffe773"/>
        <path id="Trazado_9218" data-name="Trazado 9218" d="M225.321,249.333a5.62,5.62,0,0,0-3.72,3.726,1.836,1.836,0,0,1-3.4.292,5.53,5.53,0,0,1,7.414-7.417,1.836,1.836,0,0,1-.295,3.4Z" transform="translate(-186.166 -193.123)" fill="#ffec8f"/>
        <path id="Trazado_9219" data-name="Trazado 9219" d="M2.441,66.962A1.233,1.233,0,0,1,0,66.653,20.435,20.435,0,0,1,18.461,47.176,20.446,20.446,0,0,1,29.2,19.691a1.233,1.233,0,0,1,1.124,2.186,12.558,12.558,0,0,0-5.219,14.84A24.1,24.1,0,0,1,46.388,35.5a1.233,1.233,0,1,1-.961,2.272,21.639,21.639,0,0,0-19.274,1.191,12.585,12.585,0,1,0,17.49-17.085,1.233,1.233,0,0,1,1.124-2.186,20.445,20.445,0,0,1,9.808,29.255,1.233,1.233,0,0,1-2.124-1.255,17.981,17.981,0,0,0-1.233-20.059,15.061,15.061,0,1,1-28.469,0A17.979,17.979,0,0,0,21.516,47.69a1.234,1.234,0,0,1-1.062,1.861A17.9,17.9,0,0,0,5.21,57.914a15.06,15.06,0,0,1,21.724,20.5,1.248,1.248,0,0,1-1.682.467A24.206,24.206,0,0,1,13.146,61.716a1.233,1.233,0,1,1,2.434-.4,21.554,21.554,0,0,0,9.9,14.839A12.587,12.587,0,1,0,2.441,66.962Zm58.14-18.642a1.233,1.233,0,1,0-.844,2.318,17.921,17.921,0,0,1,9.038,7.26,15.061,15.061,0,1,0-9.7,26.731,17.983,17.983,0,0,1-21-8.108,1.234,1.234,0,0,0-2.134,0,17.984,17.984,0,0,1-20.977,8.108,15.185,15.185,0,0,0,6.535-1.6,1.233,1.233,0,0,0-1.1-2.207A12.545,12.545,0,0,1,7,79.477a1.233,1.233,0,0,0-1.67,1.8A20.42,20.42,0,0,0,37,79.412a20.429,20.429,0,0,0,31.678,1.87,1.233,1.233,0,0,0-1.67-1.8,12.587,12.587,0,1,1-8.346-22.484,21.5,21.5,0,0,1-7.334,17.039,1.233,1.233,0,1,0,1.632,1.85,24.121,24.121,0,0,0,8.174-18.762,12.551,12.551,0,0,1,10.43,9.841A1.233,1.233,0,0,0,74,66.654,20.363,20.363,0,0,0,60.581,48.321ZM36.983,51a6.762,6.762,0,1,1-6.762,6.762A6.769,6.769,0,0,1,36.983,51Zm0,2.467a4.295,4.295,0,1,0,4.295,4.295,4.3,4.3,0,0,0-4.295-4.295Z" transform="translate(0 0)"/>
      </g>
    </g>
  </g>
</svg>
