<svg xmlns="http://www.w3.org/2000/svg" width="118" height="118" viewBox="0 0 118 118">
  <g id="Grupo_1982" data-name="Grupo 1982" transform="translate(-3208 1195)">
    <g id="Grupo_1971" data-name="Grupo 1971">
      <circle id="Elipse_672" data-name="Elipse 672" cx="59" cy="59" r="59" transform="translate(3208 -1195)" fill="#57b8e8"/>
      <circle id="Elipse_673" data-name="Elipse 673" cx="53" cy="53" r="53" transform="translate(3214 -1189)" fill="#fff"/>
      <g id="Grupo_1970" data-name="Grupo 1970" transform="translate(-196.164 46.333)">
        <g id="Grupo_1969" data-name="Grupo 1969" transform="translate(3436.164 -1213.333)">
          <path id="Trazado_9236" data-name="Trazado 9236" d="M75.027,11.838A5.838,5.838,0,0,1,80.865,6H45.838a5.838,5.838,0,1,0,0,11.676H80.865A5.838,5.838,0,0,1,75.027,11.838Z" transform="translate(-39.27 -5.27)" fill="#95a4b6"/>
          <path id="Trazado_9237" data-name="Trazado 9237" d="M91.607,87.946A5.819,5.819,0,0,1,87.257,86H52.23a5.819,5.819,0,0,0,4.35,1.946Z" transform="translate(-50.013 -75.541)" fill="#72869e"/>
          <path id="Trazado_9238" data-name="Trazado 9238" d="M99.676,60.973a5.838,5.838,0,0,0-5.838-5.838h35.027v-43.3a5.838,5.838,0,1,0-5.838,5.838H88v43.3a5.838,5.838,0,1,0,11.676,0Z" transform="translate(-81.432 -5.27)" fill="#fff"/>
          <path id="Trazado_9239" data-name="Trazado 9239" d="M368.973,6a5.871,5.871,0,0,0-.973.082,5.838,5.838,0,0,1,4.865,5.756v43.3h1.946v-43.3A5.838,5.838,0,0,0,368.973,6Z" transform="translate(-327.378 -5.27)" fill="#dce1e7"/>
          <path id="Trazado_9240" data-name="Trazado 9240" d="M171.027,410H136a5.838,5.838,0,0,1,0,11.676h35.027a5.838,5.838,0,0,0,0-11.676Z" transform="translate(-123.595 -360.135)" fill="#95a4b6"/>
          <path id="Trazado_9241" data-name="Trazado 9241" d="M136,410a5.819,5.819,0,0,1,4.35,1.946h35.027a5.819,5.819,0,0,0-4.35-1.946Z" transform="translate(-123.595 -360.135)" fill="#72869e"/>
          <g id="Grupo_1968" data-name="Grupo 1968" transform="translate(0)">
            <path id="Trazado_9242" data-name="Trazado 9242" d="M166,171.676v-6.811a4.865,4.865,0,1,1,9.73,0v6.811" transform="translate(-149.946 -140.541)" fill="#dce1e7"/>
            <path id="Trazado_9243" data-name="Trazado 9243" d="M200.73,160a4.91,4.91,0,0,0-.73.055,4.866,4.866,0,0,1,4.135,4.81v6.811h1.459v-6.811A4.865,4.865,0,0,0,200.73,160Z" transform="translate(-179.811 -140.541)" fill="#b9c2cf"/>
            <path id="Trazado_9244" data-name="Trazado 9244" d="M150,256h13.622v2.919H150Z" transform="translate(-135.892 -224.865)" fill="#95a4b6"/>
            <path id="Trazado_9245" data-name="Trazado 9245" d="M246,256h1.946v2.919H246Z" transform="translate(-220.216 -224.865)" fill="#72869e"/>
            <g id="Grupo_1967" data-name="Grupo 1967">
              <path id="Trazado_9246" data-name="Trazado 9246" d="M82.162,49.177V6.568A6.575,6.575,0,0,0,75.595,0H40.568a6.567,6.567,0,0,0-.73,13.094V55.7a6.575,6.575,0,0,0,6.568,6.568H81.433a6.567,6.567,0,0,0,.73-13.094ZM35.459,6.568a5.114,5.114,0,0,1,5.108-5.108H71.473a6.557,6.557,0,0,0,0,10.216H40.568A5.114,5.114,0,0,1,35.459,6.568ZM46.405,60.811A5.114,5.114,0,0,1,41.3,55.7V13.135h34.3V11.676A5.108,5.108,0,1,1,80.7,6.568V49.135h-34.3v1.459a5.108,5.108,0,0,1,0,10.216Zm35.027,0H50.527a6.557,6.557,0,0,0,0-10.216H81.433a5.108,5.108,0,0,1,0,10.216Z" transform="translate(-34)" fill="#012d4a"/>
              <path id="Trazado_9247" data-name="Trazado 9247" d="M144,298h27.243v1.459H144Z" transform="translate(-130.622 -261.757)" fill="#012d4a"/>
              <path id="Trazado_9248" data-name="Trazado 9248" d="M288,266h9.73v1.459H288Z" transform="translate(-257.108 -233.649)" fill="#012d4a"/>
              <path id="Trazado_9249" data-name="Trazado 9249" d="M272,234h11.676v1.459H272Z" transform="translate(-243.054 -205.541)" fill="#012d4a"/>
              <path id="Trazado_9250" data-name="Trazado 9250" d="M264,202h12.649v1.459H264Z" transform="translate(-236.027 -177.432)" fill="#012d4a"/>
              <path id="Trazado_9251" data-name="Trazado 9251" d="M264,170h12.649v1.459H264Z" transform="translate(-236.027 -149.324)" fill="#012d4a"/>
              <path id="Trazado_9252" data-name="Trazado 9252" d="M232,138h16.541v1.459H232Z" transform="translate(-207.919 -121.216)" fill="#012d4a"/>
              <path id="Trazado_9253" data-name="Trazado 9253" d="M144,330h27.243v1.459H144Z" transform="translate(-130.622 -289.865)" fill="#012d4a"/>
              <path id="Trazado_9254" data-name="Trazado 9254" d="M144,362h27.243v1.459H144Z" transform="translate(-130.622 -317.973)" fill="#012d4a"/>
              <path id="Trazado_9255" data-name="Trazado 9255" d="M185.649,184h-1.459v2.189H182v1.459h2.189v3.162h1.459v-3.162h2.189v-1.459h-2.189Z" transform="translate(-164 -161.622)" fill="#012d4a"/>
              <path id="Trazado_9256" data-name="Trazado 9256" d="M159.081,165.676h-1.946v-6.081a5.595,5.595,0,0,0-11.189,0v6.081H144v4.378h15.081Zm-11.676-6.081a4.135,4.135,0,1,1,8.27,0v6.081h-8.27Zm10.216,9H145.459v-1.459h12.162Z" transform="translate(-130.622 -135.27)" fill="#012d4a"/>
            </g>
          </g>
        </g>
      </g>
    </g>
  </g>
</svg>
