<svg xmlns="http://www.w3.org/2000/svg" width="118" height="118" viewBox="0 0 118 118">
  <g id="Grupo_1973" data-name="Grupo 1973" transform="translate(-3201 2560)">
    <g id="Grupo_1949" data-name="Grupo 1949" transform="translate(0 -546)">
      <g id="Grupo_1704" data-name="Grupo 1704" transform="translate(3424.767 -4896.761)">
        <circle id="Elipse_612" data-name="Elipse 612" cx="59" cy="59" r="59" transform="translate(-223.767 2882.761)" fill="#57b8e8"/>
        <circle id="Elipse_613" data-name="Elipse 613" cx="53" cy="53" r="53" transform="translate(-217.767 2888.761)" fill="#fff"/>
      </g>
      <g id="Grupo_1948" data-name="Grupo 1948" transform="translate(0.5 0.5)">
        <g id="Grupo_1947" data-name="Grupo 1947" transform="translate(2156.5 -2426.5)">
          <path id="Trazado_9153" data-name="Trazado 9153" d="M1141,471.5a37.255,37.255,0,0,0-6.867-21.635l-2.268,1.6a34.734,34.734,0,1,1-5.8-6.357h-7.292v2.778h11.111a1.388,1.388,0,0,0,1.389-1.389V435.389H1128.5v8.172a37.132,37.132,0,0,0-25-9.561,37.5,37.5,0,1,0,37.5,37.5Z" transform="translate(0 0)" fill="#bc1b1b"/>
          <path id="Trazado_9154" data-name="Trazado 9154" d="M1149.778,490a27.778,27.778,0,1,0,27.778,27.778A27.809,27.809,0,0,0,1149.778,490Zm24.929,29.167a24.863,24.863,0,0,1-6.325,15.251l-3.733-3.733-1.964,1.964,3.733,3.733a24.862,24.862,0,0,1-15.251,6.325v-5.485h-2.778v5.485a24.86,24.86,0,0,1-15.251-6.325l3.733-3.733-1.964-1.964-3.733,3.733a24.862,24.862,0,0,1-6.325-15.251h5.485v-2.778h-5.485a24.862,24.862,0,0,1,6.325-15.251l3.733,3.733,1.964-1.964-3.733-3.733a24.861,24.861,0,0,1,15.251-6.325v5.485h2.778v-5.485a24.862,24.862,0,0,1,15.251,6.325l-3.733,3.733,1.964,1.964,3.733-3.733a24.863,24.863,0,0,1,6.325,15.251h-5.485v2.778Z" transform="translate(-46.278 -46.278)"/>
          <path id="Trazado_9155" data-name="Trazado 9155" d="M1213.111,602h-9.722a1.388,1.388,0,0,0-1.389,1.389v4.167h2.778v-2.778h6.945v3.251l-8.881,3.806a1.387,1.387,0,0,0-.842,1.276v4.167a1.388,1.388,0,0,0,1.389,1.389H1214.5v-2.778h-9.722v-1.863l8.881-3.806a1.387,1.387,0,0,0,.842-1.276v-5.556a1.388,1.388,0,0,0-1.389-1.389Z" transform="translate(-112.389 -138.833)" fill="#bc1b1b"/>
          <path id="Trazado_9156" data-name="Trazado 9156" d="M1299.722,610.333h-6.944V602H1290v9.722a1.388,1.388,0,0,0,1.389,1.389h8.333v5.556h2.778V602h-2.778Z" transform="translate(-185.111 -138.833)" fill="#bc1b1b"/>
        </g>
      </g>
    </g>
  </g>
</svg>
