<svg xmlns="http://www.w3.org/2000/svg" width="118" height="118" viewBox="0 0 118 118">
  <g id="Grupo_1981" data-name="Grupo 1981" transform="translate(-3208 1357)">
    <g id="Grupo_1966" data-name="Grupo 1966">
      <circle id="Elipse_672" data-name="Elipse 672" cx="59" cy="59" r="59" transform="translate(3208 -1357)" fill="#57b8e8"/>
      <circle id="Elipse_673" data-name="Elipse 673" cx="53" cy="53" r="53" transform="translate(3214 -1351)" fill="#fff"/>
      <g id="Filled_outline" data-name="Filled outline" transform="translate(3217.995 -1343)">
        <path id="Trazado_9220" data-name="Trazado 9220" d="M52,408H97.438v5.8H52Z" transform="translate(-28.133 -344.633)" fill="#ebebe9"/>
        <path id="Trazado_9221" data-name="Trazado 9221" d="M428.005,408h5.8v5.8h-5.8Z" transform="translate(-358.7 -344.633)" fill="#c7c7c5"/>
        <path id="Trazado_9222" data-name="Trazado 9222" d="M29.938,456h52.2a1.933,1.933,0,0,1,1.933,1.933h0a1.933,1.933,0,0,1-1.933,1.933h-52.2A1.933,1.933,0,0,1,28,457.933h0A1.933,1.933,0,0,1,29.938,456Z" transform="translate(-7.033 -386.833)" fill="#7eb457"/>
        <path id="Trazado_9223" data-name="Trazado 9223" d="M398.638,456H388.005a1.933,1.933,0,0,1,0,3.867h10.633a1.933,1.933,0,0,0,0-3.867Z" transform="translate(-323.533 -386.833)" fill="#79ad54"/>
        <path id="Trazado_9224" data-name="Trazado 9224" d="M139.237,31.275A21.3,21.3,0,0,0,123.2,24h-6.767a21.3,21.3,0,0,0-16.032,7.275l-.4.458V70.4h39.633V31.733Z" transform="translate(-70.333 -7.033)" fill="#c7c7c5"/>
        <path id="Trazado_9225" data-name="Trazado 9225" d="M132.872,31.734V70.4H100V31.734l.4-.458a21.3,21.3,0,0,1,32.064,0Z" transform="translate(-70.333 -7.034)" fill="#e0e0de"/>
        <path id="Trazado_9226" data-name="Trazado 9226" d="M193.538,100.833h-4.833V96h-3.867v4.833h-4.833V104.7h4.833v10.633h3.867V104.7h4.833Z" transform="translate(-140.667 -70.333)" fill="#ffb531"/>
        <path id="Trazado_9227" data-name="Trazado 9227" d="M76.072,68.366v-5A.967.967,0,0,0,75.1,62.4H70.272V24.7a.968.968,0,0,0-.239-.637l-.4-.458A22.269,22.269,0,0,0,52.872,16H46.1a22.27,22.27,0,0,0-16.76,7.605l-.4.458a.968.968,0,0,0-.239.637V62.4H23.872a.967.967,0,0,0-.967.967V68.2a2.9,2.9,0,0,0,0,5.8H75.1a2.9,2.9,0,0,0,.967-5.634ZM74.138,68.2H70.272V64.333h3.867ZM68.176,24.878l.162.185V62.4H63.5V51.767h1.933V49.833H63.5V31.467h1.933V29.533H63.5V24.7a.968.968,0,0,0-.239-.637l-.4-.458a22.263,22.263,0,0,0-7.3-5.492,20.336,20.336,0,0,1,12.607,6.765Zm-37.538.185.162-.185a20.336,20.336,0,0,1,30.61,0l.162.185v4.47H59.638v1.933h1.933V42.1H59.638v1.933h1.933V62.4H30.638Zm-5.8,39.27H37.4v1.933h1.933V64.333h29V68.2H61.572V66.267H59.638V68.2h-34.8ZM75.1,72.067H22.9a.967.967,0,1,1,0-1.933H75.1a.967.967,0,0,1,0,1.933Z" transform="translate(0 0)"/>
        <path id="Trazado_9228" data-name="Trazado 9228" d="M172.005,97.667a.967.967,0,0,0,.967.967h3.867V108.3a.967.967,0,0,0,.967.967h3.867a.967.967,0,0,0,.967-.967V98.633h3.867a.967.967,0,0,0,.967-.967V93.8a.967.967,0,0,0-.967-.967h-3.867V88.967a.967.967,0,0,0-.967-.967h-3.867a.967.967,0,0,0-.967.967v3.867h-3.867a.967.967,0,0,0-.967.967Zm1.933-2.9h3.867a.967.967,0,0,0,.967-.967V89.933h1.933V93.8a.967.967,0,0,0,.967.967h3.867V96.7h-3.867a.967.967,0,0,0-.967.967v9.667h-1.933V97.667a.967.967,0,0,0-.967-.967h-3.867Z" transform="translate(-133.633 -63.3)"/>
        <path id="Trazado_9229" data-name="Trazado 9229" d="M148.005,296h3.867v1.933h-3.867Z" transform="translate(-112.533 -246.167)"/>
        <path id="Trazado_9230" data-name="Trazado 9230" d="M164.005,328h10.633v1.933H164.005Z" transform="translate(-126.6 -274.3)"/>
        <path id="Trazado_9231" data-name="Trazado 9231" d="M196.005,296h15.467v1.933H196.005Z" transform="translate(-154.733 -246.167)"/>
        <path id="Trazado_9232" data-name="Trazado 9232" d="M268.005,328h4.833v1.933h-4.833Z" transform="translate(-218.033 -274.3)"/>
        <path id="Trazado_9233" data-name="Trazado 9233" d="M124,136h2.9v1.933H124Z" transform="translate(-91.433 -105.5)"/>
        <path id="Trazado_9234" data-name="Trazado 9234" d="M156.005,72h1.933v1.933h-1.933Z" transform="translate(-119.567 -49.233)"/>
        <path id="Trazado_9235" data-name="Trazado 9235" d="M132.005,360h1.933v1.933h-1.933Z" transform="translate(-98.467 -302.433)"/>
      </g>
    </g>
  </g>
</svg>
