<?xml version="1.0" encoding="utf-8"?>
<!-- Generator: Adobe Illustrator 22.1.0, SVG Export Plug-In . SVG Version: 6.00 Build 0)  -->
<svg version="1.1" id="Layer_1" xmlns="http://www.w3.org/2000/svg" xmlns:xlink="http://www.w3.org/1999/xlink" x="0px" y="0px"
	 width="699px" height="337.5px" viewBox="0 0 699 337.5" style="enable-background:new 0 0 699 337.5;" xml:space="preserve">
<style type="text/css">
	.st0{fill:#D3EDFE;stroke:#0B223C;stroke-miterlimit:10;}
	.st1{fill:#608393;stroke:#0B223C;stroke-miterlimit:10;}
	.st2{fill:#0B223C;}
	.st3{fill:#FFFFFF;}
	.st4{fill:none;stroke:#0B223C;stroke-width:4;stroke-miterlimit:10;}
</style>
<g>
	<rect x="234.3" y="78.5" class="st0" width="231.5" height="71"/>
	<rect x="465.5" y="78.5" class="st0" width="231.5" height="71"/>
	<rect x="2.3" y="78.5" class="st0" width="231.5" height="71"/>
	<rect x="2" y="2.5" class="st1" width="695" height="76"/>
	<g>
		<g>
			<path class="st2" d="M98.9,186.1c-0.8,0.7-1.8,1-3,1s-2.2-0.3-3-1c-0.8-0.7-1.2-1.6-1.2-2.7c0-0.8,0.2-1.5,0.6-2s1-1,1.7-1.2
				c-0.5-0.3-0.9-0.6-1.2-1.1s-0.5-1-0.5-1.5c0-0.9,0.3-1.7,1-2.3c0.7-0.6,1.5-0.9,2.5-0.9c1,0,1.8,0.3,2.5,0.9s1,1.3,1,2.3
				c0,0.6-0.1,1.1-0.4,1.5s-0.7,0.8-1.2,1.1c0.7,0.3,1.3,0.7,1.7,1.3c0.4,0.6,0.6,1.2,0.6,2C100.1,184.6,99.7,185.5,98.9,186.1z
				 M95.9,185.8c0.8,0,1.4-0.2,1.9-0.7s0.8-1,0.8-1.8c0-0.7-0.3-1.3-0.8-1.8s-1.1-0.7-1.9-0.7c-0.8,0-1.4,0.2-1.9,0.7
				s-0.8,1-0.8,1.8c0,0.7,0.3,1.3,0.8,1.8S95.1,185.8,95.9,185.8z M95.9,179.7c0.6,0,1.1-0.2,1.5-0.6s0.6-0.9,0.6-1.4
				c0-0.6-0.2-1-0.6-1.4c-0.4-0.4-0.9-0.6-1.5-0.6c-0.6,0-1.1,0.2-1.5,0.6s-0.6,0.8-0.6,1.4c0,0.6,0.2,1,0.6,1.4
				S95.3,179.7,95.9,179.7z"/>
			<path class="st2" d="M106,187.2c-1.3,0-2.3-0.5-3-1.6s-1.1-2.7-1.1-4.7s0.4-3.7,1.1-4.7s1.7-1.6,3.1-1.6c1.3,0,2.3,0.5,3,1.6
				c0.7,1.1,1.1,2.7,1.1,4.7s-0.4,3.7-1.1,4.7C108.3,186.6,107.3,187.2,106,187.2z M106,185.8c0.8,0,1.5-0.4,1.9-1.2
				s0.7-2.1,0.7-3.7c0-1.7-0.2-2.9-0.7-3.7c-0.5-0.8-1.1-1.2-1.9-1.2c-0.8,0-1.5,0.4-1.9,1.2s-0.7,2-0.7,3.7c0,1.7,0.2,2.9,0.7,3.7
				C104.5,185.3,105.2,185.8,106,185.8z"/>
			<path class="st2" d="M116.1,187.2c-1.3,0-2.3-0.5-3-1.6s-1.1-2.7-1.1-4.7s0.4-3.7,1.1-4.7s1.7-1.6,3.1-1.6c1.3,0,2.3,0.5,3,1.6
				c0.7,1.1,1.1,2.7,1.1,4.7s-0.4,3.7-1.1,4.7C118.5,186.6,117.4,187.2,116.1,187.2z M116.1,185.8c0.8,0,1.5-0.4,1.9-1.2
				s0.7-2.1,0.7-3.7c0-1.7-0.2-2.9-0.7-3.7c-0.5-0.8-1.1-1.2-1.9-1.2c-0.8,0-1.5,0.4-1.9,1.2s-0.7,2-0.7,3.7c0,1.7,0.2,2.9,0.7,3.7
				C114.7,185.3,115.3,185.8,116.1,185.8z"/>
			<path class="st2" d="M131,187.2c-1.2,0-2.3-0.4-3.1-1.2s-1.2-1.9-1.2-3.2s0.4-2.4,1.2-3.2s1.8-1.2,3.1-1.2c1,0,1.8,0.3,2.5,0.8
				s1.2,1.2,1.5,2.1l-1.4,0.2c-0.2-0.6-0.5-1-1-1.3s-1-0.5-1.6-0.5c-0.8,0-1.5,0.3-2,0.9s-0.8,1.4-0.8,2.3s0.3,1.7,0.8,2.3
				c0.5,0.6,1.2,0.9,2,0.9c0.6,0,1.1-0.2,1.6-0.5s0.8-0.8,1-1.3l1.4,0.2c-0.3,0.9-0.8,1.6-1.5,2.1S132,187.2,131,187.2z"/>
			<path class="st2" d="M140.8,187.2c-1.2,0-2.3-0.4-3.1-1.2s-1.2-1.9-1.2-3.2s0.4-2.4,1.2-3.2s1.8-1.2,3.1-1.2c1,0,1.8,0.3,2.5,0.8
				s1.2,1.2,1.5,2.1l-1.4,0.2c-0.2-0.6-0.5-1-1-1.3s-1-0.5-1.6-0.5c-0.8,0-1.5,0.3-2,0.9s-0.8,1.4-0.8,2.3s0.3,1.7,0.8,2.3
				c0.5,0.6,1.2,0.9,2,0.9c0.6,0,1.1-0.2,1.6-0.5s0.8-0.8,1-1.3l1.4,0.2c-0.3,0.9-0.8,1.6-1.5,2.1S141.7,187.2,140.8,187.2z"/>
		</g>
	</g>
	<g>
		<g>
			<path class="st2" d="M82.7,98.8h2.8l-4.7,12.7h-2.9l-4.7-12.7H76l3.3,9.6L82.7,98.8z"/>
			<path class="st2" d="M92.4,111.7c-1.2,0-2.4-0.3-3.3-0.8s-1.8-1.3-2.3-2.3s-0.8-2.1-0.8-3.4c0-1.3,0.3-2.5,0.8-3.5
				c0.6-1,1.3-1.8,2.3-2.3s2.1-0.8,3.3-0.8s2.4,0.3,3.3,0.8s1.7,1.3,2.3,2.3c0.6,1,0.8,2.1,0.8,3.5c0,1.3-0.3,2.4-0.8,3.4
				s-1.3,1.8-2.3,2.3S93.7,111.7,92.4,111.7z M89.6,108.1c0.7,0.7,1.7,1.1,2.8,1.1s2.1-0.4,2.8-1.1c0.7-0.7,1.1-1.7,1.1-3
				c0-1.3-0.4-2.3-1.1-3s-1.7-1.1-2.8-1.1s-2.1,0.4-2.8,1.1s-1.1,1.7-1.1,3C88.5,106.4,88.9,107.4,89.6,108.1z"/>
			<path class="st2" d="M104,109.2h4v2.3h-6.6V98.8h2.6V109.2z"/>
			<path class="st2" d="M114.7,111.7c-0.7,0-1.4-0.1-2-0.3c-0.6-0.2-1.1-0.5-1.6-0.8s-0.8-0.9-1.1-1.5s-0.4-1.3-0.4-2.1v-8.3h2.6
				v7.9c0,0.9,0.2,1.6,0.6,2s1,0.6,1.7,0.6s1.3-0.2,1.7-0.6c0.4-0.4,0.6-1.1,0.6-2v-7.9h2.6v8.3c0,0.8-0.1,1.5-0.4,2.1
				s-0.6,1.1-1.1,1.5s-1,0.6-1.6,0.8C116,111.6,115.4,111.7,114.7,111.7z"/>
			<path class="st2" d="M137.2,111.5h-2.6l-0.8-9.6l-3.2,9.6h-1.7l-3.2-9.6l-0.8,9.6h-2.6l1.1-12.7h3.8l2.7,8l2.7-8h3.8L137.2,111.5
				z"/>
			<path class="st2" d="M147.3,101.1h-4.7v2.9h4.2v2.3h-4.2v2.9h4.7v2.3H140V98.8h7.4V101.1z"/>
			<path class="st2" d="M158.7,98.8h2.6v12.7h-3l-5.6-9.1v9.1h-2.6V98.8h3l5.7,9V98.8z"/>
			<path class="st2" d="M101.9,133.1l-0.9-2.6h-5.3l-0.9,2.6H92l4.7-12.7h3.2l4.7,12.7H101.9z M96.4,128.3h3.8l-1.9-5.4L96.4,128.3z
				"/>
			<path class="st2" d="M111.4,133.3c-0.9,0-1.8-0.2-2.5-0.5c-0.8-0.3-1.5-0.7-2-1.3s-1-1.2-1.3-2.1s-0.5-1.7-0.5-2.7
				c0-1,0.2-1.9,0.5-2.7c0.3-0.8,0.8-1.5,1.4-2.1c0.6-0.6,1.3-1,2.1-1.3s1.7-0.5,2.6-0.5c1.2,0,2.3,0.3,3.3,0.8
				c1,0.5,1.7,1.3,2.3,2.2l-2.3,1.2c-0.3-0.6-0.8-1.1-1.3-1.4s-1.2-0.5-1.9-0.5c-1.1,0-2.1,0.4-2.8,1.1s-1.1,1.8-1.1,3.1
				c0,1.3,0.4,2.3,1.1,3.1s1.7,1.2,2.9,1.2c0.6,0,1.1-0.1,1.5-0.3s0.9-0.5,1.2-0.9s0.6-0.9,0.7-1.5h-3.5v-2.1h6v6.9h-2.1v-1.8
				C114.6,132.6,113.3,133.3,111.4,133.3z"/>
			<path class="st2" d="M125,133.3c-0.7,0-1.4-0.1-2-0.3c-0.6-0.2-1.1-0.5-1.6-0.8s-0.8-0.9-1.1-1.5s-0.4-1.3-0.4-2.1v-8.3h2.6v7.9
				c0,0.9,0.2,1.6,0.6,2s1,0.6,1.7,0.6s1.3-0.2,1.7-0.6c0.4-0.4,0.6-1.1,0.6-2v-7.9h2.6v8.3c0,0.8-0.1,1.5-0.4,2.1s-0.6,1.1-1.1,1.5
				s-1,0.6-1.6,0.8C126.4,133.2,125.7,133.3,125,133.3z"/>
			<path class="st2" d="M141.3,133.1l-0.9-2.6H135l-0.9,2.6h-2.7l4.7-12.7h3.2l4.7,12.7H141.3z M135.8,128.3h3.8l-1.9-5.4
				L135.8,128.3z"/>
		</g>
	</g>
	<g>
		<g>
			<path class="st2" d="M300.8,98.8h2.8l-4.7,12.7H296l-4.7-12.7h2.8l3.3,9.6L300.8,98.8z"/>
			<path class="st2" d="M310.5,111.7c-1.2,0-2.4-0.3-3.3-0.8s-1.8-1.3-2.3-2.3s-0.8-2.1-0.8-3.4c0-1.3,0.3-2.5,0.8-3.5
				c0.6-1,1.3-1.8,2.3-2.3s2.1-0.8,3.3-0.8s2.4,0.3,3.3,0.8s1.7,1.3,2.3,2.3c0.6,1,0.8,2.1,0.8,3.5c0,1.3-0.3,2.4-0.8,3.4
				s-1.3,1.8-2.3,2.3S311.7,111.7,310.5,111.7z M307.7,108.1c0.7,0.7,1.7,1.1,2.8,1.1s2.1-0.4,2.8-1.1c0.7-0.7,1.1-1.7,1.1-3
				c0-1.3-0.4-2.3-1.1-3s-1.7-1.1-2.8-1.1s-2.1,0.4-2.8,1.1s-1.1,1.7-1.1,3C306.6,106.4,307,107.4,307.7,108.1z"/>
			<path class="st2" d="M322,109.2h4v2.3h-6.6V98.8h2.6V109.2z"/>
			<path class="st2" d="M332.7,111.7c-0.7,0-1.4-0.1-2-0.3c-0.6-0.2-1.1-0.5-1.6-0.8s-0.8-0.9-1.1-1.5s-0.4-1.3-0.4-2.1v-8.3h2.6
				v7.9c0,0.9,0.2,1.6,0.6,2s1,0.6,1.7,0.6s1.3-0.2,1.7-0.6c0.4-0.4,0.6-1.1,0.6-2v-7.9h2.6v8.3c0,0.8-0.1,1.5-0.4,2.1
				s-0.6,1.1-1.1,1.5s-1,0.6-1.6,0.8C334.1,111.6,333.4,111.7,332.7,111.7z"/>
			<path class="st2" d="M355.3,111.5h-2.6l-0.8-9.6l-3.2,9.6h-1.7l-3.2-9.6l-0.8,9.6h-2.6l1.1-12.7h3.8l2.7,8l2.7-8h3.8L355.3,111.5
				z"/>
			<path class="st2" d="M365.4,101.1h-4.7v2.9h4.2v2.3h-4.2v2.9h4.7v2.3H358V98.8h7.4V101.1z"/>
			<path class="st2" d="M376.8,98.8h2.6v12.7h-3l-5.6-9.1v9.1h-2.6V98.8h3l5.7,9V98.8z"/>
			<path class="st2" d="M387.4,111.5V98.8h4.6c1,0,1.9,0.2,2.6,0.5c0.8,0.3,1.4,0.7,1.9,1.3c0.5,0.6,0.9,1.2,1.1,2
				c0.3,0.8,0.4,1.6,0.4,2.6c0,1-0.1,1.8-0.4,2.6c-0.3,0.8-0.6,1.4-1.1,2c-0.5,0.6-1.1,1-1.9,1.3c-0.8,0.3-1.7,0.5-2.6,0.5H387.4z
				 M390,109.2h1.8c1.1,0,2-0.3,2.6-1s0.8-1.7,0.8-3s-0.3-2.3-0.8-3c-0.6-0.7-1.4-1-2.6-1H390V109.2z"/>
			<path class="st2" d="M407.9,101.1h-4.7v2.9h4.2v2.3h-4.2v2.9h4.7v2.3h-7.4V98.8h7.4V101.1z"/>
			<path class="st2" d="M300.1,120.4h2.6v12.7h-2.6v-5.2h-5.4v5.2h-2.6v-12.7h2.6v5.2h5.4V120.4z"/>
			<path class="st2" d="M306,133.1v-12.7h2.6v12.7H306z"/>
			<path class="st2" d="M317.2,120.4c1.2,0,2.2,0.4,2.9,1.2s1.1,1.8,1.1,2.9c0,1.2-0.4,2.1-1.1,2.9c-0.7,0.8-1.7,1.1-2.9,1.1h-2.6
				v4.6H312v-12.7H317.2z M316.8,126.3c0.6,0,1.1-0.2,1.5-0.5c0.3-0.3,0.5-0.8,0.5-1.4c0-0.6-0.2-1-0.5-1.4s-0.8-0.5-1.4-0.5h-2.2
				v3.7H316.8z"/>
			<path class="st2" d="M329.1,133.3c-1.2,0-2.4-0.3-3.3-0.8s-1.8-1.3-2.3-2.3s-0.8-2.1-0.8-3.4c0-1.3,0.3-2.5,0.8-3.5
				c0.6-1,1.3-1.8,2.3-2.3s2.1-0.8,3.3-0.8s2.4,0.3,3.3,0.8s1.7,1.3,2.3,2.3c0.6,1,0.8,2.1,0.8,3.5c0,1.3-0.3,2.4-0.8,3.4
				s-1.3,1.8-2.3,2.3S330.3,133.3,329.1,133.3z M326.3,129.7c0.7,0.7,1.7,1.1,2.8,1.1s2.1-0.4,2.8-1.1c0.7-0.7,1.1-1.7,1.1-3
				c0-1.3-0.4-2.3-1.1-3s-1.7-1.1-2.8-1.1s-2.1,0.4-2.8,1.1s-1.1,1.7-1.1,3C325.2,128,325.6,129,326.3,129.7z"/>
			<path class="st2" d="M343.6,133.3c-0.9,0-1.8-0.2-2.6-0.5s-1.5-0.7-2.1-1.3s-1-1.2-1.4-2.1s-0.5-1.7-0.5-2.7
				c0-1.3,0.3-2.5,0.8-3.5c0.6-1,1.3-1.8,2.3-2.3s2.1-0.8,3.3-0.8c1.4,0,2.7,0.3,3.7,1s1.8,1.6,2.3,2.8l-2.5,0.9
				c-0.3-0.7-0.7-1.3-1.4-1.7s-1.4-0.6-2.2-0.6c-1.1,0-2.1,0.4-2.8,1.1s-1.1,1.7-1.1,3s0.4,2.3,1.1,3s1.7,1.1,2.8,1.1
				c0.8,0,1.5-0.2,2.2-0.6c0.6-0.4,1.1-1,1.4-1.7l2.5,0.9c-0.5,1.2-1.2,2.1-2.3,2.8C346.3,132.9,345.1,133.3,343.6,133.3z"/>
			<path class="st2" d="M354.5,130.8h4v2.3h-6.6v-12.7h2.6V130.8z"/>
			<path class="st2" d="M365.8,133.3c-1.2,0-2.4-0.3-3.3-0.8s-1.8-1.3-2.3-2.3s-0.8-2.1-0.8-3.4c0-1.3,0.3-2.5,0.8-3.5
				c0.6-1,1.3-1.8,2.3-2.3s2.1-0.8,3.3-0.8s2.4,0.3,3.3,0.8s1.8,1.3,2.3,2.3c0.6,1,0.8,2.1,0.8,3.5c0,1.3-0.3,2.4-0.8,3.4
				s-1.3,1.8-2.3,2.3S367.1,133.3,365.8,133.3z M363,129.7c0.7,0.7,1.7,1.1,2.8,1.1s2.1-0.4,2.8-1.1c0.7-0.7,1.1-1.7,1.1-3
				c0-1.3-0.4-2.3-1.1-3s-1.7-1.1-2.8-1.1s-2.1,0.4-2.8,1.1s-1.1,1.7-1.1,3C361.9,128,362.3,129,363,129.7z"/>
			<path class="st2" d="M381.4,133.1l-3.3-5.6h-0.8v5.6h-2.6v-12.7h4.6c0.7,0,1.3,0.1,1.8,0.3c0.5,0.2,1,0.5,1.3,0.8
				s0.6,0.7,0.7,1.2s0.2,0.9,0.2,1.5c0,0.8-0.2,1.5-0.7,2.1c-0.5,0.5-1.1,0.9-2,1.1l3.8,5.7H381.4z M377.4,122.6v3h1.6
				c1.3,0,2-0.5,2-1.5c0-0.5-0.2-0.8-0.5-1.1s-0.8-0.4-1.5-0.4H377.4z"/>
			<path class="st2" d="M386.5,133.1v-12.7h2.6v12.7H386.5z"/>
			<path class="st2" d="M399.8,120.4v2.3h-3v10.4h-2.6v-10.4h-3v-2.3H399.8z"/>
			<path class="st2" d="M406.9,133.3c-1.2,0-2.4-0.3-3.3-0.8s-1.8-1.3-2.3-2.3s-0.8-2.1-0.8-3.4c0-1.3,0.3-2.5,0.8-3.5
				c0.6-1,1.3-1.8,2.3-2.3s2.1-0.8,3.3-0.8s2.4,0.3,3.3,0.8s1.7,1.3,2.3,2.3c0.6,1,0.8,2.1,0.8,3.5c0,1.3-0.3,2.4-0.8,3.4
				s-1.3,1.8-2.3,2.3S408.2,133.3,406.9,133.3z M404.2,129.7c0.7,0.7,1.7,1.1,2.8,1.1s2.1-0.4,2.8-1.1c0.7-0.7,1.1-1.7,1.1-3
				c0-1.3-0.4-2.3-1.1-3s-1.7-1.1-2.8-1.1s-2.1,0.4-2.8,1.1s-1.1,1.7-1.1,3C403.1,128,403.4,129,404.2,129.7z"/>
		</g>
	</g>
	<g>
		<g>
			<path class="st3" d="M145.9,47.5V33.4h5.1c1.1,0,2.1,0.2,2.9,0.5s1.6,0.8,2.1,1.4s1,1.4,1.3,2.2s0.4,1.8,0.4,2.9
				c0,1.1-0.1,2-0.4,2.9s-0.7,1.6-1.3,2.2s-1.3,1.1-2.1,1.4s-1.8,0.5-2.9,0.5H145.9z M148.8,44.9h2c1.3,0,2.2-0.4,2.9-1.1
				s0.9-1.9,0.9-3.3s-0.3-2.6-0.9-3.3s-1.6-1.1-2.9-1.1h-2V44.9z"/>
			<path class="st3" d="M160.5,47.5V33.4h2.9v14.1H160.5z"/>
			<path class="st3" d="M170,44.9h4.4v2.6H167V33.4h2.9V44.9z"/>
			<path class="st3" d="M181.9,47.7c-0.8,0-1.5-0.1-2.2-0.3s-1.2-0.5-1.7-0.9s-0.9-0.9-1.2-1.6s-0.4-1.4-0.4-2.3v-9.2h2.9v8.8
				c0,1,0.2,1.8,0.7,2.2s1.1,0.7,1.9,0.7s1.4-0.2,1.9-0.7s0.7-1.2,0.7-2.2v-8.8h2.9v9.2c0,0.9-0.1,1.6-0.4,2.3s-0.7,1.2-1.2,1.6
				s-1.1,0.7-1.7,0.9S182.7,47.7,181.9,47.7z"/>
			<path class="st3" d="M197,47.7c-1,0-2-0.2-2.9-0.5s-1.7-0.8-2.3-1.4s-1.1-1.4-1.5-2.3s-0.5-1.9-0.5-3c0-1.5,0.3-2.7,0.9-3.8
				s1.5-1.9,2.6-2.5s2.3-0.9,3.7-0.9c1.6,0,3,0.4,4.1,1.1s2,1.8,2.5,3.1l-2.7,1c-0.3-0.8-0.8-1.4-1.5-1.9s-1.5-0.7-2.4-0.7
				c-1.3,0-2.3,0.4-3.1,1.2s-1.2,1.9-1.2,3.3s0.4,2.5,1.2,3.3s1.8,1.2,3.1,1.2c0.9,0,1.7-0.2,2.4-0.7s1.2-1.1,1.5-1.9l2.7,1
				c-0.5,1.3-1.3,2.4-2.5,3.1S198.6,47.7,197,47.7z"/>
			<path class="st3" d="M206.1,47.5V33.4h2.9v14.1H206.1z"/>
			<path class="st3" d="M218.9,47.7c-1.4,0-2.6-0.3-3.7-0.9s-1.9-1.4-2.6-2.5s-0.9-2.4-0.9-3.8c0-1.5,0.3-2.7,0.9-3.8
				s1.5-1.9,2.6-2.5s2.3-0.9,3.7-0.9s2.6,0.3,3.7,0.9s1.9,1.4,2.6,2.5s0.9,2.4,0.9,3.8c0,1.4-0.3,2.7-0.9,3.8s-1.5,2-2.6,2.5
				S220.3,47.7,218.9,47.7z M215.8,43.8c0.8,0.8,1.8,1.2,3.1,1.2s2.3-0.4,3.1-1.2s1.2-1.9,1.2-3.3c0-1.4-0.4-2.5-1.2-3.3
				s-1.8-1.2-3.1-1.2s-2.3,0.4-3.1,1.2s-1.2,1.9-1.2,3.3C214.6,41.8,215,43,215.8,43.8z"/>
			<path class="st3" d="M238.4,33.4h2.9v14.1H238l-6.3-10.1v10.1h-2.9V33.4h3.3l6.3,10V33.4z"/>
			<path class="st3" d="M250.2,47.5V33.4h5.1c1.1,0,2.1,0.2,2.9,0.5s1.6,0.8,2.1,1.4s1,1.4,1.3,2.2s0.4,1.8,0.4,2.9
				c0,1.1-0.1,2-0.4,2.9s-0.7,1.6-1.3,2.2s-1.3,1.1-2.1,1.4s-1.8,0.5-2.9,0.5H250.2z M253.1,44.9h2c1.3,0,2.2-0.4,2.9-1.1
				s0.9-1.9,0.9-3.3s-0.3-2.6-0.9-3.3s-1.6-1.1-2.9-1.1h-2V44.9z"/>
			<path class="st3" d="M273,36h-5.2v3.2h4.6v2.5h-4.6v3.2h5.2v2.6h-8.2V33.4h8.2V36z"/>
			<path class="st3" d="M290.1,33.4h2.9v14.1h-2.9v-5.8h-6v5.8h-2.9V33.4h2.9v5.8h6V33.4z"/>
			<path class="st3" d="M296.7,47.5V33.4h2.9v14.1H296.7z"/>
			<path class="st3" d="M309.1,33.4c1.3,0,2.4,0.4,3.3,1.3s1.2,2,1.2,3.2c0,1.3-0.4,2.4-1.2,3.2s-1.9,1.3-3.3,1.3h-2.9v5.1h-2.9
				V33.4H309.1z M308.6,40c0.7,0,1.3-0.2,1.6-0.6s0.5-0.9,0.5-1.5c0-0.6-0.2-1.1-0.5-1.5s-0.9-0.6-1.6-0.6h-2.5V40H308.6z"/>
			<path class="st3" d="M322.3,47.7c-1.4,0-2.6-0.3-3.7-0.9s-1.9-1.4-2.6-2.5s-0.9-2.4-0.9-3.8c0-1.5,0.3-2.7,0.9-3.8
				s1.5-1.9,2.6-2.5s2.3-0.9,3.7-0.9s2.6,0.3,3.7,0.9s1.9,1.4,2.6,2.5s0.9,2.4,0.9,3.8c0,1.4-0.3,2.7-0.9,3.8s-1.5,2-2.6,2.5
				S323.7,47.7,322.3,47.7z M319.2,43.8c0.8,0.8,1.8,1.2,3.1,1.2s2.3-0.4,3.1-1.2s1.2-1.9,1.2-3.3c0-1.4-0.4-2.5-1.2-3.3
				s-1.8-1.2-3.1-1.2s-2.3,0.4-3.1,1.2S318,39,318,40.4C318,41.8,318.4,43,319.2,43.8z"/>
			<path class="st3" d="M338.5,47.7c-1,0-2-0.2-2.9-0.5s-1.7-0.8-2.3-1.4s-1.1-1.4-1.5-2.3s-0.5-1.9-0.5-3c0-1.5,0.3-2.7,0.9-3.8
				s1.5-1.9,2.6-2.5s2.3-0.9,3.7-0.9c1.6,0,3,0.4,4.1,1.1s2,1.8,2.5,3.1l-2.7,1c-0.3-0.8-0.8-1.4-1.5-1.9s-1.5-0.7-2.4-0.7
				c-1.3,0-2.3,0.4-3.1,1.2s-1.2,1.9-1.2,3.3s0.4,2.5,1.2,3.3s1.8,1.2,3.1,1.2c0.9,0,1.7-0.2,2.4-0.7s1.2-1.1,1.5-1.9l2.7,1
				c-0.5,1.3-1.3,2.4-2.5,3.1S340,47.7,338.5,47.7z"/>
			<path class="st3" d="M350.5,44.9h4.4v2.6h-7.4V33.4h2.9V44.9z"/>
			<path class="st3" d="M363.1,47.7c-1.4,0-2.6-0.3-3.7-0.9s-1.9-1.4-2.6-2.5s-0.9-2.4-0.9-3.8c0-1.5,0.3-2.7,0.9-3.8
				s1.5-1.9,2.6-2.5s2.3-0.9,3.7-0.9s2.6,0.3,3.7,0.9s1.9,1.4,2.6,2.5s0.9,2.4,0.9,3.8c0,1.4-0.3,2.7-0.9,3.8s-1.5,2-2.6,2.5
				S364.5,47.7,363.1,47.7z M360,43.8c0.8,0.8,1.8,1.2,3.1,1.2s2.3-0.4,3.1-1.2s1.2-1.9,1.2-3.3c0-1.4-0.4-2.5-1.2-3.3
				s-1.8-1.2-3.1-1.2s-2.3,0.4-3.1,1.2s-1.2,1.9-1.2,3.3C358.8,41.8,359.2,43,360,43.8z"/>
			<path class="st3" d="M380.4,47.5l-3.7-6.2h-0.8v6.2H373V33.4h5.1c0.8,0,1.5,0.1,2.1,0.3s1.1,0.5,1.4,0.9s0.6,0.8,0.8,1.3
				s0.3,1.1,0.3,1.7c0,0.9-0.3,1.7-0.8,2.3s-1.3,1-2.2,1.2l4.2,6.4H380.4z M375.9,35.8v3.4h1.7c1.5,0,2.2-0.6,2.2-1.7
				c0-0.5-0.2-0.9-0.5-1.2s-0.9-0.4-1.7-0.4H375.9z"/>
			<path class="st3" d="M386,47.5V33.4h2.9v14.1H386z"/>
			<path class="st3" d="M400.8,33.4V36h-3.3v11.5h-2.9V36h-3.4v-2.6H400.8z"/>
			<path class="st3" d="M408.8,47.7c-1.4,0-2.6-0.3-3.7-0.9s-1.9-1.4-2.6-2.5s-0.9-2.4-0.9-3.8c0-1.5,0.3-2.7,0.9-3.8
				s1.5-1.9,2.6-2.5s2.3-0.9,3.7-0.9s2.6,0.3,3.7,0.9s1.9,1.4,2.6,2.5s0.9,2.4,0.9,3.8c0,1.4-0.3,2.7-0.9,3.8s-1.5,2-2.6,2.5
				S410.1,47.7,408.8,47.7z M405.7,43.8c0.8,0.8,1.8,1.2,3.1,1.2s2.3-0.4,3.1-1.2s1.2-1.9,1.2-3.3c0-1.4-0.4-2.5-1.2-3.3
				s-1.8-1.2-3.1-1.2s-2.3,0.4-3.1,1.2s-1.2,1.9-1.2,3.3C404.5,41.8,404.9,43,405.7,43.8z"/>
			<path class="st3" d="M423.9,47.5V33.4h5.1c1.1,0,2.1,0.2,2.9,0.5s1.6,0.8,2.1,1.4s1,1.4,1.3,2.2s0.4,1.8,0.4,2.9
				c0,1.1-0.1,2-0.4,2.9s-0.7,1.6-1.3,2.2s-1.3,1.1-2.1,1.4s-1.8,0.5-2.9,0.5H423.9z M426.8,44.9h2c1.3,0,2.2-0.4,2.9-1.1
				s0.9-1.9,0.9-3.3s-0.3-2.6-0.9-3.3s-1.6-1.1-2.9-1.1h-2V44.9z"/>
			<path class="st3" d="M446.6,36h-5.2v3.2h4.6v2.5h-4.6v3.2h5.2v2.6h-8.2V33.4h8.2V36z"/>
			<path class="st3" d="M459.5,47.7c-1.5,0-2.9-0.4-3.9-1.1s-1.7-1.7-1.9-3l3-0.7c0.1,0.8,0.4,1.4,0.9,1.8s1.2,0.6,2,0.6
				c0.6,0,1.1-0.1,1.5-0.4s0.6-0.7,0.6-1.3c0-0.4-0.2-0.7-0.5-1s-0.7-0.5-1-0.6s-0.9-0.3-1.6-0.5c-0.1,0-0.2-0.1-0.2-0.1
				c-0.4-0.1-0.7-0.2-0.9-0.3s-0.5-0.2-0.8-0.3s-0.6-0.3-0.8-0.4s-0.4-0.3-0.7-0.5s-0.4-0.4-0.6-0.6s-0.3-0.5-0.3-0.8
				s-0.1-0.6-0.1-1c0-0.9,0.2-1.6,0.7-2.2s1-1.1,1.8-1.4s1.6-0.5,2.5-0.5c0.6,0,1.3,0.1,1.8,0.2s1.1,0.3,1.6,0.6s1,0.7,1.3,1.2
				s0.6,1.1,0.7,1.7l-2.8,0.7c-0.3-1.3-1.1-2-2.5-2c-0.6,0-1.2,0.1-1.6,0.4s-0.6,0.7-0.6,1.2c0,0.5,0.3,0.9,1,1.3
				c0.3,0.2,1,0.4,2,0.7c0.4,0.1,0.7,0.2,0.9,0.3s0.5,0.2,0.9,0.3s0.7,0.3,0.9,0.4s0.5,0.3,0.7,0.5s0.5,0.5,0.6,0.7s0.3,0.5,0.4,0.9
				s0.2,0.7,0.2,1.1c0,0.6-0.1,1.1-0.3,1.6s-0.4,0.9-0.8,1.2s-0.7,0.6-1.2,0.8s-0.9,0.4-1.4,0.5S460.1,47.7,459.5,47.7z"/>
			<path class="st3" d="M473.8,47.7c-1.4,0-2.6-0.3-3.7-0.9s-1.9-1.4-2.6-2.5s-0.9-2.4-0.9-3.8c0-1.5,0.3-2.7,0.9-3.8
				s1.5-1.9,2.6-2.5s2.3-0.9,3.7-0.9s2.6,0.3,3.7,0.9s1.9,1.4,2.6,2.5s0.9,2.4,0.9,3.8c0,1.4-0.3,2.7-0.9,3.8s-1.5,2-2.6,2.5
				S475.1,47.7,473.8,47.7z M470.7,43.8c0.8,0.8,1.8,1.2,3.1,1.2s2.3-0.4,3.1-1.2s1.2-1.9,1.2-3.3c0-1.4-0.4-2.5-1.2-3.3
				s-1.8-1.2-3.1-1.2s-2.3,0.4-3.1,1.2s-1.2,1.9-1.2,3.3C469.5,41.8,469.9,43,470.7,43.8z"/>
			<path class="st3" d="M483.7,47.5V33.4h5.1c1.1,0,2.1,0.2,2.9,0.5s1.6,0.8,2.1,1.4s1,1.4,1.3,2.2s0.4,1.8,0.4,2.9
				c0,1.1-0.1,2-0.4,2.9s-0.7,1.6-1.3,2.2s-1.3,1.1-2.1,1.4s-1.8,0.5-2.9,0.5H483.7z M486.6,44.9h2c1.3,0,2.2-0.4,2.9-1.1
				s0.9-1.9,0.9-3.3s-0.3-2.6-0.9-3.3s-1.6-1.1-2.9-1.1h-2V44.9z"/>
			<path class="st3" d="M498.2,47.5V33.4h2.9v14.1H498.2z"/>
			<path class="st3" d="M511.1,47.7c-1.4,0-2.6-0.3-3.7-0.9s-1.9-1.4-2.6-2.5s-0.9-2.4-0.9-3.8c0-1.5,0.3-2.7,0.9-3.8
				s1.5-1.9,2.6-2.5s2.3-0.9,3.7-0.9s2.6,0.3,3.7,0.9s1.9,1.4,2.6,2.5s0.9,2.4,0.9,3.8c0,1.4-0.3,2.7-0.9,3.8s-1.5,2-2.6,2.5
				S512.4,47.7,511.1,47.7z M508,43.8c0.8,0.8,1.8,1.2,3.1,1.2s2.3-0.4,3.1-1.2s1.2-1.9,1.2-3.3c0-1.4-0.4-2.5-1.2-3.3
				s-1.8-1.2-3.1-1.2s-2.3,0.4-3.1,1.2s-1.2,1.9-1.2,3.3C506.8,41.8,507.2,43,508,43.8z"/>
			<path class="st3" d="M530,38.3c3.6,0,5.4,1.5,5.4,4.5c0,1.5-0.5,2.7-1.4,3.6s-2.1,1.3-3.6,1.3c-0.9,0-1.8-0.2-2.5-0.5
				s-1.4-0.9-1.8-1.6s-0.7-1.5-0.7-2.4c0-0.2,0-0.5,0.1-0.7l2.8-0.1c0,0.3-0.1,0.5-0.1,0.6c0,0.7,0.2,1.2,0.6,1.6s0.9,0.5,1.6,0.5
				c0.7,0,1.3-0.2,1.6-0.6s0.6-0.9,0.6-1.6c0-0.7-0.2-1.3-0.7-1.7s-1.3-0.6-2.4-0.6h-3.7l0.6-7.3h8.3v2.5H529l-0.2,2.5H530z"/>
			<path class="st3" d="M540.4,39.8c-0.9,0-1.7-0.3-2.3-1s-1-1.4-1-2.3c0-0.9,0.3-1.7,1-2.3s1.4-1,2.3-1c0.9,0,1.7,0.3,2.3,1
				s1,1.4,1,2.3c0,0.9-0.3,1.7-1,2.3S541.3,39.8,540.4,39.8z M540.4,37.9c0.4,0,0.8-0.1,1-0.4s0.4-0.6,0.4-1c0-0.4-0.1-0.7-0.4-1
				s-0.6-0.4-1-0.4s-0.7,0.1-1,0.4s-0.4,0.6-0.4,1c0,0.4,0.1,0.7,0.4,1S540,37.9,540.4,37.9z M539.7,47.5l7.4-14.1h2.4L542,47.5
				H539.7z M548.8,47.7c-0.9,0-1.7-0.3-2.3-1s-1-1.4-1-2.3s0.3-1.7,1-2.3s1.4-1,2.3-1c0.9,0,1.7,0.3,2.3,1s1,1.4,1,2.3
				c0,0.9-0.3,1.7-1,2.3S549.7,47.7,548.8,47.7z M548.8,45.8c0.4,0,0.7-0.1,1-0.4s0.4-0.6,0.4-1s-0.1-0.7-0.4-1s-0.6-0.4-1-0.4
				c-0.4,0-0.7,0.1-1,0.4s-0.4,0.6-0.4,1c0,0.4,0.1,0.7,0.4,1S548.4,45.8,548.8,45.8z"/>
		</g>
	</g>
	<g>
		<g>
			<path class="st2" d="M532,98.8h2.8l-4.7,12.7h-2.9l-4.7-12.7h2.8l3.3,9.6L532,98.8z"/>
			<path class="st2" d="M541.7,111.7c-1.2,0-2.4-0.3-3.3-0.8c-1-0.5-1.8-1.3-2.3-2.3s-0.8-2.1-0.8-3.4c0-1.3,0.3-2.5,0.8-3.5
				c0.6-1,1.3-1.8,2.3-2.3c1-0.5,2.1-0.8,3.3-0.8s2.4,0.3,3.3,0.8s1.7,1.3,2.3,2.3c0.6,1,0.8,2.1,0.8,3.5c0,1.3-0.3,2.4-0.8,3.4
				s-1.3,1.8-2.3,2.3C544.1,111.4,543,111.7,541.7,111.7z M538.9,108.1c0.7,0.7,1.7,1.1,2.8,1.1s2.1-0.4,2.8-1.1
				c0.7-0.7,1.1-1.7,1.1-3c0-1.3-0.4-2.3-1.1-3s-1.7-1.1-2.8-1.1s-2.1,0.4-2.8,1.1s-1.1,1.7-1.1,3
				C537.9,106.4,538.2,107.4,538.9,108.1z"/>
			<path class="st2" d="M553.3,109.2h4v2.3h-6.6V98.8h2.6V109.2z"/>
			<path class="st2" d="M564,111.7c-0.7,0-1.4-0.1-2-0.3c-0.6-0.2-1.1-0.5-1.6-0.8s-0.8-0.9-1.1-1.5c-0.3-0.6-0.4-1.3-0.4-2.1v-8.3
				h2.6v7.9c0,0.9,0.2,1.6,0.6,2c0.4,0.4,1,0.6,1.7,0.6s1.3-0.2,1.7-0.6c0.4-0.4,0.6-1.1,0.6-2v-7.9h2.6v8.3c0,0.8-0.1,1.5-0.4,2.1
				c-0.3,0.6-0.6,1.1-1.1,1.5c-0.5,0.4-1,0.6-1.6,0.8C565.3,111.6,564.7,111.7,564,111.7z"/>
			<path class="st2" d="M586.5,111.5h-2.6l-0.8-9.6l-3.2,9.6h-1.7l-3.2-9.6l-0.8,9.6h-2.6l1.1-12.7h3.8l2.7,8l2.7-8h3.8L586.5,111.5
				z"/>
			<path class="st2" d="M596.7,101.1h-4.7v2.9h4.2v2.3h-4.2v2.9h4.7v2.3h-7.4V98.8h7.4V101.1z"/>
			<path class="st2" d="M608,98.8h2.6v12.7h-3l-5.6-9.1v9.1h-2.6V98.8h3l5.7,9V98.8z"/>
			<path class="st2" d="M618.6,111.5V98.8h4.6c1,0,1.9,0.2,2.6,0.5c0.8,0.3,1.4,0.7,1.9,1.3c0.5,0.6,0.9,1.2,1.1,2
				c0.3,0.8,0.4,1.6,0.4,2.6c0,1-0.1,1.8-0.4,2.6c-0.3,0.8-0.6,1.4-1.1,2c-0.5,0.6-1.1,1-1.9,1.3c-0.8,0.3-1.7,0.5-2.6,0.5H618.6z
				 M621.3,109.2h1.8c1.1,0,2-0.3,2.6-1s0.8-1.7,0.8-3s-0.3-2.3-0.8-3c-0.6-0.7-1.4-1-2.6-1h-1.8V109.2z"/>
			<path class="st2" d="M639.1,101.1h-4.7v2.9h4.2v2.3h-4.2v2.9h4.7v2.3h-7.4V98.8h7.4V101.1z"/>
			<path class="st2" d="M527.5,130.8h4v2.3h-6.6v-12.7h2.6V130.8z"/>
			<path class="st2" d="M542.4,133.1l-0.9-2.6h-5.3l-0.9,2.6h-2.7l4.7-12.7h3.2l4.7,12.7H542.4z M536.9,128.3h3.8l-1.9-5.4
				L536.9,128.3z"/>
			<path class="st2" d="M551.7,133.1v-12.7h4.6c1,0,1.9,0.2,2.6,0.5c0.8,0.3,1.4,0.7,1.9,1.3c0.5,0.6,0.9,1.2,1.1,2
				c0.3,0.8,0.4,1.6,0.4,2.6c0,1-0.1,1.8-0.4,2.6c-0.3,0.8-0.6,1.4-1.1,2c-0.5,0.6-1.1,1-1.9,1.3c-0.8,0.3-1.7,0.5-2.6,0.5H551.7z
				 M554.3,130.8h1.8c1.1,0,2-0.3,2.6-1s0.8-1.7,0.8-3s-0.3-2.3-0.8-3c-0.6-0.7-1.4-1-2.6-1h-1.8V130.8z"/>
			<path class="st2" d="M564.8,133.1v-12.7h2.6v12.7H564.8z"/>
			<path class="st2" d="M573.3,130.8h4v2.3h-6.6v-12.7h2.6V130.8z"/>
			<path class="st2" d="M584,133.3c-0.7,0-1.4-0.1-2-0.3c-0.6-0.2-1.1-0.5-1.6-0.8s-0.8-0.9-1.1-1.5c-0.3-0.6-0.4-1.3-0.4-2.1v-8.3
				h2.6v7.9c0,0.9,0.2,1.6,0.6,2c0.4,0.4,1,0.6,1.7,0.6s1.3-0.2,1.7-0.6c0.4-0.4,0.6-1.1,0.6-2v-7.9h2.6v8.3c0,0.8-0.1,1.5-0.4,2.1
				c-0.3,0.6-0.6,1.1-1.1,1.5c-0.5,0.4-1,0.6-1.6,0.8C585.4,133.2,584.8,133.3,584,133.3z"/>
			<path class="st2" d="M597.7,133.3c-0.9,0-1.8-0.2-2.6-0.5c-0.8-0.3-1.5-0.7-2.1-1.3s-1-1.2-1.4-2.1s-0.5-1.7-0.5-2.7
				c0-1.3,0.3-2.5,0.8-3.5c0.6-1,1.3-1.8,2.3-2.3c1-0.5,2.1-0.8,3.3-0.8c1.4,0,2.7,0.3,3.7,1s1.8,1.6,2.3,2.8l-2.5,0.9
				c-0.3-0.7-0.7-1.3-1.4-1.7s-1.4-0.6-2.2-0.6c-1.1,0-2.1,0.4-2.8,1.1s-1.1,1.7-1.1,3s0.4,2.3,1.1,3c0.7,0.7,1.7,1.1,2.8,1.1
				c0.8,0,1.5-0.2,2.2-0.6c0.6-0.4,1.1-1,1.4-1.7l2.5,0.9c-0.5,1.2-1.2,2.1-2.3,2.8C600.3,132.9,599.1,133.3,597.7,133.3z"/>
			<path class="st2" d="M605.8,133.1v-12.7h2.6v12.7H605.8z"/>
			<path class="st2" d="M617.4,133.3c-1.2,0-2.4-0.3-3.3-0.8c-1-0.5-1.8-1.3-2.3-2.3s-0.8-2.1-0.8-3.4c0-1.3,0.3-2.5,0.8-3.5
				c0.6-1,1.3-1.8,2.3-2.3c1-0.5,2.1-0.8,3.3-0.8s2.4,0.3,3.3,0.8s1.7,1.3,2.3,2.3c0.6,1,0.8,2.1,0.8,3.5c0,1.3-0.3,2.4-0.8,3.4
				s-1.3,1.8-2.3,2.3C619.7,133,618.6,133.3,617.4,133.3z M614.6,129.7c0.7,0.7,1.7,1.1,2.8,1.1s2.1-0.4,2.8-1.1
				c0.7-0.7,1.1-1.7,1.1-3c0-1.3-0.4-2.3-1.1-3s-1.7-1.1-2.8-1.1s-2.1,0.4-2.8,1.1s-1.1,1.7-1.1,3C613.5,128,613.9,129,614.6,129.7z
				"/>
			<path class="st2" d="M635,120.4h2.6v12.7h-3l-5.6-9.1v9.1h-2.6v-12.7h3l5.7,9V120.4z"/>
		</g>
	</g>
	<g>
		<g>
			<path class="st2" d="M93.7,305.3c-0.8,0.7-1.8,1-3,1s-2.2-0.3-3-1c-0.8-0.7-1.2-1.6-1.2-2.7c0-0.8,0.2-1.5,0.6-2s1-1,1.7-1.2
				c-0.5-0.3-0.9-0.6-1.2-1.1s-0.5-1-0.5-1.5c0-0.9,0.3-1.7,1-2.3c0.7-0.6,1.5-0.9,2.5-0.9c1,0,1.8,0.3,2.5,0.9s1,1.3,1,2.3
				c0,0.6-0.1,1.1-0.4,1.5s-0.7,0.8-1.2,1.1c0.7,0.3,1.3,0.7,1.7,1.3c0.4,0.6,0.6,1.2,0.6,2C94.9,303.7,94.5,304.6,93.7,305.3z
				 M90.7,304.9c0.8,0,1.4-0.2,1.9-0.7s0.8-1,0.8-1.8c0-0.7-0.3-1.3-0.8-1.8s-1.1-0.7-1.9-0.7c-0.8,0-1.4,0.2-1.9,0.7
				s-0.8,1-0.8,1.8c0,0.7,0.3,1.3,0.8,1.8S89.9,304.9,90.7,304.9z M90.7,298.8c0.6,0,1.1-0.2,1.5-0.6s0.6-0.9,0.6-1.4
				c0-0.6-0.2-1-0.6-1.4c-0.4-0.4-0.9-0.6-1.5-0.6c-0.6,0-1.1,0.2-1.5,0.6s-0.6,0.8-0.6,1.4c0,0.6,0.2,1,0.6,1.4
				S90.1,298.8,90.7,298.8z"/>
			<path class="st2" d="M100.8,306.3c-1.3,0-2.3-0.5-3-1.6s-1.1-2.7-1.1-4.7s0.4-3.7,1.1-4.7s1.7-1.6,3.1-1.6c1.3,0,2.3,0.5,3,1.6
				c0.7,1.1,1.1,2.7,1.1,4.7s-0.4,3.7-1.1,4.7C103.1,305.7,102.1,306.3,100.8,306.3z M100.8,304.9c0.8,0,1.5-0.4,1.9-1.2
				s0.7-2.1,0.7-3.7c0-1.7-0.2-2.9-0.7-3.7c-0.5-0.8-1.1-1.2-1.9-1.2c-0.8,0-1.5,0.4-1.9,1.2s-0.7,2-0.7,3.7c0,1.7,0.2,2.9,0.7,3.7
				C99.3,304.5,100,304.9,100.8,304.9z"/>
			<path class="st2" d="M111,306.3c-1.3,0-2.3-0.5-3-1.6s-1.1-2.7-1.1-4.7s0.4-3.7,1.1-4.7s1.7-1.6,3.1-1.6c1.3,0,2.3,0.5,3,1.6
				c0.7,1.1,1.1,2.7,1.1,4.7s-0.4,3.7-1.1,4.7C113.3,305.7,112.3,306.3,111,306.3z M111,304.9c0.8,0,1.5-0.4,1.9-1.2
				s0.7-2.1,0.7-3.7c0-1.7-0.2-2.9-0.7-3.7c-0.5-0.8-1.1-1.2-1.9-1.2c-0.8,0-1.5,0.4-1.9,1.2s-0.7,2-0.7,3.7c0,1.7,0.2,2.9,0.7,3.7
				C109.5,304.5,110.1,304.9,111,304.9z"/>
			<path class="st2" d="M121.1,306.3c-1.3,0-2.3-0.5-3-1.6s-1.1-2.7-1.1-4.7s0.4-3.7,1.1-4.7s1.7-1.6,3.1-1.6c1.3,0,2.3,0.5,3,1.6
				c0.7,1.1,1.1,2.7,1.1,4.7s-0.4,3.7-1.1,4.7C123.4,305.7,122.4,306.3,121.1,306.3z M121.1,304.9c0.8,0,1.5-0.4,1.9-1.2
				s0.7-2.1,0.7-3.7c0-1.7-0.2-2.9-0.7-3.7c-0.5-0.8-1.1-1.2-1.9-1.2c-0.8,0-1.5,0.4-1.9,1.2s-0.7,2-0.7,3.7c0,1.7,0.2,2.9,0.7,3.7
				C119.6,304.5,120.2,304.9,121.1,304.9z"/>
			<path class="st2" d="M136,306.3c-1.2,0-2.3-0.4-3.1-1.2s-1.2-1.9-1.2-3.2s0.4-2.4,1.2-3.2s1.8-1.2,3.1-1.2c1,0,1.8,0.3,2.5,0.8
				s1.2,1.2,1.5,2.1l-1.4,0.2c-0.2-0.6-0.5-1-1-1.3s-1-0.5-1.6-0.5c-0.8,0-1.5,0.3-2,0.9s-0.8,1.4-0.8,2.3s0.3,1.7,0.8,2.3
				c0.5,0.6,1.2,0.9,2,0.9c0.6,0,1.1-0.2,1.6-0.5s0.8-0.8,1-1.3l1.4,0.2c-0.3,0.9-0.8,1.6-1.5,2.1S136.9,306.3,136,306.3z"/>
			<path class="st2" d="M145.7,306.3c-1.2,0-2.3-0.4-3.1-1.2s-1.2-1.9-1.2-3.2s0.4-2.4,1.2-3.2s1.8-1.2,3.1-1.2c1,0,1.8,0.3,2.5,0.8
				s1.2,1.2,1.5,2.1l-1.4,0.2c-0.2-0.6-0.5-1-1-1.3s-1-0.5-1.6-0.5c-0.8,0-1.5,0.3-2,0.9s-0.8,1.4-0.8,2.3s0.3,1.7,0.8,2.3
				c0.5,0.6,1.2,0.9,2,0.9c0.6,0,1.1-0.2,1.6-0.5s0.8-0.8,1-1.3l1.4,0.2c-0.3,0.9-0.8,1.6-1.5,2.1S146.7,306.3,145.7,306.3z"/>
		</g>
	</g>
	<g>
		<g>
			<path class="st2" d="M95.5,243.1v1.4h-1.9v2.5h-1.5v-2.5h-5.9v-1.4l5.2-8.5h2.3v8.5H95.5z M87.7,243.1h4.4v-7.4L87.7,243.1z"/>
			<path class="st2" d="M100.9,247.2c-1.3,0-2.3-0.5-3-1.6s-1.1-2.7-1.1-4.7s0.4-3.7,1.1-4.7s1.7-1.6,3.1-1.6c1.3,0,2.3,0.5,3,1.6
				c0.7,1.1,1.1,2.7,1.1,4.7s-0.4,3.7-1.1,4.7C103.3,246.6,102.2,247.2,100.9,247.2z M100.9,245.8c0.8,0,1.5-0.4,1.9-1.2
				s0.7-2.1,0.7-3.7c0-1.7-0.2-2.9-0.7-3.7c-0.5-0.8-1.1-1.2-1.9-1.2c-0.8,0-1.5,0.4-1.9,1.2s-0.7,2-0.7,3.7c0,1.7,0.2,2.9,0.7,3.7
				C99.5,245.3,100.1,245.8,100.9,245.8z"/>
			<path class="st2" d="M111.1,247.2c-1.3,0-2.3-0.5-3-1.6s-1.1-2.7-1.1-4.7s0.4-3.7,1.1-4.7s1.7-1.6,3.1-1.6c1.3,0,2.3,0.5,3,1.6
				c0.7,1.1,1.1,2.7,1.1,4.7s-0.4,3.7-1.1,4.7C113.4,246.6,112.4,247.2,111.1,247.2z M111.1,245.8c0.8,0,1.5-0.4,1.9-1.2
				s0.7-2.1,0.7-3.7c0-1.7-0.2-2.9-0.7-3.7c-0.5-0.8-1.1-1.2-1.9-1.2c-0.8,0-1.5,0.4-1.9,1.2s-0.7,2-0.7,3.7c0,1.7,0.2,2.9,0.7,3.7
				C109.6,245.3,110.2,245.8,111.1,245.8z"/>
			<path class="st2" d="M121.2,247.2c-1.3,0-2.3-0.5-3-1.6s-1.1-2.7-1.1-4.7s0.4-3.7,1.1-4.7s1.7-1.6,3.1-1.6c1.3,0,2.3,0.5,3,1.6
				c0.7,1.1,1.1,2.7,1.1,4.7s-0.4,3.7-1.1,4.7C123.5,246.6,122.5,247.2,121.2,247.2z M121.2,245.8c0.8,0,1.5-0.4,1.9-1.2
				s0.7-2.1,0.7-3.7c0-1.7-0.2-2.9-0.7-3.7c-0.5-0.8-1.1-1.2-1.9-1.2c-0.8,0-1.5,0.4-1.9,1.2s-0.7,2-0.7,3.7c0,1.7,0.2,2.9,0.7,3.7
				C119.7,245.3,120.4,245.8,121.2,245.8z"/>
			<path class="st2" d="M136.1,247.2c-1.2,0-2.3-0.4-3.1-1.2s-1.2-1.9-1.2-3.2s0.4-2.4,1.2-3.2s1.8-1.2,3.1-1.2c1,0,1.8,0.3,2.5,0.8
				s1.2,1.2,1.5,2.1l-1.4,0.2c-0.2-0.6-0.5-1-1-1.3s-1-0.5-1.6-0.5c-0.8,0-1.5,0.3-2,0.9s-0.8,1.4-0.8,2.3s0.3,1.7,0.8,2.3
				c0.5,0.6,1.2,0.9,2,0.9c0.6,0,1.1-0.2,1.6-0.5s0.8-0.8,1-1.3l1.4,0.2c-0.3,0.9-0.8,1.6-1.5,2.1S137,247.2,136.1,247.2z"/>
			<path class="st2" d="M145.9,247.2c-1.2,0-2.3-0.4-3.1-1.2s-1.2-1.9-1.2-3.2s0.4-2.4,1.2-3.2s1.8-1.2,3.1-1.2c1,0,1.8,0.3,2.5,0.8
				s1.2,1.2,1.5,2.1l-1.4,0.2c-0.2-0.6-0.5-1-1-1.3s-1-0.5-1.6-0.5c-0.8,0-1.5,0.3-2,0.9s-0.8,1.4-0.8,2.3s0.3,1.7,0.8,2.3
				c0.5,0.6,1.2,0.9,2,0.9c0.6,0,1.1-0.2,1.6-0.5s0.8-0.8,1-1.3l1.4,0.2c-0.3,0.9-0.8,1.6-1.5,2.1S146.8,247.2,145.9,247.2z"/>
		</g>
	</g>
	<g>
		<g>
			<path class="st2" d="M325.7,185.6h6.2v1.4h-8.3v-1.2l5-5.1c0.5-0.6,0.9-1,1.1-1.5s0.3-0.9,0.3-1.3c0-0.7-0.2-1.2-0.6-1.6
				s-1-0.6-1.6-0.6c-0.7,0-1.3,0.2-1.7,0.6s-0.6,1.1-0.6,2v0.9l-1.5-0.1v-0.8c0-1.3,0.3-2.3,1-2.9c0.7-0.7,1.6-1,2.8-1
				c1.1,0,2,0.3,2.7,0.9s1.1,1.5,1.1,2.6c0,0.6-0.1,1.2-0.4,1.8s-0.7,1.1-1.3,1.8L325.7,185.6z"/>
			<path class="st2" d="M337.9,187.2c-1.3,0-2.3-0.5-3-1.6s-1.1-2.7-1.1-4.7s0.4-3.7,1.1-4.7s1.7-1.6,3.1-1.6c1.3,0,2.3,0.5,3,1.6
				c0.7,1.1,1.1,2.7,1.1,4.7s-0.4,3.7-1.1,4.7C340.2,186.6,339.2,187.2,337.9,187.2z M337.9,185.8c0.8,0,1.5-0.4,1.9-1.2
				s0.7-2.1,0.7-3.7c0-1.7-0.2-2.9-0.7-3.7c-0.5-0.8-1.1-1.2-1.9-1.2c-0.8,0-1.5,0.4-1.9,1.2s-0.7,2-0.7,3.7c0,1.7,0.2,2.9,0.7,3.7
				C336.4,185.3,337,185.8,337.9,185.8z"/>
			<path class="st2" d="M348,187.2c-1.3,0-2.3-0.5-3-1.6s-1.1-2.7-1.1-4.7s0.4-3.7,1.1-4.7s1.7-1.6,3.1-1.6c1.3,0,2.3,0.5,3.1,1.6
				c0.7,1.1,1.1,2.7,1.1,4.7s-0.4,3.7-1.1,4.7C350.3,186.6,349.3,187.2,348,187.2z M348,185.8c0.8,0,1.5-0.4,1.9-1.2
				s0.7-2.1,0.7-3.7c0-1.7-0.2-2.9-0.7-3.7c-0.5-0.8-1.1-1.2-1.9-1.2c-0.8,0-1.5,0.4-1.9,1.2s-0.7,2-0.7,3.7c0,1.7,0.2,2.9,0.7,3.7
				C346.5,185.3,347.2,185.8,348,185.8z"/>
			<path class="st2" d="M362.9,187.2c-1.2,0-2.3-0.4-3.1-1.2s-1.2-1.9-1.2-3.2s0.4-2.4,1.2-3.2s1.8-1.2,3.1-1.2c1,0,1.8,0.3,2.5,0.8
				s1.2,1.2,1.5,2.1l-1.4,0.2c-0.2-0.6-0.5-1-1-1.3s-1-0.5-1.6-0.5c-0.8,0-1.5,0.3-2,0.9s-0.8,1.4-0.8,2.3s0.3,1.7,0.8,2.3
				c0.5,0.6,1.2,0.9,2,0.9c0.6,0,1.1-0.2,1.6-0.5s0.8-0.8,1-1.3l1.4,0.2c-0.3,0.9-0.8,1.6-1.5,2.1S363.8,187.2,362.9,187.2z"/>
			<path class="st2" d="M372.7,187.2c-1.2,0-2.3-0.4-3.1-1.2s-1.2-1.9-1.2-3.2s0.4-2.4,1.2-3.2s1.8-1.2,3.1-1.2c1,0,1.8,0.3,2.5,0.8
				s1.2,1.2,1.5,2.1l-1.4,0.2c-0.2-0.6-0.5-1-1-1.3s-1-0.5-1.6-0.5c-0.8,0-1.5,0.3-2,0.9s-0.8,1.4-0.8,2.3s0.3,1.7,0.8,2.3
				c0.5,0.6,1.2,0.9,2,0.9c0.6,0,1.1-0.2,1.6-0.5s0.8-0.8,1-1.3l1.4,0.2c-0.3,0.9-0.8,1.6-1.5,2.1S373.6,187.2,372.7,187.2z"/>
		</g>
	</g>
	<g>
		<g>
			<path class="st2" d="M320.6,303.1h6.2v1.4h-8.3v-1.2l5-5.1c0.5-0.6,0.9-1,1.1-1.5s0.3-0.9,0.3-1.3c0-0.7-0.2-1.2-0.6-1.6
				s-1-0.6-1.6-0.6c-0.7,0-1.3,0.2-1.7,0.6s-0.6,1.1-0.6,2v0.9l-1.5-0.1v-0.8c0-1.3,0.3-2.3,1-2.9c0.7-0.7,1.6-1,2.8-1
				c1.1,0,2,0.3,2.7,0.9s1.1,1.5,1.1,2.6c0,0.6-0.1,1.2-0.4,1.8s-0.7,1.1-1.3,1.8L320.6,303.1z"/>
			<path class="st2" d="M332.7,304.7c-1.3,0-2.3-0.5-3-1.6s-1.1-2.7-1.1-4.7s0.4-3.7,1.1-4.7s1.7-1.6,3.1-1.6c1.3,0,2.3,0.5,3,1.6
				c0.7,1.1,1.1,2.7,1.1,4.7s-0.4,3.7-1.1,4.7C335,304.1,334,304.7,332.7,304.7z M332.7,303.3c0.8,0,1.5-0.4,1.9-1.2
				s0.7-2.1,0.7-3.7c0-1.7-0.2-2.9-0.7-3.7c-0.5-0.8-1.1-1.2-1.9-1.2c-0.8,0-1.5,0.4-1.9,1.2s-0.7,2-0.7,3.7c0,1.7,0.2,2.9,0.7,3.7
				C331.2,302.8,331.8,303.3,332.7,303.3z"/>
			<path class="st2" d="M342.8,304.7c-1.3,0-2.3-0.5-3-1.6s-1.1-2.7-1.1-4.7s0.4-3.7,1.1-4.7s1.7-1.6,3.1-1.6c1.3,0,2.3,0.5,3,1.6
				c0.7,1.1,1.1,2.7,1.1,4.7s-0.4,3.7-1.1,4.7C345.1,304.1,344.1,304.7,342.8,304.7z M342.8,303.3c0.8,0,1.5-0.4,1.9-1.2
				s0.7-2.1,0.7-3.7c0-1.7-0.2-2.9-0.7-3.7c-0.5-0.8-1.1-1.2-1.9-1.2c-0.8,0-1.5,0.4-1.9,1.2s-0.7,2-0.7,3.7c0,1.7,0.2,2.9,0.7,3.7
				C341.3,302.8,342,303.3,342.8,303.3z"/>
			<path class="st2" d="M353,304.7c-1.3,0-2.3-0.5-3-1.6s-1.1-2.7-1.1-4.7s0.4-3.7,1.1-4.7s1.7-1.6,3.1-1.6c1.3,0,2.3,0.5,3,1.6
				c0.7,1.1,1.1,2.7,1.1,4.7s-0.4,3.7-1.1,4.7C355.3,304.1,354.3,304.7,353,304.7z M353,303.3c0.8,0,1.5-0.4,1.9-1.2
				s0.7-2.1,0.7-3.7c0-1.7-0.2-2.9-0.7-3.7c-0.5-0.8-1.1-1.2-1.9-1.2c-0.8,0-1.5,0.4-1.9,1.2s-0.7,2-0.7,3.7c0,1.7,0.2,2.9,0.7,3.7
				C351.5,302.8,352.1,303.3,353,303.3z"/>
			<path class="st2" d="M367.8,304.7c-1.2,0-2.3-0.4-3.1-1.2s-1.2-1.9-1.2-3.2s0.4-2.4,1.2-3.2c0.8-0.8,1.8-1.2,3.1-1.2
				c1,0,1.8,0.3,2.5,0.8c0.7,0.5,1.2,1.2,1.5,2.1l-1.4,0.2c-0.2-0.6-0.5-1-1-1.3s-1-0.5-1.6-0.5c-0.8,0-1.5,0.3-2,0.9
				c-0.5,0.6-0.8,1.4-0.8,2.3s0.3,1.7,0.8,2.3c0.5,0.6,1.2,0.9,2,0.9c0.6,0,1.1-0.2,1.6-0.5s0.8-0.8,1-1.3l1.4,0.2
				c-0.3,0.9-0.8,1.6-1.5,2.1C369.6,304.4,368.8,304.7,367.8,304.7z"/>
			<path class="st2" d="M377.6,304.7c-1.2,0-2.3-0.4-3.1-1.2s-1.2-1.9-1.2-3.2s0.4-2.4,1.2-3.2c0.8-0.8,1.8-1.2,3.1-1.2
				c1,0,1.8,0.3,2.5,0.8c0.7,0.5,1.2,1.2,1.5,2.1l-1.4,0.2c-0.2-0.6-0.5-1-1-1.3s-1-0.5-1.6-0.5c-0.8,0-1.5,0.3-2,0.9
				c-0.5,0.6-0.8,1.4-0.8,2.3s0.3,1.7,0.8,2.3c0.5,0.6,1.2,0.9,2,0.9c0.6,0,1.1-0.2,1.6-0.5s0.8-0.8,1-1.3l1.4,0.2
				c-0.3,0.9-0.8,1.6-1.5,2.1C379.4,304.4,378.6,304.7,377.6,304.7z"/>
		</g>
	</g>
	<g>
		<g>
			<path class="st2" d="M319.6,234.6h1.4V247h-1.5v-10.7l-3,2.6v-1.6L319.6,234.6z"/>
			<path class="st2" d="M329.7,247.2c-1.3,0-2.3-0.5-3-1.6s-1.1-2.7-1.1-4.7s0.4-3.7,1.1-4.7s1.7-1.6,3.1-1.6c1.3,0,2.3,0.5,3,1.6
				c0.7,1.1,1.1,2.7,1.1,4.7s-0.4,3.7-1.1,4.7C332,246.6,331,247.2,329.7,247.2z M329.7,245.8c0.8,0,1.5-0.4,1.9-1.2
				s0.7-2.1,0.7-3.7c0-1.7-0.2-2.9-0.7-3.7c-0.5-0.8-1.1-1.2-1.9-1.2c-0.8,0-1.5,0.4-1.9,1.2s-0.7,2-0.7,3.7c0,1.7,0.2,2.9,0.7,3.7
				C328.2,245.3,328.8,245.8,329.7,245.8z"/>
			<path class="st2" d="M339.8,247.2c-1.3,0-2.3-0.5-3-1.6s-1.1-2.7-1.1-4.7s0.4-3.7,1.1-4.7s1.7-1.6,3.1-1.6c1.3,0,2.3,0.5,3,1.6
				c0.7,1.1,1.1,2.7,1.1,4.7s-0.4,3.7-1.1,4.7C342.1,246.6,341.1,247.2,339.8,247.2z M339.8,245.8c0.8,0,1.5-0.4,1.9-1.2
				s0.7-2.1,0.7-3.7c0-1.7-0.2-2.9-0.7-3.7c-0.5-0.8-1.1-1.2-1.9-1.2c-0.8,0-1.5,0.4-1.9,1.2s-0.7,2-0.7,3.7c0,1.7,0.2,2.9,0.7,3.7
				C338.3,245.3,339,245.8,339.8,245.8z"/>
			<path class="st2" d="M349.9,247.2c-1.3,0-2.3-0.5-3-1.6s-1.1-2.7-1.1-4.7s0.4-3.7,1.1-4.7s1.7-1.6,3.1-1.6c1.3,0,2.3,0.5,3.1,1.6
				c0.7,1.1,1.1,2.7,1.1,4.7s-0.4,3.7-1.1,4.7C352.3,246.6,351.3,247.2,349.9,247.2z M349.9,245.8c0.8,0,1.5-0.4,1.9-1.2
				s0.7-2.1,0.7-3.7c0-1.7-0.2-2.9-0.7-3.7c-0.5-0.8-1.1-1.2-1.9-1.2c-0.8,0-1.5,0.4-1.9,1.2s-0.7,2-0.7,3.7c0,1.7,0.2,2.9,0.7,3.7
				C348.5,245.3,349.1,245.8,349.9,245.8z"/>
			<path class="st2" d="M364.8,247.2c-1.2,0-2.3-0.4-3.1-1.2s-1.2-1.9-1.2-3.2s0.4-2.4,1.2-3.2s1.8-1.2,3.1-1.2c1,0,1.8,0.3,2.5,0.8
				s1.2,1.2,1.5,2.1l-1.4,0.2c-0.2-0.6-0.5-1-1-1.3s-1-0.5-1.6-0.5c-0.8,0-1.5,0.3-2,0.9s-0.8,1.4-0.8,2.3s0.3,1.7,0.8,2.3
				c0.5,0.6,1.2,0.9,2,0.9c0.6,0,1.1-0.2,1.6-0.5s0.8-0.8,1-1.3l1.4,0.2c-0.3,0.9-0.8,1.6-1.5,2.1S365.8,247.2,364.8,247.2z"/>
			<path class="st2" d="M374.6,247.2c-1.2,0-2.3-0.4-3.1-1.2s-1.2-1.9-1.2-3.2s0.4-2.4,1.2-3.2s1.8-1.2,3.1-1.2c1,0,1.8,0.3,2.5,0.8
				s1.2,1.2,1.5,2.1l-1.4,0.2c-0.2-0.6-0.5-1-1-1.3s-1-0.5-1.6-0.5c-0.8,0-1.5,0.3-2,0.9s-0.8,1.4-0.8,2.3s0.3,1.7,0.8,2.3
				c0.5,0.6,1.2,0.9,2,0.9c0.6,0,1.1-0.2,1.6-0.5s0.8-0.8,1-1.3l1.4,0.2c-0.3,0.9-0.8,1.6-1.5,2.1S375.6,247.2,374.6,247.2z"/>
		</g>
	</g>
	<g>
		<g>
			<path class="st2" d="M554.3,174.6h1.4V187h-1.5v-10.7l-3,2.6v-1.6L554.3,174.6z"/>
			<path class="st2" d="M564.3,187.2c-1.3,0-2.3-0.5-3-1.6s-1.1-2.7-1.1-4.7s0.4-3.7,1.1-4.7c0.7-1.1,1.7-1.6,3.1-1.6
				c1.3,0,2.3,0.5,3,1.6c0.7,1.1,1.1,2.7,1.1,4.7s-0.4,3.7-1.1,4.7C566.6,186.6,565.6,187.2,564.3,187.2z M564.3,185.8
				c0.8,0,1.5-0.4,1.9-1.2s0.7-2.1,0.7-3.7c0-1.7-0.2-2.9-0.7-3.7c-0.5-0.8-1.1-1.2-1.9-1.2c-0.8,0-1.5,0.4-1.9,1.2s-0.7,2-0.7,3.7
				c0,1.7,0.2,2.9,0.7,3.7C562.8,185.3,563.5,185.8,564.3,185.8z"/>
			<path class="st2" d="M574.5,187.2c-1.3,0-2.3-0.5-3-1.6s-1.1-2.7-1.1-4.7s0.4-3.7,1.1-4.7c0.7-1.1,1.7-1.6,3.1-1.6
				c1.3,0,2.3,0.5,3,1.6c0.7,1.1,1.1,2.7,1.1,4.7s-0.4,3.7-1.1,4.7C576.8,186.6,575.8,187.2,574.5,187.2z M574.5,185.8
				c0.8,0,1.5-0.4,1.9-1.2s0.7-2.1,0.7-3.7c0-1.7-0.2-2.9-0.7-3.7c-0.5-0.8-1.1-1.2-1.9-1.2c-0.8,0-1.5,0.4-1.9,1.2s-0.7,2-0.7,3.7
				c0,1.7,0.2,2.9,0.7,3.7C573,185.3,573.6,185.8,574.5,185.8z"/>
			<path class="st2" d="M584.6,187.2c-1.3,0-2.3-0.5-3-1.6s-1.1-2.7-1.1-4.7s0.4-3.7,1.1-4.7c0.7-1.1,1.7-1.6,3.1-1.6
				c1.3,0,2.3,0.5,3,1.6c0.7,1.1,1.1,2.7,1.1,4.7s-0.4,3.7-1.1,4.7C586.9,186.6,585.9,187.2,584.6,187.2z M584.6,185.8
				c0.8,0,1.5-0.4,1.9-1.2s0.7-2.1,0.7-3.7c0-1.7-0.2-2.9-0.7-3.7c-0.5-0.8-1.1-1.2-1.9-1.2c-0.8,0-1.5,0.4-1.9,1.2s-0.7,2-0.7,3.7
				c0,1.7,0.2,2.9,0.7,3.7C583.1,185.3,583.7,185.8,584.6,185.8z"/>
			<path class="st2" d="M599.5,187.2c-1.2,0-2.3-0.4-3.1-1.2s-1.2-1.9-1.2-3.2s0.4-2.4,1.2-3.2c0.8-0.8,1.8-1.2,3.1-1.2
				c1,0,1.8,0.3,2.5,0.8c0.7,0.5,1.2,1.2,1.5,2.1l-1.4,0.2c-0.2-0.6-0.5-1-1-1.3s-1-0.5-1.6-0.5c-0.8,0-1.5,0.3-2,0.9
				c-0.5,0.6-0.8,1.4-0.8,2.3s0.3,1.7,0.8,2.3c0.5,0.6,1.2,0.9,2,0.9c0.6,0,1.1-0.2,1.6-0.5s0.8-0.8,1-1.3l1.4,0.2
				c-0.3,0.9-0.8,1.6-1.5,2.1C601.2,186.9,600.4,187.2,599.5,187.2z"/>
			<path class="st2" d="M609.2,187.2c-1.2,0-2.3-0.4-3.1-1.2s-1.2-1.9-1.2-3.2s0.4-2.4,1.2-3.2c0.8-0.8,1.8-1.2,3.1-1.2
				c1,0,1.8,0.3,2.5,0.8c0.7,0.5,1.2,1.2,1.5,2.1l-1.4,0.2c-0.2-0.6-0.5-1-1-1.3s-1-0.5-1.6-0.5c-0.8,0-1.5,0.3-2,0.9
				c-0.5,0.6-0.8,1.4-0.8,2.3s0.3,1.7,0.8,2.3c0.5,0.6,1.2,0.9,2,0.9c0.6,0,1.1-0.2,1.6-0.5s0.8-0.8,1-1.3l1.4,0.2
				c-0.3,0.9-0.8,1.6-1.5,2.1C611,186.9,610.2,187.2,609.2,187.2z"/>
		</g>
	</g>
	<g>
		<g>
			<path class="st2" d="M549.2,292.1h1.4v12.4h-1.5v-10.7l-3,2.6v-1.6L549.2,292.1z"/>
			<path class="st2" d="M559.3,304.7c-1.3,0-2.3-0.5-3-1.6s-1.1-2.7-1.1-4.7s0.4-3.7,1.1-4.7s1.7-1.6,3.1-1.6c1.3,0,2.3,0.5,3.1,1.6
				c0.7,1.1,1.1,2.7,1.1,4.7s-0.4,3.7-1.1,4.7C561.6,304.1,560.6,304.7,559.3,304.7z M559.3,303.3c0.8,0,1.5-0.4,1.9-1.2
				s0.7-2.1,0.7-3.7c0-1.7-0.2-2.9-0.7-3.7c-0.5-0.8-1.1-1.2-1.9-1.2c-0.8,0-1.5,0.4-1.9,1.2s-0.7,2-0.7,3.7c0,1.7,0.2,2.9,0.7,3.7
				C557.8,302.8,558.4,303.3,559.3,303.3z"/>
			<path class="st2" d="M569.4,304.7c-1.3,0-2.3-0.5-3.1-1.6s-1.1-2.7-1.1-4.7s0.4-3.7,1.1-4.7s1.7-1.6,3.1-1.6c1.3,0,2.3,0.5,3,1.6
				c0.7,1.1,1.1,2.7,1.1,4.7s-0.4,3.7-1.1,4.7C571.7,304.1,570.7,304.7,569.4,304.7z M569.4,303.3c0.8,0,1.5-0.4,1.9-1.2
				s0.7-2.1,0.7-3.7c0-1.7-0.2-2.9-0.7-3.7c-0.5-0.8-1.1-1.2-1.9-1.2c-0.8,0-1.5,0.4-1.9,1.2s-0.7,2-0.7,3.7c0,1.7,0.2,2.9,0.7,3.7
				C567.9,302.8,568.5,303.3,569.4,303.3z"/>
			<path class="st2" d="M579.5,304.7c-1.3,0-2.3-0.5-3-1.6s-1.1-2.7-1.1-4.7s0.4-3.7,1.1-4.7s1.7-1.6,3.1-1.6c1.3,0,2.3,0.5,3.1,1.6
				c0.7,1.1,1.1,2.7,1.1,4.7s-0.4,3.7-1.1,4.7C581.8,304.1,580.8,304.7,579.5,304.7z M579.5,303.3c0.8,0,1.5-0.4,1.9-1.2
				s0.7-2.1,0.7-3.7c0-1.7-0.2-2.9-0.7-3.7c-0.5-0.8-1.1-1.2-1.9-1.2c-0.8,0-1.5,0.4-1.9,1.2s-0.7,2-0.7,3.7c0,1.7,0.2,2.9,0.7,3.7
				C578,302.8,578.7,303.3,579.5,303.3z"/>
			<path class="st2" d="M589.7,304.7c-1.3,0-2.3-0.5-3.1-1.6s-1.1-2.7-1.1-4.7s0.4-3.7,1.1-4.7s1.7-1.6,3.1-1.6c1.3,0,2.3,0.5,3,1.6
				c0.7,1.1,1.1,2.7,1.1,4.7s-0.4,3.7-1.1,4.7C592,304.1,591,304.7,589.7,304.7z M589.7,303.3c0.8,0,1.5-0.4,1.9-1.2
				s0.7-2.1,0.7-3.7c0-1.7-0.2-2.9-0.7-3.7c-0.5-0.8-1.1-1.2-1.9-1.2c-0.8,0-1.5,0.4-1.9,1.2s-0.7,2-0.7,3.7c0,1.7,0.2,2.9,0.7,3.7
				C588.2,302.8,588.8,303.3,589.7,303.3z"/>
			<path class="st2" d="M604.5,304.7c-1.2,0-2.3-0.4-3.1-1.2s-1.2-1.9-1.2-3.2s0.4-2.4,1.2-3.2s1.8-1.2,3.1-1.2c1,0,1.8,0.3,2.5,0.8
				s1.2,1.2,1.5,2.1l-1.4,0.2c-0.2-0.6-0.5-1-1-1.3s-1-0.5-1.6-0.5c-0.8,0-1.5,0.3-2,0.9s-0.8,1.4-0.8,2.3s0.3,1.7,0.8,2.3
				c0.5,0.6,1.2,0.9,2,0.9c0.6,0,1.1-0.2,1.6-0.5s0.8-0.8,1-1.3l1.4,0.2c-0.3,0.9-0.8,1.6-1.5,2.1S605.5,304.7,604.5,304.7z"/>
			<path class="st2" d="M614.3,304.7c-1.2,0-2.3-0.4-3.1-1.2s-1.2-1.9-1.2-3.2s0.4-2.4,1.2-3.2s1.8-1.2,3.1-1.2c1,0,1.8,0.3,2.5,0.8
				s1.2,1.2,1.5,2.1l-1.4,0.2c-0.2-0.6-0.5-1-1-1.3s-1-0.5-1.6-0.5c-0.8,0-1.5,0.3-2,0.9s-0.8,1.4-0.8,2.3s0.3,1.7,0.8,2.3
				c0.5,0.6,1.2,0.9,2,0.9c0.6,0,1.1-0.2,1.6-0.5s0.8-0.8,1-1.3l1.4,0.2c-0.3,0.9-0.8,1.6-1.5,2.1S615.3,304.7,614.3,304.7z"/>
		</g>
	</g>
	<g>
		<g>
			<path class="st2" d="M550.8,239c1.5,0,2.6,0.3,3.4,1c0.7,0.7,1.1,1.7,1.1,2.9c0,1.2-0.4,2.2-1.1,3s-1.8,1.2-3,1.2
				c-0.5,0-1.1-0.1-1.6-0.3c-0.5-0.2-0.9-0.4-1.3-0.7s-0.7-0.7-0.9-1.2s-0.3-1.1-0.3-1.7c0-0.2,0-0.4,0-0.6l1.6-0.1
				c0,0.3-0.1,0.6-0.1,0.7c0,0.4,0.1,0.8,0.2,1.2s0.4,0.6,0.6,0.8s0.5,0.3,0.8,0.4s0.6,0.1,0.9,0.1c0.8,0,1.4-0.3,1.9-0.8
				s0.7-1.2,0.7-1.9c0-0.8-0.3-1.5-0.8-2s-1.3-0.7-2.4-0.7h-3.1l0.8-5.7h6.5v1.4h-5.2l-0.4,3H550.8z"/>
			<path class="st2" d="M561.2,247.2c-1.3,0-2.3-0.5-3-1.6s-1.1-2.7-1.1-4.7s0.4-3.7,1.1-4.7s1.7-1.6,3.1-1.6c1.3,0,2.3,0.5,3.1,1.6
				c0.7,1.1,1.1,2.7,1.1,4.7s-0.4,3.7-1.1,4.7C563.5,246.6,562.5,247.2,561.2,247.2z M561.2,245.8c0.8,0,1.5-0.4,1.9-1.2
				s0.7-2.1,0.7-3.7c0-1.7-0.2-2.9-0.7-3.7c-0.5-0.8-1.1-1.2-1.9-1.2c-0.8,0-1.5,0.4-1.9,1.2s-0.7,2-0.7,3.7c0,1.7,0.2,2.9,0.7,3.7
				C559.7,245.3,560.4,245.8,561.2,245.8z"/>
			<path class="st2" d="M571.3,247.2c-1.3,0-2.3-0.5-3.1-1.6s-1.1-2.7-1.1-4.7s0.4-3.7,1.1-4.7s1.7-1.6,3.1-1.6c1.3,0,2.3,0.5,3,1.6
				c0.7,1.1,1.1,2.7,1.1,4.7s-0.4,3.7-1.1,4.7C573.6,246.6,572.6,247.2,571.3,247.2z M571.3,245.8c0.8,0,1.5-0.4,1.9-1.2
				s0.7-2.1,0.7-3.7c0-1.7-0.2-2.9-0.7-3.7c-0.5-0.8-1.1-1.2-1.9-1.2c-0.8,0-1.5,0.4-1.9,1.2s-0.7,2-0.7,3.7c0,1.7,0.2,2.9,0.7,3.7
				C569.8,245.3,570.5,245.8,571.3,245.8z"/>
			<path class="st2" d="M581.5,247.2c-1.3,0-2.3-0.5-3-1.6s-1.1-2.7-1.1-4.7s0.4-3.7,1.1-4.7s1.7-1.6,3.1-1.6c1.3,0,2.3,0.5,3.1,1.6
				c0.7,1.1,1.1,2.7,1.1,4.7s-0.4,3.7-1.1,4.7C583.8,246.6,582.8,247.2,581.5,247.2z M581.5,245.8c0.8,0,1.5-0.4,1.9-1.2
				s0.7-2.1,0.7-3.7c0-1.7-0.2-2.9-0.7-3.7c-0.5-0.8-1.1-1.2-1.9-1.2c-0.8,0-1.5,0.4-1.9,1.2s-0.7,2-0.7,3.7c0,1.7,0.2,2.9,0.7,3.7
				C580,245.3,580.6,245.8,581.5,245.8z"/>
			<path class="st2" d="M596.3,247.2c-1.2,0-2.3-0.4-3.1-1.2s-1.2-1.9-1.2-3.2s0.4-2.4,1.2-3.2s1.8-1.2,3.1-1.2c1,0,1.8,0.3,2.5,0.8
				s1.2,1.2,1.5,2.1l-1.4,0.2c-0.2-0.6-0.5-1-1-1.3s-1-0.5-1.6-0.5c-0.8,0-1.5,0.3-2,0.9s-0.8,1.4-0.8,2.3s0.3,1.7,0.8,2.3
				c0.5,0.6,1.2,0.9,2,0.9c0.6,0,1.1-0.2,1.6-0.5s0.8-0.8,1-1.3l1.4,0.2c-0.3,0.9-0.8,1.6-1.5,2.1S597.3,247.2,596.3,247.2z"/>
			<path class="st2" d="M606.1,247.2c-1.2,0-2.3-0.4-3.1-1.2s-1.2-1.9-1.2-3.2s0.4-2.4,1.2-3.2s1.8-1.2,3.1-1.2c1,0,1.8,0.3,2.5,0.8
				s1.2,1.2,1.5,2.1l-1.4,0.2c-0.2-0.6-0.5-1-1-1.3s-1-0.5-1.6-0.5c-0.8,0-1.5,0.3-2,0.9s-0.8,1.4-0.8,2.3s0.3,1.7,0.8,2.3
				c0.5,0.6,1.2,0.9,2,0.9c0.6,0,1.1-0.2,1.6-0.5s0.8-0.8,1-1.3l1.4,0.2c-0.3,0.9-0.8,1.6-1.5,2.1S607.1,247.2,606.1,247.2z"/>
		</g>
	</g>
	<rect x="2" y="2" class="st4" width="695" height="333.5"/>
	<line class="st0" x1="2" y1="208.5" x2="697" y2="208.5"/>
	<line class="st0" x1="2" y1="271.3" x2="697" y2="271.3"/>
	<line class="st0" x1="233.8" y1="149.5" x2="233.8" y2="335.5"/>
	<line class="st0" x1="465.8" y1="149.5" x2="465.8" y2="335.5"/>
</g>
</svg>
