<svg xmlns="http://www.w3.org/2000/svg" width="611" height="1585.222" viewBox="0 0 611 1585.222">
  <g id="Grupo_1451" data-name="Grupo 1451" transform="translate(-75 -193.778)">
    <rect id="Rectángulo_716" data-name="Rectángulo 716" width="553" height="95" rx="12" transform="translate(133 205.278)" fill="#dff3fd"/>
    <text id="El_ciudadano_se_comunica_a_la_línea_123_o_URI_Unidad_de_Reacción_Inmediata_-_FISCALÍA_" data-name="El ciudadano se comunica a la línea 123 o URI
(Unidad de Reacción Inmediata - FISCALÍA)" transform="translate(223 228.124)" fill="#00223d" font-size="18" font-family="OpenSans, Open Sans"><tspan x="0" y="19">El ciudadano se comunica a la </tspan><tspan y="19" font-family="OpenSans-Bold, Open Sans" font-weight="700">línea 123 o URI</tspan><tspan x="0" y="40.6">(Unidad de Reacción Inmediata - FISCALÍA)</tspan></text>
    <rect id="Rectángulo_717" data-name="Rectángulo 717" width="549.978" height="95" rx="12" transform="translate(136.022 334.093)" fill="#dff3fd"/>
    <text id="Autoridad_competente_se_acerca_al_lugar_de_deceso_e_inicia_la_ejecución_del_protocolo." data-name="Autoridad competente se acerca al lugar de deceso e inicia la ejecución del protocolo." transform="translate(223.975 355.772)" fill="#00223d" font-size="18" font-family="OpenSans, Open Sans"><tspan x="0" y="19">Autoridad competente se acerca al lugar de deceso </tspan><tspan x="0" y="40.6">e inicia la ejecución del protocolo.</tspan></text>
    <rect id="Rectángulo_718" data-name="Rectángulo 718" width="550.985" height="95" rx="12" transform="translate(135.015 462.499)" fill="#dff3fd"/>
    <text id="_Tiene_causa_de_muerte_probable_o_confirmada_por_COVID-19_" data-name="¿Tiene causa de muerte probable o confirmada 
por COVID-19?" transform="translate(223.731 485.479)" fill="#00223d" font-size="18" font-family="OpenSans, Open Sans"><tspan x="0" y="19">¿Tiene causa de muerte probable o confirmada </tspan><tspan x="0" y="40.6">por COVID-19?</tspan></text>
    <rect id="Rectángulo_719" data-name="Rectángulo 719" width="547" height="95" rx="12" transform="translate(133 993.5)" fill="#dff3fd"/>
    <text id="Coordinar_con_la_EAPB_para_que_esta_asigne_el_equipo_de_salud_para_desplazarse_al_domicilio." data-name="Coordinar con la EAPB para que esta asigne el equipo de salud para desplazarse al domicilio." transform="translate(224 1014.867)" fill="#00223d" font-size="18" font-family="OpenSans, Open Sans"><tspan x="0" y="19">Coordinar con la EAPB para que esta asigne el </tspan><tspan x="0" y="40.6">equipo de salud para desplazarse al domicilio.</tspan></text>
    <rect id="Rectángulo_720" data-name="Rectángulo 720" width="604" height="132.052" rx="12" transform="translate(76 1120.948)" fill="#efc184"/>
    <text id="El_personal_de_salud_autorizado_para_la_manipulación_del_cadáver_deberá_contar_con_los_elementos_de_protección_personal_y_seguir_con_los_procedimientos_de_bioseguridad_establecidos." data-name="El personal de salud autorizado para la manipulación del cadáver deberá contar con los elementos de protección personal y seguir con los procedimientos de bioseguridad establecidos." transform="translate(224 1141.972)" fill="#00223d" font-size="18" font-family="OpenSans, Open Sans"><tspan x="0" y="19">El personal de salud autorizado para la </tspan><tspan x="0" y="40.6">manipulación del cadáver deberá contar con los </tspan><tspan x="0" y="62.2">elementos de protección personal y seguir con los </tspan><tspan x="0" y="83.8">procedimientos de bioseguridad establecidos.</tspan></text>
    <rect id="Rectángulo_721" data-name="Rectángulo 721" width="235.5" height="107" rx="12" transform="translate(444.375 654)" fill="#dff3fd"/>
    <text id="Seguir_protocolos_rutinarios_de_muerte_natural_o_violenta" data-name="Seguir protocolos rutinarios de muerte natural o violenta" transform="translate(473.125 666.68)" fill="#00223d" font-size="18" font-family="OpenSans, Open Sans"><tspan x="15.304" y="19">Seguir protocolos </tspan><tspan x="2.054" y="40.6">rutinarios de muerte </tspan><tspan x="15.449" y="62.2">natural o violenta</tspan></text>
    <rect id="Rectángulo_722" data-name="Rectángulo 722" width="235.5" height="107" rx="12" transform="translate(183.375 654)" fill="#dff3fd"/>
    <text id="_Estaba_bajo_atención_médica_" data-name="¿Estaba bajo atención médica?" transform="translate(212.125 680.68)" fill="#00223d" font-size="18" font-family="OpenSans, Open Sans"><tspan x="36.564" y="19">¿Estaba bajo </tspan><tspan x="16.02" y="40.6">atención médica?</tspan></text>
    <text id="SI" transform="translate(286 613.68)" fill="#00223d" font-size="18" font-family="OpenSans-Bold, Open Sans" font-weight="700"><tspan x="7.563" y="19">SI</tspan></text>
    <text id="SI-2" data-name="SI" transform="translate(286 906.68)" fill="#00223d" font-size="18" font-family="OpenSans-Bold, Open Sans" font-weight="700"><tspan x="7.563" y="19">SI</tspan></text>
    <text id="NO" transform="translate(545 611.68)" fill="#00223d" font-size="18" font-family="OpenSans-Bold, Open Sans" font-weight="700"><tspan x="1.02" y="19">NO</tspan></text>
    <rect id="Rectángulo_723" data-name="Rectángulo 723" width="236" height="86" rx="12" transform="translate(444 834)" fill="#dff3fd"/>
    <text id="Poner_en_conocimiento_a_la_autoridad_sanitaria" data-name="Poner en conocimiento a la autoridad sanitaria" transform="translate(457.235 850.68)" fill="#00223d" font-size="18" font-family="OpenSans, Open Sans"><tspan x="5.448" y="19">Poner en conocimiento </tspan><tspan x="6.208" y="40.6">a la autoridad sanitaria</tspan></text>
    <rect id="Rectángulo_724" data-name="Rectángulo 724" width="292.987" height="97" rx="12" transform="translate(392 1413)" fill="#dff3fd"/>
    <text id="Realizar_la_toma_de_muestras_y_enviar_a_laboratorio." data-name="Realizar la toma de muestras y enviar 
a laboratorio." transform="translate(455.237 1425.68)" fill="#00223d" font-size="18" font-family="OpenSans, Open Sans"><tspan x="22.965" y="19">Realizar la toma de </tspan><tspan x="28.238" y="40.6">muestras y enviar </tspan><tspan x="46.225" y="62.2">a laboratorio.</tspan></text>
    <text id="NO-2" data-name="NO" transform="translate(389.5 861.68)" fill="#00223d" font-size="18" font-family="OpenSans-Bold, Open Sans" font-weight="700"><tspan x="1.02" y="19">NO</tspan></text>
    <g id="Grupo_1181" data-name="Grupo 1181">
      <g id="Grupo_1173" data-name="Grupo 1173">
        <circle id="Elipse_520" data-name="Elipse 520" cx="59" cy="59" r="59" transform="translate(75 193.778)" fill="#57b8e8"/>
        <circle id="Elipse_521" data-name="Elipse 521" cx="53" cy="53" r="53" transform="translate(81 199.778)" fill="#fff"/>
      </g>
      <g id="Grupo_1180" data-name="Grupo 1180">
        <g id="Grupo_1175" data-name="Grupo 1175">
          <g id="Grupo_1174" data-name="Grupo 1174">
            <path id="Trazado_6538" data-name="Trazado 6538" d="M149.3,272.256a1.391,1.391,0,1,0,1.392,1.391A1.391,1.391,0,0,0,149.3,272.256Z" fill="#0b2d4e"/>
          </g>
        </g>
        <g id="Grupo_1177" data-name="Grupo 1177">
          <g id="Grupo_1176" data-name="Grupo 1176">
            <path id="Trazado_6539" data-name="Trazado 6539" d="M152.73,267.757l-6.613-2.2-2.374-4.748a15.239,15.239,0,0,0,4.125-8.061l.3-1.775H150.7a4.179,4.179,0,0,0,4.174-4.174V238.03a20.87,20.87,0,0,0-41.74,0v8.765a4.182,4.182,0,0,0,2.783,3.935v1.63a4.178,4.178,0,0,0,4.174,4.174h1.222a15.094,15.094,0,0,0,2.334,3.614c.2.227.4.446.613.66l-2.373,4.745-6.613,2.2C107.581,270.321,102,278.415,102,287a1.391,1.391,0,0,0,1.391,1.391h61.218A1.391,1.391,0,0,0,166,287C166,278.415,160.419,270.321,152.73,267.757Zm-.643-20.962a1.393,1.393,0,0,1-1.391,1.391h-2.124c.354-2.739.59-5.654.684-8.525,0-.081.005-.16.008-.24h2.823ZM117.3,248.186a1.393,1.393,0,0,1-1.391-1.391v-7.374h2.824q.007.217.015.438v.015h0c.1,2.793.33,5.632.675,8.311Zm2.783,5.566a1.393,1.393,0,0,1-1.391-1.392v-1.391h1.14l.3,1.775q.085.507.207,1.008ZM118.7,236.639h-2.732a18.088,18.088,0,0,1,36.068,0H149.3a14.091,14.091,0,0,0-14.057-13.913h-2.49A14.092,14.092,0,0,0,118.7,236.639Zm14.057-11.131h2.49a11.314,11.314,0,0,1,11.277,11.327c0,.438,0,.819-.011,1.166v.013l-1.74-.248a22.356,22.356,0,0,1-12.57-6.285,1.392,1.392,0,0,0-.984-.408,12.587,12.587,0,0,0-9.677,4.579A11.31,11.31,0,0,1,132.755,225.508Zm-9.532,28.244a79.565,79.565,0,0,1-1.67-13.5l1.873-2.5a9.792,9.792,0,0,1,7.242-3.88,25.162,25.162,0,0,0,13.709,6.648l2.048.293c-.137,2.906-.416,5.822-.817,8.5v0c-.127.862-.228,1.417-.484,2.967a11.818,11.818,0,0,1-8.388,9.5,10.948,10.948,0,0,1-12.289-5.256h2.837a4.18,4.18,0,0,0,3.934,2.783H134a4.174,4.174,0,1,0,0-8.348h-2.783a4.177,4.177,0,0,0-3.937,2.783Zm7.877,10.854a13.96,13.96,0,0,0,5.175.117l-2.458,2.6Zm.8,4.739-4.413,4.667a52.979,52.979,0,0,1-3.115-7.223l1.657-3.315ZM141.731,263l1.893,3.786a53.059,53.059,0,0,1-3.116,7.225l-4.723-4.723Zm-11.9-7.86a1.391,1.391,0,0,1,1.391-1.391H134a1.391,1.391,0,1,1,0,2.782h-2.783A1.393,1.393,0,0,1,129.826,255.143Zm-24.988,30.47c.552-6.893,5.139-13.158,11.312-15.216l5.856-1.952a55.846,55.846,0,0,0,3.96,8.59l.008.014h0a55.883,55.883,0,0,0,3.809,5.816l1.711,2.748ZM134,284.372l-1.887-3.029c-.021-.034-.044-.067-.068-.1a53.265,53.265,0,0,1-3.134-4.683l4.961-5.247,5.229,5.228a53.239,53.239,0,0,1-3.146,4.7C135.887,281.335,135.983,281.192,134,284.372Zm2.506,1.241,1.711-2.748A55.585,55.585,0,0,0,142.052,277l.021-.037,0,0a55.729,55.729,0,0,0,3.919-8.517l5.856,1.952c6.173,2.058,10.76,8.323,11.312,15.216Z" fill="#0b2d4e"/>
          </g>
        </g>
        <g id="Grupo_1179" data-name="Grupo 1179">
          <g id="Grupo_1178" data-name="Grupo 1178">
            <path id="Trazado_6540" data-name="Trazado 6540" d="M158.98,279.982a13.9,13.9,0,0,0-3.938-4.781,1.391,1.391,0,0,0-1.7,2.205,11.119,11.119,0,0,1,3.146,3.82,1.391,1.391,0,1,0,2.489-1.244Z" fill="#0b2d4e"/>
          </g>
        </g>
      </g>
    </g>
    <g id="Grupo_1186" data-name="Grupo 1186">
      <g id="Grupo_1182" data-name="Grupo 1182">
        <circle id="Elipse_522" data-name="Elipse 522" cx="59" cy="59" r="59" transform="translate(75 322.593)" fill="#57b8e8"/>
        <circle id="Elipse_523" data-name="Elipse 523" cx="53" cy="53" r="53" transform="translate(81 328.593)" fill="#fff"/>
      </g>
      <g id="Grupo_1185" data-name="Grupo 1185">
        <g id="Grupo_1184" data-name="Grupo 1184">
          <g id="Grupo_1183" data-name="Grupo 1183">
            <path id="Trazado_6541" data-name="Trazado 6541" d="M174.515,391.466l-6.1-4.887L161.5,368.215a3.829,3.829,0,0,0-3.586-2.552h-3.331v-1.276a3.828,3.828,0,0,0-7.656,0v1.276H99.709a1.276,1.276,0,0,0-1.276,1.276V402.67a1.276,1.276,0,0,0,1.276,1.276h9.048a7.657,7.657,0,0,0,15.084,0h28.3a7.656,7.656,0,0,0,15.083,0h6.5A1.276,1.276,0,0,0,175,402.67V392.461A1.276,1.276,0,0,0,174.515,391.466ZM160.72,373.32l4.786,12.761H152.821a.791.791,0,0,1-.791-.791V374.111a.791.791,0,0,1,.791-.791Zm-11.242-8.933a1.276,1.276,0,0,1,2.552,0v1.276h-2.552ZM116.3,407.775a5.1,5.1,0,1,1,5.1-5.1A5.106,5.106,0,0,1,116.3,407.775Zm43.388,0a5.1,5.1,0,1,1,5.1-5.1A5.106,5.106,0,0,1,159.687,407.775Zm12.761-11.485h-3.829v2.552h3.829v2.552h-5.22a7.656,7.656,0,0,0-15.083,0h-28.3a7.657,7.657,0,0,0-15.084,0h-7.772v-2.552h6.381V396.29h-6.381v-7.657h45.941v-2.552H100.985V368.215h56.928a1.277,1.277,0,0,1,1.2.83l.651,1.723h-6.942a3.355,3.355,0,0,0-3.343,3.343V385.29a3.356,3.356,0,0,0,3.343,3.343h14.037l5.59,4.441Z" fill="#002b45"/>
            <rect id="Rectángulo_725" data-name="Rectángulo 725" width="25.522" height="2.552" transform="translate(125.232 396.29)" fill="#002b45"/>
            <rect id="Rectángulo_726" data-name="Rectángulo 726" width="2.552" height="2.552" transform="translate(115.023 401.394)" fill="#002b45"/>
            <rect id="Rectángulo_727" data-name="Rectángulo 727" width="2.552" height="2.552" transform="translate(158.411 401.394)" fill="#002b45"/>
            <path id="Trazado_6542" data-name="Trazado 6542" d="M116.809,372.3l-3.063,2.3v-3.828h-2.552V374.6l-3.063-2.3-1.531,2.042,3.739,2.807-3.739,2.807L108.132,382l3.063-2.3v3.828h2.552V379.7l3.063,2.3,1.531-2.042-3.739-2.807,3.739-2.807Z" fill="#002b45"/>
            <rect id="Rectángulo_728" data-name="Rectángulo 728" width="2.552" height="5.104" transform="translate(149.478 352.902)" fill="#002b45"/>
            <rect id="Rectángulo_729" data-name="Rectángulo 729" width="2.552" height="5.411" transform="translate(140.919 356.353) rotate(-45)" fill="#002b45"/>
            <rect id="Rectángulo_730" data-name="Rectángulo 730" width="5.411" height="2.552" transform="translate(154.954 358.376) rotate(-45)" fill="#002b45"/>
            <path id="Trazado_6543" data-name="Trazado 6543" d="M146.926,373.83a3.077,3.077,0,0,0-3.063-3.062h-6.636a3.075,3.075,0,0,0-3.063,3.062v6.636a3.075,3.075,0,0,0,3.063,3.063h6.636a3.077,3.077,0,0,0,3.063-3.063Zm-2.553,0v6.636a.51.51,0,0,1-.51.51h-6.636a.51.51,0,0,1-.51-.51V373.83a.51.51,0,0,1,.51-.51h6.636a.51.51,0,0,1,.51.51Z" fill="#002b45"/>
            <rect id="Rectángulo_731" data-name="Rectángulo 731" width="19.142" height="2.552" transform="translate(98.433 355.454)" fill="#002b45"/>
            <rect id="Rectángulo_732" data-name="Rectángulo 732" width="11.485" height="2.552" transform="translate(109.918 360.559)" fill="#002b45"/>
            <rect id="Rectángulo_733" data-name="Rectángulo 733" width="3.828" height="2.552" transform="translate(102.262 360.559)" fill="#002b45"/>
          </g>
        </g>
      </g>
    </g>
    <g id="Grupo_1189" data-name="Grupo 1189">
      <g id="Grupo_1187" data-name="Grupo 1187">
        <circle id="Elipse_524" data-name="Elipse 524" cx="59" cy="59" r="59" transform="translate(75.999 450.999)" fill="#57b8e8"/>
        <circle id="Elipse_525" data-name="Elipse 525" cx="53" cy="53" r="53" transform="translate(81.999 456.999)" fill="#fff"/>
      </g>
      <g id="Grupo_1188" data-name="Grupo 1188">
        <path id="Trazado_6544" data-name="Trazado 6544" d="M171.979,506.915a7.239,7.239,0,0,0-2.553-5.047,6.618,6.618,0,0,0-4.941-1.534,7.079,7.079,0,0,0-5.652,4.141l-2.219.2-2.19-.613a.551.551,0,0,1-.368-.361,20.534,20.534,0,0,0-2.7-5.319l.775-2.084,2.446-2.645a4.973,4.973,0,0,0,3.613-1.73,5.055,5.055,0,0,0-.159-6.751,4.971,4.971,0,0,0-3.676-1.557,5.019,5.019,0,0,0-4.975,5.232l-2.446,2.646-2.05.951a20.564,20.564,0,0,0-10.081-2.806l-1.34-2.137-.473-2.349a6.375,6.375,0,0,0,2.26-6.288,7.031,7.031,0,0,0-12.6-2.2,6.278,6.278,0,0,0-.93,4.819A6.63,6.63,0,0,0,126,486.3l.522,2.6-.415,2.529a20.6,20.6,0,0,0-5.2,3.344l-1.537-.274-1.736-1.31a5.021,5.021,0,1,0-3.982,5.864l1.455,1.1.652,1.335a.219.219,0,0,1,0,.187,20.4,20.4,0,0,0-1.876,8.587c0,.553.023,1.116.068,1.673a.23.23,0,0,1-.09.21l-2.457,1.75-2.8.882a6.577,6.577,0,0,0-6.094-1.042l-.125.044-.034.013a1.111,1.111,0,0,0,.752,2.091l.052-.019.053-.019a4.355,4.355,0,0,1,4.376.982,1.112,1.112,0,0,0,1.1.255l3.559-1.12a1.1,1.1,0,0,0,.312-.155l2.6-1.853a2.464,2.464,0,0,0,1.016-2.2c-.04-.5-.061-1-.061-1.492a18.2,18.2,0,0,1,1.673-7.659,2.429,2.429,0,0,0-.025-2.09l-.769-1.575a1.126,1.126,0,0,0-.329-.4l-2.092-1.578a1.113,1.113,0,0,0-1.008-.171,2.8,2.8,0,0,1-2.542-.429,2.8,2.8,0,0,1-.436-4.06,2.828,2.828,0,0,1,3.676-.5,2.794,2.794,0,0,1,1.234,2.1,1.11,1.11,0,0,0,.438.794l2.317,1.748a1.116,1.116,0,0,0,.474.207l2.334.416a1.11,1.11,0,0,0,.95-.279,18.392,18.392,0,0,1,5.525-3.54,1.109,1.109,0,0,0,.673-.847l.547-3.33a1.115,1.115,0,0,0-.007-.4l-.692-3.439a1.111,1.111,0,0,0-.812-.857,4.473,4.473,0,0,1-3.346-3.345,4.07,4.07,0,0,1,.607-3.125,4.812,4.812,0,0,1,8.578,1.436,4.21,4.21,0,0,1-1.919,4.414,1.112,1.112,0,0,0-.486,1.152l.653,3.244a1.086,1.086,0,0,0,.148.371l1.6,2.56a1.677,1.677,0,0,0,1.43.789h0a18.338,18.338,0,0,1,9.477,2.636,1.673,1.673,0,0,0,1.572.087l2.512-1.165a1.1,1.1,0,0,0,.348-.253l2.933-3.173a1.111,1.111,0,0,0,.283-.924,2.8,2.8,0,0,1,4.793-2.359,2.815,2.815,0,0,1,.087,3.76,2.779,2.779,0,0,1-2.329.958,1.112,1.112,0,0,0-.9.354l-2.933,3.172a1.125,1.125,0,0,0-.226.367l-.953,2.564a1.671,1.671,0,0,0,.218,1.571,18.349,18.349,0,0,1,2.562,4.956,2.77,2.77,0,0,0,1.874,1.792l2.386.669a1.109,1.109,0,0,0,.4.037l3.1-.274a1.11,1.11,0,0,0,.952-.742,4.9,4.9,0,0,1,4.05-3.342A4.417,4.417,0,0,1,168,503.572a5.032,5.032,0,0,1,1.764,3.514,5.426,5.426,0,0,1-.485,2.7,1.111,1.111,0,0,0,2.014.938,7.656,7.656,0,0,0,.686-3.8Z" fill="#0b2d4e"/>
        <path id="Trazado_6545" data-name="Trazado 6545" d="M166.387,512.416a4.483,4.483,0,0,1-5.536-2.509,1.11,1.11,0,0,0-1.1-.636l-2.909.256a1.127,1.127,0,0,0-.385.106l-2.2,1.059a2.774,2.774,0,0,0-1.535,2.12,18.245,18.245,0,0,1-1.042,4.031,2.756,2.756,0,0,0,.161,2.346l.782,1.4a1.125,1.125,0,0,0,.351.381l2.176,1.459a1.112,1.112,0,0,0,1.016.115,2.808,2.808,0,0,1,2.562.288,2.8,2.8,0,0,1,.66,4.03,2.827,2.827,0,0,1-3.643.7,2.793,2.793,0,0,1-1.348-2.023,1.114,1.114,0,0,0-.481-.769l-2.41-1.616a1.1,1.1,0,0,0-.485-.181l-1.517-.184a2.858,2.858,0,0,0-2.32.776,18.45,18.45,0,0,1-4.054,2.93,2.855,2.855,0,0,0-1.49,2.329l-.193,3.073a1.117,1.117,0,0,0,.032.341l.953,3.784a1.113,1.113,0,0,0,.778.8,3.759,3.759,0,0,1,2.629,2.693,3.747,3.747,0,0,1-2.822,4.574,3.746,3.746,0,0,1-3.433-6.334,1.113,1.113,0,0,0,.3-1.065l-.959-3.807a1.126,1.126,0,0,0-.134-.315l-1.479-2.379a3.268,3.268,0,0,0-2.806-1.54h0a18.519,18.519,0,0,1-3.575-.349,3.262,3.262,0,0,0-3.019.952l-1.956,2.064a1.115,1.115,0,0,0-.194.282l-2.189,4.542a1.108,1.108,0,0,0,0,.973,2.8,2.8,0,0,1-3.888,3.673,2.83,2.83,0,0,1-1.214-3.491,2.775,2.775,0,0,1,1.961-1.67,1.11,1.11,0,0,0,.749-.6l2.2-4.571a1.132,1.132,0,0,0,.1-.328l.432-3.068a2.757,2.757,0,0,0-.982-2.513,18.485,18.485,0,0,1-4.179-4.789,2.757,2.757,0,0,0-2.319-1.313l-3.064-.029a1.113,1.113,0,0,0-.344.051l-3.354,1.055a1.114,1.114,0,0,0-.771.936,4.357,4.357,0,0,1-8.472.87,4.3,4.3,0,0,1,.028-2.755,1.111,1.111,0,0,0-2.1-.723,6.5,6.5,0,0,0-.038,4.168,6.607,6.607,0,0,0,6.269,4.534,6.5,6.5,0,0,0,1.959-.3,6.59,6.59,0,0,0,4.441-4.812l2.54-.8,2.887.027a.523.523,0,0,1,.441.243,20.7,20.7,0,0,0,4.679,5.363.522.522,0,0,1,.181.478l-.408,2.9-1.914,3.972a5.019,5.019,0,0,0-.8,9.105,4.974,4.974,0,0,0,3.973.418,5.038,5.038,0,0,0,3.018-2.61,4.986,4.986,0,0,0,.2-3.878l1.9-3.934,1.837-1.938a1.053,1.053,0,0,1,.975-.3,20.689,20.689,0,0,0,4.019.392h0a1.053,1.053,0,0,1,.906.491l1.388,2.232.772,3.061a5.94,5.94,0,0,0-1.05,5.634,6.021,6.021,0,0,0,5.7,4.109,5.849,5.849,0,0,0,1.269-.14,5.968,5.968,0,0,0,.94-11.361l-.764-3.033.182-2.9a.616.616,0,0,1,.318-.507,20.759,20.759,0,0,0,4.542-3.282.641.641,0,0,1,.519-.179l1.252.152,1.806,1.212a5.022,5.022,0,1,0,3.651-6.075l-1.513-1.015-.652-1.166a.55.55,0,0,1-.028-.463,20.45,20.45,0,0,0,1.17-4.522.554.554,0,0,1,.3-.426l2.012-.971,1.976-.174a6.684,6.684,0,0,0,7.87,2.978,1.111,1.111,0,0,0-.7-2.111Z" fill="#0b2d4e"/>
        <path id="Trazado_6546" data-name="Trazado 6546" d="M138.074,495.108a15.56,15.56,0,1,0,4.74,1.991,1.111,1.111,0,0,0-1.188,1.878,13.289,13.289,0,1,1-4.06-1.706,1.111,1.111,0,1,0,.508-2.163Z" fill="#0b2d4e"/>
        <path id="Trazado_6547" data-name="Trazado 6547" d="M110.2,485.1a5.225,5.225,0,1,0-5.224-5.225A5.231,5.231,0,0,0,110.2,485.1Zm0-8.227a3,3,0,1,1-3,3A3.006,3.006,0,0,1,110.2,476.873Z" fill="#0b2d4e"/>
        <path id="Trazado_6548" data-name="Trazado 6548" d="M109.074,530.274A3.828,3.828,0,1,0,112.9,534.1,3.832,3.832,0,0,0,109.074,530.274Zm0,5.434a1.606,1.606,0,1,1,1.606-1.606A1.607,1.607,0,0,1,109.074,535.708Z" fill="#0b2d4e"/>
        <path id="Trazado_6549" data-name="Trazado 6549" d="M158.964,533.452a5.113,5.113,0,1,0,5.113,5.113A5.119,5.119,0,0,0,158.964,533.452Zm0,8a2.891,2.891,0,1,1,2.891-2.892A2.895,2.895,0,0,1,158.964,541.457Z" fill="#0b2d4e"/>
        <path id="Trazado_6550" data-name="Trazado 6550" d="M134.913,506.268a4.842,4.842,0,1,0-4.843,4.842,4.848,4.848,0,0,0,4.843-4.842Zm-4.843,2.62a2.62,2.62,0,1,1,2.621-2.62A2.623,2.623,0,0,1,130.07,508.888Z" fill="#0b2d4e"/>
        <path id="Trazado_6551" data-name="Trazado 6551" d="M133.066,521.508a3.651,3.651,0,1,0-3.651-3.65A3.655,3.655,0,0,0,133.066,521.508Zm0-5.079a1.429,1.429,0,1,1-1.429,1.429A1.431,1.431,0,0,1,133.066,516.429Z" fill="#0b2d4e"/>
        <path id="Trazado_6552" data-name="Trazado 6552" d="M137.8,510.252a3.243,3.243,0,1,0,3.244-3.244,3.248,3.248,0,0,0-3.244,3.244Zm3.244-1.022a1.021,1.021,0,1,1-1.022,1.022A1.022,1.022,0,0,1,141.041,509.23Z" fill="#0b2d4e"/>
      </g>
    </g>
    <g id="Grupo_1192" data-name="Grupo 1192">
      <g id="Grupo_1190" data-name="Grupo 1190">
        <circle id="Elipse_526" data-name="Elipse 526" cx="59" cy="59" r="59" transform="translate(75.999 982)" fill="#57b8e8"/>
        <circle id="Elipse_527" data-name="Elipse 527" cx="53" cy="53" r="53" transform="translate(81.999 988)" fill="#fff"/>
      </g>
      <g id="Grupo_1191" data-name="Grupo 1191">
        <path id="Trazado_6553" data-name="Trazado 6553" d="M144.24,1020.2H125.76a3.96,3.96,0,0,0-3.96,3.96v6.6a3.961,3.961,0,0,0,3,3.828,15.135,15.135,0,0,0,4.947,6.42,3.945,3.945,0,0,0,2.615,6.912h5.28a3.944,3.944,0,0,0,2.615-6.912,14.857,14.857,0,0,0,4.947-6.42,3.961,3.961,0,0,0,3-3.828v-6.6A3.96,3.96,0,0,0,144.24,1020.2Zm-6.6,25.08h-5.28a1.32,1.32,0,1,1,0-2.64h5.28a1.32,1.32,0,1,1,0,2.64Zm-.44-5.28h-4.4a14.494,14.494,0,0,1-5.2-5.625,14.783,14.783,0,0,0,3.444-2.3,6.781,6.781,0,0,1,7.92,0,14.783,14.783,0,0,0,3.444,2.3A14.494,14.494,0,0,1,137.2,1040Zm8.36-9.24a1.32,1.32,0,0,1-1.32,1.32c-1.375,0-1.944-.924-3.7-2.112a9.249,9.249,0,0,0-11.088,0c-1.716,1.16-2.325,2.112-3.7,2.112a1.32,1.32,0,0,1-1.32-1.32v-6.6a1.32,1.32,0,0,1,1.32-1.32h18.48a1.32,1.32,0,0,1,1.32,1.32Z" fill="#0b2d4e"/>
        <path id="Trazado_6554" data-name="Trazado 6554" d="M161.037,1046.545l-5.236-2.376a3.96,3.96,0,0,1-2.321-3.608v-17.435a16.116,16.116,0,0,0-16.1-16.126h-4.729a16.116,16.116,0,0,0-16.126,16.1v17.456a3.962,3.962,0,0,1-2.322,3.6l-5.235,2.376A11.907,11.907,0,0,0,102,1057.359v11.681a3.96,3.96,0,0,0,3.96,3.96h58.08a3.96,3.96,0,0,0,3.96-3.96v-11.681A11.906,11.906,0,0,0,161.037,1046.545Zm4.323,22.495a1.32,1.32,0,0,1-1.32,1.32H152.16v-9.24a1.32,1.32,0,0,0-2.64,0v9.24H120.48v-9.24a1.32,1.32,0,0,0-2.64,0v9.24H105.96a1.32,1.32,0,0,1-1.32-1.32v-11.681a9.263,9.263,0,0,1,5.412-8.412l5.235-2.376a6.61,6.61,0,0,0,3.873-6.01v-17.435a13.478,13.478,0,0,1,13.471-13.486h4.723a13.477,13.477,0,0,1,13.486,13.468v17.453a6.61,6.61,0,0,0,3.869,6.007l5.234,2.376a9.262,9.262,0,0,1,5.417,8.415Z" fill="#0b2d4e"/>
      </g>
    </g>
    <rect id="Rectángulo_734" data-name="Rectángulo 734" width="547" height="95" rx="12" transform="translate(133 1286.5)" fill="#dff3fd"/>
    <text id="Documentar_las_circunstancias_del_deceso_mediante_autopsia_verbal." data-name="Documentar las circunstancias del deceso 
mediante autopsia verbal." transform="translate(224 1307.867)" fill="#00223d" font-size="18" font-family="OpenSans, Open Sans"><tspan x="0" y="19">Documentar las circunstancias del deceso </tspan><tspan x="0" y="40.6">mediante autopsia verbal.</tspan></text>
    <g id="Grupo_1195" data-name="Grupo 1195">
      <g id="Grupo_1193" data-name="Grupo 1193">
        <circle id="Elipse_528" data-name="Elipse 528" cx="59" cy="59" r="59" transform="translate(75.999 1275)" fill="#57b8e8"/>
        <circle id="Elipse_529" data-name="Elipse 529" cx="53" cy="53" r="53" transform="translate(81.999 1281)" fill="#fff"/>
      </g>
      <g id="Grupo_1194" data-name="Grupo 1194">
        <path id="Trazado_6555" data-name="Trazado 6555" d="M123.228,1333.165a1.165,1.165,0,0,0,1.165,1.165h9.322a1.165,1.165,0,0,0,1.165-1.165v-9.321a5.825,5.825,0,0,0-4.325-5.606,6.991,6.991,0,1,0-9.992,0,5.826,5.826,0,0,0-4.326,5.606v4.005a1.166,1.166,0,1,0,2.331,0v-4.005a3.5,3.5,0,0,1,3.5-3.5h6.991a3.5,3.5,0,0,1,3.5,3.5V1332h-8.157A1.166,1.166,0,0,0,123.228,1333.165Zm2.331-24.468a4.66,4.66,0,1,1-4.661,4.66A4.66,4.66,0,0,1,125.559,1308.7Z" fill="#002b45"/>
        <path id="Trazado_6556" data-name="Trazado 6556" d="M129.054,1326.174a1.165,1.165,0,1,0,0-2.33h-2.33a1.165,1.165,0,1,0,0,2.33Z" fill="#002b45"/>
        <path id="Trazado_6557" data-name="Trazado 6557" d="M169.976,1356.044l-14.007-14.006a3.585,3.585,0,0,0-3.961-.662l-6.175-6.175a24.469,24.469,0,1,0-35.826,5.194,1.166,1.166,0,0,0,1.483-1.8,22.163,22.163,0,1,1,31.712-3.766c-.28.371-.564.735-.866,1.086-.026.032-.055.059-.082.091a22.073,22.073,0,0,1-2.189,2.189c-.036.032-.07.067-.107.1q-.525.445-1.071.854a21.989,21.989,0,0,1-13.328,4.5c-.37,0-.737-.018-1.1-.038a1.167,1.167,0,1,0-.128,2.331c.409.021.815.041,1.229.041a24.334,24.334,0,0,0,13.683-4.194l6.841,6.84a1.165,1.165,0,0,0,1.648,0l4.943-4.943a1.2,1.2,0,0,1,1.649,0l14.005,14.007a1.165,1.165,0,0,1,0,1.646l-4.942,4.944a1.165,1.165,0,0,1-1.649,0l-9.179-9.179a1.165,1.165,0,0,0-1.647,1.648l9.179,9.179a3.5,3.5,0,0,0,4.944,0l4.942-4.943a3.5,3.5,0,0,0,0-4.943Zm-25.555-18.963,5.781,5.781-3.295,3.3-5.781-5.782A24.662,24.662,0,0,0,144.421,1337.081Z" fill="#002b45"/>
        <path id="Trazado_6558" data-name="Trazado 6558" d="M125.559,1338.991a1.165,1.165,0,1,0,0,2.33,19.744,19.744,0,0,0,19.16-24.76,1.166,1.166,0,1,0-2.257.583,17.412,17.412,0,0,1-16.9,21.847Z" fill="#002b45"/>
        <path id="Trazado_6559" data-name="Trazado 6559" d="M135.142,1304.182a19.8,19.8,0,0,0-22.813,32.05,1.165,1.165,0,1,0,1.557-1.734,17.466,17.466,0,0,1,20.127-28.277,1.165,1.165,0,0,0,1.129-2.039Z" fill="#002b45"/>
        <path id="Trazado_6560" data-name="Trazado 6560" d="M111.577,1358.8a1.165,1.165,0,1,0,0,2.33h6.991a1.165,1.165,0,0,0,0-2.33Z" fill="#002b45"/>
        <path id="Trazado_6561" data-name="Trazado 6561" d="M133.715,1348.312H120.9v-15.147a1.165,1.165,0,0,0-2.176-.583l-8.986,15.73h-1.655a3.5,3.5,0,0,0-3.5,3.5v11.651a3.5,3.5,0,0,0,3.5,3.5h25.634a3.5,3.5,0,0,0,3.5-3.5v-2.33a1.165,1.165,0,1,0-2.33,0v2.33a1.165,1.165,0,0,1-1.165,1.165H108.081a1.165,1.165,0,0,1-1.165-1.165v-11.651a1.166,1.166,0,0,1,1.165-1.166h2.33a1.164,1.164,0,0,0,1.012-.582l7.145-12.507v11.924a1.164,1.164,0,0,0,1.165,1.165h13.982a1.166,1.166,0,0,1,1.165,1.166v2.33a1.165,1.165,0,1,0,2.33,0v-2.33A3.5,3.5,0,0,0,133.715,1348.312Z" fill="#002b45"/>
        <path id="Trazado_6562" data-name="Trazado 6562" d="M123.228,1355.3a1.165,1.165,0,0,0-1.165-1.165h-8.156a1.165,1.165,0,0,0,0,2.33h8.156A1.164,1.164,0,0,0,123.228,1355.3Z" fill="#002b45"/>
        <path id="Trazado_6563" data-name="Trazado 6563" d="M132.55,1355.3a1.166,1.166,0,0,0-1.166-1.165h-4.66a1.165,1.165,0,0,0,0,2.33h4.66A1.165,1.165,0,0,0,132.55,1355.3Z" fill="#002b45"/>
        <path id="Trazado_6564" data-name="Trazado 6564" d="M123.228,1361.129h4.661a1.165,1.165,0,0,0,0-2.33h-4.661a1.165,1.165,0,0,0,0,2.33Z" fill="#002b45"/>
        <path id="Trazado_6565" data-name="Trazado 6565" d="M152.357,1306.366h10.487a1.165,1.165,0,1,0,0-2.33H152.357a1.165,1.165,0,1,0,0,2.33Z" fill="#002b45"/>
        <path id="Trazado_6566" data-name="Trazado 6566" d="M152.357,1312.192h10.487a1.165,1.165,0,1,0,0-2.33H152.357a1.165,1.165,0,1,0,0,2.33Z" fill="#002b45"/>
        <path id="Trazado_6567" data-name="Trazado 6567" d="M162.844,1315.688h-5.826a1.165,1.165,0,1,0,0,2.33h5.826a1.165,1.165,0,1,0,0-2.33Z" fill="#002b45"/>
        <path id="Trazado_6568" data-name="Trazado 6568" d="M162.844,1321.513h-5.826a1.166,1.166,0,0,0,0,2.331h5.826a1.166,1.166,0,0,0,0-2.331Z" fill="#002b45"/>
        <path id="Trazado_6569" data-name="Trazado 6569" d="M154.688,1330.835a1.165,1.165,0,0,0,0,2.33h6.991a2.33,2.33,0,0,0,2.33-2.33V1328.5a2.33,2.33,0,0,0-2.33-2.33h-6.991a1.165,1.165,0,0,0,0,2.33h6.991v2.331Z" fill="#002b45"/>
      </g>
    </g>
    <g id="Grupo_1197" data-name="Grupo 1197">
      <g id="Grupo_1196" data-name="Grupo 1196">
        <circle id="Elipse_530" data-name="Elipse 530" cx="59" cy="59" r="59" transform="translate(333.999 1401)" fill="#57b8e8"/>
        <circle id="Elipse_531" data-name="Elipse 531" cx="53" cy="53" r="53" transform="translate(339.999 1407)" fill="#fff"/>
      </g>
      <path id="Trazado_6570" data-name="Trazado 6570" d="M421.959,1442.143H407.143v-4.289a4.032,4.032,0,0,0-1.347-7.834H395.02a4.032,4.032,0,0,0-1.347,7.834v4.289H382.9v-4.289a4.032,4.032,0,0,0-1.347-7.834H370.776a4.031,4.031,0,0,0-1.347,7.834v4.289h-5.388a4.041,4.041,0,0,0-4.041,4.041v2.694a4.04,4.04,0,0,0,4.041,4.04h5.388v16.164a6.735,6.735,0,0,0,13.469,0v-16.164h10.775v16.164a6.735,6.735,0,0,0,13.47,0v-16.164h8.081v25.592H364.041a4.041,4.041,0,0,0-4.041,4.041v5.388a4.041,4.041,0,0,0,4.041,4.041h57.918a4.041,4.041,0,0,0,4.041-4.041v-41.755A4.041,4.041,0,0,0,421.959,1442.143Zm-26.939-9.429H405.8a1.347,1.347,0,1,1,0,2.694H395.02a1.347,1.347,0,1,1,0-2.694Zm1.347,5.388h8.082v4.041h-8.082Zm-25.591-5.388h10.775a1.347,1.347,0,1,1,0,2.694H370.776a1.347,1.347,0,1,1,0-2.694Zm1.346,5.388H380.2v4.041h-8.082Zm8.082,30.98a4.041,4.041,0,0,1-8.082,0v-16.164H380.2Zm24.245,0a4.041,4.041,0,0,1-8.082,0v-16.164h8.082Zm18.857,18.857a1.347,1.347,0,0,1-1.347,1.347H364.041a1.347,1.347,0,0,1-1.347-1.347v-5.388a1.347,1.347,0,0,1,1.347-1.347h52.53a1.347,1.347,0,0,0,1.347-1.347v-28.286a1.348,1.348,0,0,0-1.347-1.347h-52.53a1.347,1.347,0,0,1-1.347-1.346v-2.694a1.347,1.347,0,0,1,1.347-1.347h57.918a1.347,1.347,0,0,1,1.347,1.347Z" fill="#0b2d4e"/>
    </g>
    <rect id="Rectángulo_735" data-name="Rectángulo 735" width="547" height="95" rx="12" transform="translate(133 1672.5)" fill="#dff3fd"/>
    <text id="Realizar_embalaje_del_cadáver_para_entrega_al_servicio_funerario." data-name="Realizar embalaje del cadáver para entrega
al servicio funerario." transform="translate(224 1695.867)" fill="#00223d" font-size="18" font-family="OpenSans, Open Sans"><tspan x="0" y="19">Realizar embalaje del cadáver para entrega</tspan><tspan x="0" y="40.6">al servicio funerario.</tspan></text>
    <g id="Grupo_1200" data-name="Grupo 1200">
      <g id="Grupo_1198" data-name="Grupo 1198">
        <circle id="Elipse_532" data-name="Elipse 532" cx="59" cy="59" r="59" transform="translate(75.999 1661)" fill="#57b8e8"/>
        <circle id="Elipse_533" data-name="Elipse 533" cx="53" cy="53" r="53" transform="translate(81.999 1667)" fill="#fff"/>
      </g>
      <g id="Grupo_1199" data-name="Grupo 1199">
        <path id="Trazado_6571" data-name="Trazado 6571" d="M168.637,1703.452a3.359,3.359,0,0,0-3.19,2.3l-.46,1.378h-1.568v-4.9h-5.5a14.062,14.062,0,0,1-5.447-1.09,65.521,65.521,0,0,0-45.916-1.677l-2.368.79.483,1.207c.113.283.213.569.319.853a6.118,6.118,0,0,0-5.311,6.046,6.055,6.055,0,0,0,.557,2.519,4.89,4.89,0,1,0,3.121,9.057v15.86a4.856,4.856,0,0,0-1.226,3.209,4.9,4.9,0,0,0,9.806,0,4.856,4.856,0,0,0-1.225-3.209V1734.1h47.806v1.694A4.856,4.856,0,0,0,157.29,1739a4.9,4.9,0,0,0,9.807,0,4.856,4.856,0,0,0-1.226-3.209v-16.4H172v-12.573A3.365,3.365,0,0,0,168.637,1703.452Zm-41.365-4.9a62.751,62.751,0,0,1,24.254,4.851,16.525,16.525,0,0,0,6.391,1.278h3.051v13.059a4.1,4.1,0,0,1-6.83,3.067l-7.95-7.068a6.736,6.736,0,0,0-4.479-1.7H122.355a6.75,6.75,0,0,0-6.742,6.742,3.064,3.064,0,1,1-6.129,0v-5.044a35.349,35.349,0,0,0-2.078-11.971A62.923,62.923,0,0,1,127.272,1698.548Zm31.244,28.194H110.71v-2.79a5.445,5.445,0,0,0,1.838.338,5.5,5.5,0,0,0,5.454-4.9h30.854l3.654,3.248a6.376,6.376,0,0,0,6.006,1.419Zm-51.484,7.355a4.831,4.831,0,0,0-1.226.174v-14.884H107.1a5.456,5.456,0,0,0,1.163,2.812v12.072A4.819,4.819,0,0,0,107.032,1734.1Zm-1.4-19.613h1.4v2.451h-1.4a4.4,4.4,0,0,0,0-2.451Zm12.863,2.451a4.284,4.284,0,0,1,3.86-2.451h19.354a4.286,4.286,0,0,1,2.85,1.083l1.539,1.368Zm-12.729-12.254a32.873,32.873,0,0,1,1.221,7.351h-1.181a3.676,3.676,0,0,1-.04-7.351Zm-4.863,13.48a2.451,2.451,0,1,1,2.452-2.451A2.453,2.453,0,0,1,100.9,1718.161Zm6.129,23.291a2.452,2.452,0,1,1,2.452-2.452A2.454,2.454,0,0,1,107.032,1741.452Zm3.678-9.807v-2.451h47.806v2.451Zm51.484,9.807a2.452,2.452,0,1,1,2.451-2.452A2.454,2.454,0,0,1,162.194,1741.452Zm1.225-7.181a4.4,4.4,0,0,0-2.451,0v-11.465a6.526,6.526,0,0,0,2.215-3.419h.236Zm6.129-17.336h-6.129v-2.451h6.129Zm-6.129-4.9v-2.451h3.336l1.017-3.055a.911.911,0,0,1,1.776.288v5.218Z" fill="#002b45"/>
      </g>
    </g>
    <rect id="Rectángulo_736" data-name="Rectángulo 736" width="547" height="95" rx="12" transform="translate(133 1542.5)" fill="#dff3fd"/>
    <text id="Emitir_certificado_de_defunción." data-name="Emitir certificado de defunción." transform="translate(224 1574.867)" fill="#00223d" font-size="18" font-family="OpenSans, Open Sans"><tspan x="0" y="19">Emitir certificado de defunción.</tspan></text>
    <g id="Grupo_1204" data-name="Grupo 1204">
      <g id="Grupo_1201" data-name="Grupo 1201">
        <circle id="Elipse_534" data-name="Elipse 534" cx="59" cy="59" r="59" transform="translate(75.999 1531)" fill="#57b8e8"/>
        <circle id="Elipse_535" data-name="Elipse 535" cx="53" cy="53" r="53" transform="translate(81.999 1537)" fill="#fff"/>
      </g>
      <g id="Grupo_1203" data-name="Grupo 1203">
        <g id="Grupo_1202" data-name="Grupo 1202">
          <path id="Trazado_6572" data-name="Trazado 6572" d="M168.286,1579.933,166.3,1577.7a3.684,3.684,0,0,0-5.191-.3l-2.234,1.988h0l-1.741,1.549v-13.725a4.876,4.876,0,0,0-4.869-4.872H137.316a4.559,4.559,0,0,0-8.784,0H113.656a4.876,4.876,0,0,0-4.869,4.872v19.649a1.219,1.219,0,0,0,2.439,0v-19.649a2.435,2.435,0,0,1,2.43-2.433h11v3.546h-7.578a3.035,3.035,0,0,0-3.03,3.034v40.951a3.033,3.033,0,0,0,3.03,3.03h31.543a3.035,3.035,0,0,0,3.034-3.03v-12.656l3.039-2.7v19.186a2.432,2.432,0,0,1-2.43,2.429H113.656a2.433,2.433,0,0,1-2.431-2.429v-19.607a1.219,1.219,0,1,0-2.439,0v19.607a4.875,4.875,0,0,0,4.87,4.868h38.606a4.874,4.874,0,0,0,4.869-4.868v-21.356l8.618-7.665h0l2.234-1.988a3.686,3.686,0,0,0,.3-5.19Zm-27.092-15.158h11.068a2.434,2.434,0,0,1,2.43,2.433v15.9l-3.039,2.7v-10.133a1.228,1.228,0,0,0-.357-.863l-6.135-6.13a1.227,1.227,0,0,0-.862-.357h-3.1Zm6.294,9.679h-1.375a.6.6,0,0,1-.6-.594v-1.374Zm-20.4-9.679h2.493a1.219,1.219,0,0,0,1.219-1.219,2.119,2.119,0,0,1,4.238,0,1.22,1.22,0,0,0,1.22,1.219h2.492v3.548H127.093v-3.547Zm22.121,47.53a.6.6,0,0,1-.6.591H117.076a.6.6,0,0,1-.591-.591v-40.951a.6.6,0,0,1,.591-.595l8.751,0,.046,0h17.206v3.1a3.037,3.037,0,0,0,3.034,3.033h3.1v11.083l-11.565,10.289,0,0a1.21,1.21,0,0,0-.251.315l-.008.013-.008.018c-.015.029-.029.058-.041.088l-.011.022-2.951,7.415H120.993a1.219,1.219,0,0,0,0,2.439h14.214a1.189,1.189,0,0,0,.134-.008h.014l.031-.006a.984.984,0,0,0,.111-.022l.021,0,8.509-2.28h0a1.157,1.157,0,0,0,.247-.1l.016-.007.015-.01a.919.919,0,0,0,.084-.052l.021-.012.009-.007a1.258,1.258,0,0,0,.1-.079l0,0,.139-.123,4.553-4.049v10.486Zm-10.352-10.842,1.31,1.473,0,0,0,0,1.31,1.473-4.252,1.139Zm16.275-8.178-.012.012-11.313,10.062-1.008-1.133,5.488-4.9a1.22,1.22,0,0,0-1.625-1.82l-5.484,4.9-1-1.126,11.063-9.841.01-.009,8.329-7.41,1.019,1.145-6.63,5.89a1.219,1.219,0,1,0,1.62,1.823l6.632-5.891.993,1.115Zm11.634-10.836a1.225,1.225,0,0,1-.408.852l-1.324,1.177L161.4,1580.4l1.325-1.178a1.218,1.218,0,0,1,.891-.308,1.234,1.234,0,0,1,.855.41l1.988,2.234A1.232,1.232,0,0,1,166.771,1582.449Z" fill="#002b45"/>
          <path id="Trazado_6573" data-name="Trazado 6573" d="M120.993,1602.648h9.59a1.219,1.219,0,1,0,0-2.439h-9.59a1.219,1.219,0,0,0,0,2.439Z" fill="#002b45"/>
          <path id="Trazado_6574" data-name="Trazado 6574" d="M120.993,1596.712H135.2a1.22,1.22,0,0,0,0-2.439h-14.21a1.22,1.22,0,0,0,0,2.439Z" fill="#002b45"/>
          <path id="Trazado_6575" data-name="Trazado 6575" d="M120.993,1590.776H142.86a1.219,1.219,0,0,0,0-2.439H120.993a1.219,1.219,0,0,0,0,2.439Z" fill="#002b45"/>
          <path id="Trazado_6576" data-name="Trazado 6576" d="M120.993,1584.844H142.86a1.219,1.219,0,0,0,0-2.439H120.993a1.219,1.219,0,0,0,0,2.439Z" fill="#002b45"/>
          <path id="Trazado_6577" data-name="Trazado 6577" d="M110.006,1592.91a1.22,1.22,0,0,0,1.22-1.219v-.021a1.219,1.219,0,1,0-2.439,0v.021A1.219,1.219,0,0,0,110.006,1592.91Z" fill="#002b45"/>
          <path id="Trazado_6578" data-name="Trazado 6578" d="M150.254,1592.356l-.017.017a1.219,1.219,0,1,0,1.721,1.728l.018-.017a1.22,1.22,0,0,0-1.722-1.728Z" fill="#002b45"/>
          <path id="Trazado_6579" data-name="Trazado 6579" d="M120.993,1578.909h3.789a1.22,1.22,0,0,0,0-2.439h-3.789a1.22,1.22,0,0,0,0,2.439Z" fill="#002b45"/>
        </g>
      </g>
    </g>
    <path id="Trazado_6580" data-name="Trazado 6580" d="M301,606V584H562v22" fill="none" stroke="#57b8e8" stroke-miterlimit="10" stroke-width="3"/>
    <line id="Línea_67" data-name="Línea 67" y1="21" transform="translate(431.5 563)" fill="none" stroke="#57b8e8" stroke-miterlimit="10" stroke-width="3"/>
    <path id="Trazado_6581" data-name="Trazado 6581" d="M562,933v31H301V942" fill="none" stroke="#57b8e8" stroke-miterlimit="10" stroke-width="3"/>
    <line id="Línea_68" data-name="Línea 68" y2="21" transform="translate(431.5 964)" fill="none" stroke="#57b8e8" stroke-miterlimit="10" stroke-width="3"/>
    <line id="Línea_69" data-name="Línea 69" y2="124" transform="translate(301 778)" fill="none" stroke="#57b8e8" stroke-miterlimit="10" stroke-width="3"/>
    <line id="Línea_70" data-name="Línea 70" x1="75" transform="translate(302 874.5)" fill="none" stroke="#57b8e8" stroke-miterlimit="10" stroke-width="3"/>
    <line id="Línea_71" data-name="Línea 71" y2="138" transform="translate(246 1393)" fill="none" stroke="#57b8e8" stroke-miterlimit="10" stroke-width="3"/>
    <line id="Línea_72" data-name="Línea 72" x1="75" transform="translate(247 1462.5)" fill="none" stroke="#57b8e8" stroke-miterlimit="10" stroke-width="3"/>
    <g id="Grupo_1211" data-name="Grupo 1211" opacity="0.69">
      <g id="Grupo_1206" data-name="Grupo 1206">
        <g id="Grupo_1205" data-name="Grupo 1205">
          <path id="Trazado_6582" data-name="Trazado 6582" d="M189.693,1210.322l-31.342-54.286a9.642,9.642,0,0,0-16.7,0l-31.342,54.286a9.642,9.642,0,0,0,8.35,14.463h62.684a9.642,9.642,0,0,0,8.351-14.463Zm-4.161,7.24a4.788,4.788,0,0,1-4.19,2.419H118.658a4.838,4.838,0,0,1-4.189-7.257l31.342-54.286a4.837,4.837,0,0,1,8.379,0l31.342,54.286A4.786,4.786,0,0,1,185.532,1217.562Z" fill="#0b2d4e"/>
        </g>
      </g>
      <g id="Grupo_1208" data-name="Grupo 1208">
        <g id="Grupo_1207" data-name="Grupo 1207">
          <rect id="Rectángulo_737" data-name="Rectángulo 737" width="4.804" height="24.02" transform="translate(147.598 1175.189)" fill="#0b2d4e"/>
        </g>
      </g>
      <g id="Grupo_1210" data-name="Grupo 1210">
        <g id="Grupo_1209" data-name="Grupo 1209">
          <path id="Trazado_6583" data-name="Trazado 6583" d="M150,1204.014a3.2,3.2,0,1,0,3.2,3.2A3.206,3.206,0,0,0,150,1204.014Z" fill="#0b2d4e"/>
        </g>
      </g>
    </g>
  </g>
</svg>
