<svg xmlns="http://www.w3.org/2000/svg" width="139.683" height="139.683" viewBox="0 0 139.683 139.683">
  <g id="Grupo_2002" data-name="Grupo 2002" transform="translate(-3649 1563)">
    <g id="Grupo_1989" data-name="Grupo 1989">
      <circle id="Elipse_522" data-name="Elipse 522" cx="69.841" cy="69.841" r="69.841" transform="translate(3649 -1563)" fill="#57b8e8"/>
      <circle id="Elipse_523" data-name="Elipse 523" cx="62.739" cy="62.739" r="62.739" transform="translate(3656 -1556)" fill="#fff"/>
      <g id="Grupo_1988" data-name="Grupo 1988" transform="translate(2708.784 -1552.395)">
        <path id="Shape" d="M992.932,94.939a14.688,14.688,0,0,0-5.36,6.409L980,96.5a2.826,2.826,0,0,1-.737-4.084l.992-1.319a2.818,2.818,0,0,1,3.559-.823Z" transform="translate(-7.094 -60.815)" fill="#607d8b"/>
        <path id="Shape-2" data-name="Shape" d="M1017.878,372.867a2.511,2.511,0,0,1-1.078,1.56l-6.863,4.1c2.425-1.461,1.248-7.912-2.637-14.407S998.282,353.54,995.857,355l6.863-4.112c1.319-.794,3.4.043,5.672,1.985v.014a26.673,26.673,0,0,1,4.367,4.963v.014c.5.681.95,1.4,1.4,2.155,3.077,5.119,4.452,10.209,3.715,12.847Z" transform="translate(-21.406 -278.137)" fill="#7f8e94"/>
        <path id="Shape-3" data-name="Shape" d="M1003.56,399.191c-2.439,1.46-7.572-2.623-11.457-9.118s-5.062-12.96-2.623-14.407,7.558,2.623,11.443,9.118S1005.985,397.73,1003.56,399.191Z" transform="translate(-15.028 -298.804)" fill="#37474f"/>
        <path id="Shape-4" data-name="Shape" d="M1079.985,126.98v.014a26.682,26.682,0,0,0-4.367,4.963c-.057-.1-.128-.184-.184-.284l-2.184-3.361c6.764-15.47,9.77-28.034,8.083-33.138l-.142-.369a9.1,9.1,0,0,0-3.346-3.814,27.651,27.651,0,0,0-7.586-3.559,43.943,43.943,0,0,0-26.658,0,27.65,27.65,0,0,0-7.586,3.559,9.2,9.2,0,0,0-3.346,3.814l-.17.468c-1.645,4.977,1.347,17.541,8.111,33.039v.014l-2.184,3.346c-.057.1-.128.184-.184.284a26.664,26.664,0,0,0-4.367-4.963v-.014c-4.212-10.252-9.4-25.581-6.721-33.606l.213-.6a14.688,14.688,0,0,1,5.36-6.409c.553-.4,1.135-.766,1.744-1.12a37,37,0,0,1,7.4-3.219,49.417,49.417,0,0,1,30.118,0,37.006,37.006,0,0,1,7.4,3.219c.61.354,1.191.723,1.744,1.12a14.686,14.686,0,0,1,5.36,6.409l.213.6c2.68,8.026-2.51,23.354-6.721,33.606Z" transform="translate(-46.886 -52.244)" fill="#ffdc00"/>
        <path id="Shape-5" data-name="Shape" d="M1229.149,93.53l-.213-.6a14.687,14.687,0,0,0-5.36-6.409c-.553-.4-1.135-.766-1.744-1.12a37.008,37.008,0,0,0-7.4-3.219,49.356,49.356,0,0,0-17.186-2.269,49.247,49.247,0,0,1,12.932,2.269,37.007,37.007,0,0,1,7.4,3.219c.61.354,1.191.723,1.744,1.12a14.687,14.687,0,0,1,5.36,6.409l.213.6c2.68,8.026-2.51,23.354-6.721,33.606v.014a21.76,21.76,0,0,0-2.032,2.011l1.734,2.669c.057.1.127.184.184.284a26.672,26.672,0,0,1,4.367-4.963v-.014C1226.639,116.884,1231.829,101.556,1229.149,93.53Z" transform="translate(-189.329 -52.4)" fill="#fec108"/>
        <path id="Shape-6" data-name="Shape" d="M1134.953,291.885v.014c-.5.681-.95,1.4-1.4,2.155-3.077,5.119-4.452,10.21-3.715,12.847a18.438,18.438,0,0,1-27.14,0c.737-2.637-.638-7.728-3.715-12.847-.454-.752-.907-1.475-1.4-2.155v-.014c.057-.1.128-.184.184-.284l2.184-3.346v-.014l8.012-12.266a9.926,9.926,0,0,1,16.619,0l8.012,12.266,2.184,3.361c.057.1.128.184.184.284Z" transform="translate(-106.222 -212.172)" fill="#607d8b"/>
        <path id="Shape-7" data-name="Shape" d="M1217.876,291.625l-2.184-3.361L1207.68,276a9.883,9.883,0,0,0-10.436-4.254,9.8,9.8,0,0,1,6.182,4.254l8.012,12.266,2.184,3.361c.057.1.128.184.184.284v.014c-.5.681-.95,1.4-1.4,2.155-3.077,5.119-4.452,10.209-3.715,12.847a20.2,20.2,0,0,1-11.443,5.822,17.362,17.362,0,0,0,2.127.133,19.544,19.544,0,0,0,13.57-5.956c-.737-2.637.638-7.728,3.715-12.847.454-.752.907-1.475,1.4-2.155v-.014C1218,291.809,1217.932,291.724,1217.876,291.625Z" transform="translate(-189.329 -212.195)" fill="#37474f"/>
        <path id="Shape-8" data-name="Shape" d="M1101.547,156.828l-8.012-12.266a9.926,9.926,0,0,0-16.619,0l-8.012,12.266c-6.764-15.5-9.756-28.062-8.111-33.039l.17-.468a9.2,9.2,0,0,1,3.346-3.814,27.649,27.649,0,0,1,7.586-3.559,43.942,43.942,0,0,1,26.658,0,27.65,27.65,0,0,1,7.586,3.559,9.1,9.1,0,0,1,3.346,3.814l.142.369c1.687,5.1-1.319,17.668-8.083,33.138Z" transform="translate(-75.184 -80.759)" fill="#00bcd4"/>
        <path id="Shape-9" data-name="Shape" d="M1107.223,276l-5.424,8.3c.53,1.3,1.078,2.615,1.666,3.962L1111.477,276a9.8,9.8,0,0,1,6.182-4.254A9.883,9.883,0,0,0,1107.223,276Z" transform="translate(-109.744 -212.195)" fill="#00838f"/>
        <path id="Shape-10" data-name="Shape" d="M1368.64,96.5l-7.572,4.85a14.686,14.686,0,0,0-5.36-6.409l9.118-4.665a2.818,2.818,0,0,1,3.559.823l.992,1.319a2.826,2.826,0,0,1-.737,4.084Z" transform="translate(-321.461 -60.815)" fill="#607d8b"/>
        <path id="Shape-11" data-name="Shape" d="M1118.886,39.737l-.227.383a37.005,37.005,0,0,0-7.4-3.219,49.417,49.417,0,0,0-30.118,0,37.014,37.014,0,0,0-7.4,3.219l-.227-.383s7.09-14.18,22.688-14.18S1118.886,39.737,1118.886,39.737Z" transform="translate(-86.156 -7.115)" fill="#fec108"/>
        <path id="Shape-12" data-name="Shape" d="M1312.75,355c-2.425-1.461-7.558,2.623-11.443,9.118s-5.062,12.946-2.637,14.407l-6.863-4.1a2.511,2.511,0,0,1-1.078-1.56c-.737-2.637.638-7.728,3.715-12.847.454-.752.908-1.475,1.4-2.155v-.014a26.677,26.677,0,0,1,4.367-4.963v-.014c2.269-1.943,4.353-2.779,5.672-1.985Z" transform="translate(-267.116 -278.137)" fill="#7f8e94"/>
        <path id="Shape-13" data-name="Shape" d="M1344.594,390.051c-3.885,6.494-9.018,10.578-11.457,9.118s-1.248-7.912,2.638-14.407,9.018-10.578,11.443-9.118S1348.479,383.543,1344.594,390.051Z" transform="translate(-301.584 -298.782)" fill="#37474f"/>
        <path id="Shape-14" data-name="Shape" d="M1092,167.725a1.418,1.418,0,0,1-1.2-2.169l7.09-11.344a1.42,1.42,0,1,1,2.411,1.5l-7.09,11.344a1.419,1.419,0,0,1-1.21.667Z" transform="translate(-100.394 -113.834)" fill="#f5f5f5"/>
        <path id="Shape-15" data-name="Shape" d="M1109.069,162a1.418,1.418,0,0,1-1.2-2.17l14.18-22.688a1.42,1.42,0,0,1,2.411,1.5l-14.18,22.688a1.418,1.418,0,0,1-1.209.667Z" transform="translate(-114.625 -99.602)" fill="#f5f5f5"/>
        <g id="Grupo_1987" data-name="Grupo 1987" transform="translate(970.185 17.024)">
          <path id="Shape-16" data-name="Shape" d="M1103.715,115.723a10.477,10.477,0,0,0-3.828-4.43,28.953,28.953,0,0,0-7.976-3.753,45.575,45.575,0,0,0-27.52,0,28.988,28.988,0,0,0-7.985,3.746,10.565,10.565,0,0,0-3.858,4.487l-.184.506c-1.541,4.654.468,14.736,5.513,27.662a1.418,1.418,0,1,0,2.642-1.03c-5.577-14.29-6.482-22.665-5.476-25.7l.149-.414a7.941,7.941,0,0,1,2.859-3.2,26.191,26.191,0,0,1,7.189-3.365,42.72,42.72,0,0,1,25.8,0,26.187,26.187,0,0,1,7.2,3.368,7.743,7.743,0,0,1,2.836,3.161l.119.306c1.316,3.989-.766,13.9-5.434,25.84a1.418,1.418,0,1,0,2.642,1.032c5.047-12.918,7.045-23.035,5.462-27.822Z" transform="translate(-1038.284 -90.725)"/>
          <path id="Shape-17" data-name="Shape" d="M1173.644,464.162a10.66,10.66,0,0,1-12.592,0,1.419,1.419,0,0,0-1.588,2.351,13.447,13.447,0,0,0,15.768,0,1.418,1.418,0,0,0-1.588-2.35Z" transform="translate(-1127.491 -389.658)"/>
          <path id="Shape-18" data-name="Shape" d="M1048.061,29.429a4.254,4.254,0,0,0-5.343-1.234l-8.393,4.3c-.075-.05-.153-.1-.23-.142a1.385,1.385,0,0,0-.1-.357c-.306-.615-7.67-14.968-23.957-14.968s-23.65,14.353-23.957,14.964a1.384,1.384,0,0,0-.1.356l-.23.142-8.393-4.291a4.254,4.254,0,0,0-5.343,1.235l-.993,1.317a4.254,4.254,0,0,0,1.115,6.129l6.653,4.261c-2.169,7.4,1.34,19.8,5.316,30.195a4.112,4.112,0,0,0-3.534.2l-6.865,4.112c-1.219.729-2.507,2.5-1.724,6.785a30.081,30.081,0,0,0,3.864,9.568c3.261,5.442,7.925,10.12,11.525,10.12a3.618,3.618,0,0,0,1.513-.354,1.418,1.418,0,0,0,.36-.152l6.865-4.112a3.465,3.465,0,0,0,.7-.567,19.481,19.481,0,0,0,26.443,0,3.461,3.461,0,0,0,.709.567l6.864,4.112a1.437,1.437,0,0,0,.362.153,3.63,3.63,0,0,0,1.511.353c3.6,0,8.268-4.679,11.525-10.12a30.08,30.08,0,0,0,3.864-9.567c.783-4.288-.5-6.056-1.724-6.785l-6.865-4.112a4.112,4.112,0,0,0-3.535-.193c3.97-10.381,7.477-22.767,5.316-30.2l6.647-4.261a4.253,4.253,0,0,0,1.109-6.134Zm-38.019-9.569c9.719,0,15.983,5.946,19.09,9.915-1.134-.475-2.32-.93-3.6-1.339a51.169,51.169,0,0,0-30.986,0c-1.276.408-2.46.864-3.6,1.339,3.107-3.969,9.371-9.915,19.09-9.915Zm-37,13.691a1.41,1.41,0,0,1,.261-1.1l.992-1.316a1.418,1.418,0,0,1,1.781-.413l7.164,3.668a15.693,15.693,0,0,0-3.335,4.1l-6.232-3.99A1.4,1.4,0,0,1,973.044,33.551Zm5.247,56.984a27.192,27.192,0,0,1-3.508-8.62c-.41-2.246-.1-3.545.391-3.841s1.787.048,3.571,1.47a30.627,30.627,0,0,1,9.447,15.786c.41,2.247.1,3.545-.391,3.843-1.079.645-5.424-1.809-9.51-8.638Zm16.372,4.538L991.2,97.14a13.221,13.221,0,0,0-.22-2.317,33.346,33.346,0,0,0-10.468-17.5,13.193,13.193,0,0,0-1.937-1.289l3.463-2.072c.954-.567,4.461,1.29,8.083,6.452l.016.02c.468.668.936,1.383,1.4,2.161,4.092,6.83,4.209,11.817,3.124,12.467Zm15.379,4.194A17.741,17.741,0,0,1,998.008,94.2c.44-3.424-1.329-8.536-4.028-13.045-.3-.494-.606-.977-.922-1.453l9.859-15.116a8.508,8.508,0,0,1,14.251,0l9.861,15.116c-.318.478-.628.961-.923,1.456-2.694,4.514-4.468,9.625-4.029,13.046A17.742,17.742,0,0,1,1010.042,99.267ZM1045.3,81.915a27.192,27.192,0,0,1-3.508,8.62c-4.086,6.83-8.423,9.284-9.5,8.638-.491-.293-.8-1.6-.393-3.843a30.627,30.627,0,0,1,9.447-15.786,5.964,5.964,0,0,1,3.147-1.567.817.817,0,0,1,.425.1C1045.4,78.367,1045.713,79.669,1045.3,81.915Zm-7.256-7.949,3.463,2.072a13.23,13.23,0,0,0-1.937,1.289,33.352,33.352,0,0,0-10.468,17.5,13.22,13.22,0,0,0-.219,2.317l-3.463-2.072c-1.085-.65-.968-5.636,3.12-12.463.466-.78.936-1.495,1.4-2.162l.014-.018c3.62-5.167,7.129-7.025,8.087-6.458Zm-6.141-.064a26.885,26.885,0,0,0-3.1,3.335l-9.268-14.208a11.343,11.343,0,0,0-19,0l-9.265,14.208a27.049,27.049,0,0,0-3.1-3.341c-6.161-15.07-8.5-26.542-6.578-32.292l.194-.546a13.272,13.272,0,0,1,4.865-5.778,31.905,31.905,0,0,1,8.755-4.145,48.341,48.341,0,0,1,29.256,0,31.932,31.932,0,0,1,8.756,4.145,13.253,13.253,0,0,1,4.847,5.737l.2.567c1.927,5.77-.408,17.244-6.57,32.317Zm14.5-39.41-6.225,3.987a15.719,15.719,0,0,0-3.342-4.092l7.164-3.668a1.418,1.418,0,0,1,1.781.411l.993,1.317a1.418,1.418,0,0,1-.37,2.045Z" transform="translate(-970.185 -17.024)"/>
          <path id="Shape-19" data-name="Shape" d="M1185.862,403.86h5.672a1.418,1.418,0,1,0,0-2.836h-5.672a1.418,1.418,0,0,0,0,2.836Z" transform="translate(-1148.84 -337.215)"/>
          <path id="Shape-20" data-name="Shape" d="M1185.862,437.993h5.672a1.418,1.418,0,1,0,0-2.836h-5.672a1.418,1.418,0,0,0,0,2.836Z" transform="translate(-1148.84 -365.676)"/>
        </g>
      </g>
    </g>
  </g>
</svg>
