<svg xmlns="http://www.w3.org/2000/svg" width="139.683" height="139.683" viewBox="0 0 139.683 139.683">
  <g id="Grupo_1999" data-name="Grupo 1999" transform="translate(-3649 2121)">
    <g id="Grupo_1998" data-name="Grupo 1998" transform="translate(3649 -2121)">
      <circle id="Elipse_518" data-name="Elipse 518" cx="69.841" cy="69.841" r="69.841" fill="#57b8e8"/>
      <circle id="Elipse_519" data-name="Elipse 519" cx="62.739" cy="62.739" r="62.739" transform="translate(7.103 7.103)" fill="#fff"/>
    </g>
    <g id="Grupo_1997" data-name="Grupo 1997" transform="translate(-197.826 -108.807)">
      <path id="Trazado_9270" data-name="Trazado 9270" d="M161.045,303.009H106.04V274.7a8.362,8.362,0,0,1,8.362-8.362h38.281a8.362,8.362,0,0,1,8.362,8.362Z" transform="translate(3783.37 -2207.027)" fill="#eceff0"/>
      <path id="Trazado_9271" data-name="Trazado 9271" d="M155.629,299H100.624a1.41,1.41,0,0,1-1.41-1.41V269.285a9.784,9.784,0,0,1,9.772-9.773h38.282a9.784,9.784,0,0,1,9.772,9.773v28.308A1.41,1.41,0,0,1,155.629,299Zm-53.595-2.821h52.184v-26.9a6.96,6.96,0,0,0-6.951-6.952H108.986a6.96,6.96,0,0,0-6.951,6.952Z" transform="translate(3788.786 -2201.611)" fill="#002b45"/>
      <path id="Trazado_9272" data-name="Trazado 9272" d="M174.023,225.379l7.052,8.462-16.72,14.148a5.775,5.775,0,0,1-7.461,0l-16.72-14.148,7.052-8.462Z" transform="translate(3756.288 -2174.53)" fill="#c0cace"/>
      <path id="Trazado_9273" data-name="Trazado 9273" d="M155.207,245.351a7.2,7.2,0,0,1-4.641-1.7L133.846,229.5a1.409,1.409,0,0,1-.174-1.979l7.052-8.462a1.412,1.412,0,0,1,1.084-.507h26.8a1.412,1.412,0,0,1,1.084.507l7.052,8.462a1.409,1.409,0,0,1-.173,1.979l-16.72,14.148A7.2,7.2,0,0,1,155.207,245.351Zm-18.471-17.1L152.387,241.5a4.484,4.484,0,0,0,5.642,0l15.651-13.243-5.734-6.88H142.47Z" transform="translate(3761.706 -2169.115)" fill="#002b45"/>
      <path id="Trazado_9274" data-name="Trazado 9274" d="M178.634,107.857h-14.35A10.454,10.454,0,0,1,153.829,97.4V83.016a14.65,14.65,0,0,1,14.65-14.65h5.961a14.65,14.65,0,0,1,14.65,14.65V97.4A10.456,10.456,0,0,1,178.634,107.857Z" transform="translate(3745.454 -2049.956)" fill="#eceff0"/>
      <path id="Trazado_9275" data-name="Trazado 9275" d="M173.217,103.851H158.868A11.879,11.879,0,0,1,147,91.986V77.6a16.078,16.078,0,0,1,16.06-16.06h5.961a16.078,16.078,0,0,1,16.06,16.06V91.986A11.88,11.88,0,0,1,173.217,103.851ZM163.061,64.36A13.254,13.254,0,0,0,149.823,77.6V91.986a9.055,9.055,0,0,0,9.045,9.044h14.349a9.054,9.054,0,0,0,9.045-9.044V77.6A13.254,13.254,0,0,0,169.022,64.36Z" transform="translate(3750.871 -2044.539)" fill="#002b45"/>
      <path id="Trazado_9276" data-name="Trazado 9276" d="M201.6,152.146H184.648a3.514,3.514,0,0,1-3.514-3.514v-5.776a6.224,6.224,0,0,1,6.224-6.224h11.528a6.225,6.225,0,0,1,6.224,6.224v5.776A3.514,3.514,0,0,1,201.6,152.146Z" transform="translate(3723.791 -2104.118)" fill="#aedef8"/>
      <path id="Trazado_9277" data-name="Trazado 9277" d="M196.18,148.142H179.231a4.93,4.93,0,0,1-4.924-4.924v-5.776a7.644,7.644,0,0,1,7.634-7.634H193.47a7.643,7.643,0,0,1,7.634,7.634v5.777a4.929,4.929,0,0,1-4.924,4.924Zm-14.239-15.514a4.819,4.819,0,0,0-4.814,4.814v5.777a2.106,2.106,0,0,0,2.1,2.1h16.949a2.106,2.106,0,0,0,2.1-2.1v-5.776a4.819,4.819,0,0,0-4.814-4.814H181.942Z" transform="translate(3729.207 -2098.703)" fill="#002b45"/>
      <g id="Grupo_1994" data-name="Grupo 1994" transform="translate(3916.208 -1926.584)">
        <path id="Trazado_9278" data-name="Trazado 9278" d="M242.574,341.432v21.156" transform="translate(-241.164 -340.022)" fill="#002b45"/>
        <path id="Trazado_9279" data-name="Trazado 9279" d="M237.157,358.583a1.41,1.41,0,0,1-1.41-1.41V336.016a1.41,1.41,0,0,1,2.821,0v21.156A1.41,1.41,0,0,1,237.157,358.583Z" transform="translate(-235.747 -334.606)" fill="#002b45"/>
      </g>
      <g id="Grupo_1995" data-name="Grupo 1995" transform="translate(3933.132 -1926.584)">
        <path id="Trazado_9280" data-name="Trazado 9280" d="M324.494,362.588V341.432" transform="translate(-323.084 -340.022)" fill="#002b45"/>
        <path id="Trazado_9281" data-name="Trazado 9281" d="M319.077,358.583a1.41,1.41,0,0,1-1.41-1.41V336.016a1.41,1.41,0,0,1,2.821,0v21.156A1.41,1.41,0,0,1,319.077,358.583Z" transform="translate(-317.667 -334.606)" fill="#002b45"/>
      </g>
      <g id="Grupo_1996" data-name="Grupo 1996" transform="translate(3897.873 -1926.584)">
        <path id="Trazado_9282" data-name="Trazado 9282" d="M153.827,362.588V341.432" transform="translate(-152.417 -340.022)" fill="#002b45"/>
        <path id="Trazado_9283" data-name="Trazado 9283" d="M148.41,358.583a1.41,1.41,0,0,1-1.41-1.41V336.016a1.41,1.41,0,0,1,2.821,0v21.156A1.41,1.41,0,0,1,148.41,358.583Z" transform="translate(-147 -334.606)" fill="#002b45"/>
      </g>
    </g>
  </g>
</svg>
