<svg xmlns="http://www.w3.org/2000/svg" width="139.683" height="139.683" viewBox="0 0 139.683 139.683">
  <g id="Grupo_2000" data-name="Grupo 2000" transform="translate(-3649 1941)">
    <g id="Grupo_1129" data-name="Grupo 1129" transform="translate(3649 -1941)">
      <circle id="Elipse_518" data-name="Elipse 518" cx="69.841" cy="69.841" r="69.841" fill="#57b8e8"/>
      <circle id="Elipse_519" data-name="Elipse 519" cx="62.739" cy="62.739" r="62.739" transform="translate(7.103 7.103)" fill="#fff"/>
    </g>
    <g id="Grupo_1984" data-name="Grupo 1984" transform="translate(3689.997 -1906)">
      <path id="Trazado_9257" data-name="Trazado 9257" d="M233.332,55.236A9,9,0,0,1,224.86,45.7l1.791-35.391a2.646,2.646,0,0,0-2.609-2.81h-13.2a2.646,2.646,0,0,1,2.609,2.809L211.665,45.7a9,9,0,0,0,8.472,9.535c7.452.342,16.84-.655,16.84,10.6v5.621a2.683,2.683,0,0,1-2.653,2.713h13.2a2.684,2.684,0,0,0,2.653-2.713V65.836C250.172,54.581,240.784,55.578,233.332,55.236Z" transform="translate(-182.56 -6.494)" fill="#6cb7d8"/>
      <path id="Trazado_9258" data-name="Trazado 9258" d="M240.536,71.457V65.836c0-11.256-9.388-10.259-16.84-10.6a9,9,0,0,1-8.472-9.535l1.791-35.391a2.646,2.646,0,0,0-2.609-2.81h-3.559a2.646,2.646,0,0,1,2.609,2.809L211.666,45.7a9,9,0,0,0,8.472,9.535c7.452.342,16.84-.655,16.84,10.6v5.621a2.684,2.684,0,0,1-2.653,2.713h3.559A2.683,2.683,0,0,0,240.536,71.457Z" transform="translate(-182.56 -6.494)" fill="#4fb1d3"/>
      <path id="Trazado_9259" data-name="Trazado 9259" d="M224.043,7.5h-13.2a2.646,2.646,0,0,1,2.609,2.809L211.665,45.7a9.212,9.212,0,0,0,.714,4.066c4.393-3.077,2.852-7.754,4.469-11.349,1.378-3.064,5.389-4.5,8.561-3.575h0c1.21-25.477,1.44-24.634,1.077-25.616A2.616,2.616,0,0,0,224.043,7.5Z" transform="translate(-182.56 -6.494)" fill="#86c6ea"/>
      <path id="Trazado_9260" data-name="Trazado 9260" d="M217.017,10.309A2.646,2.646,0,0,0,214.408,7.5h-3.559a2.646,2.646,0,0,1,2.609,2.809h0c-1.891,37.362-1.907,35.906-1.693,37.289a9.222,9.222,0,0,0,.616,2.168h0a7.781,7.781,0,0,0,2.835-3.7C215.222,45.6,215.112,48.039,217.017,10.309Z" transform="translate(-182.561 -6.494)" fill="#69bde2"/>
      <path id="Trazado_9261" data-name="Trazado 9261" d="M401.7,456.327H388.5v3.748a2.683,2.683,0,0,1-2.653,2.713h13.2a2.684,2.684,0,0,0,2.653-2.713v-3.748Z" transform="translate(-334.087 -395.112)" fill="#a9a9aa"/>
      <path id="Trazado_9262" data-name="Trazado 9262" d="M388.505,456.327v3.748h0a2.684,2.684,0,0,1-2.653,2.713h3.559a2.684,2.684,0,0,0,2.653-2.713v-3.748Z" transform="translate(-334.088 -395.112)" fill="#929293"/>
      <path id="Trazado_9263" data-name="Trazado 9263" d="M10.365,7.5H35.35a2.646,2.646,0,0,1,2.609,2.809L36.168,45.7a9,9,0,0,0,8.472,9.535c7.452.342,16.84-.655,16.84,10.6v5.621a2.683,2.683,0,0,1-2.653,2.713h-22.3a6.544,6.544,0,0,1-3.448-.985L29.062,70.7a.968.968,0,0,0-1.471.847v1.221a1.392,1.392,0,0,1-1.376,1.407H13.389a1.745,1.745,0,0,1-1.725-1.662L8.009,10.058A2.391,2.391,0,0,1,10.365,7.5Z" transform="translate(-6.928 -6.494)" fill="#7abfe5"/>
      <path id="Trazado_9264" data-name="Trazado 9264" d="M15.152,72.509,11.5,10.058A2.391,2.391,0,0,1,13.853,7.5H10.365a2.391,2.391,0,0,0-2.356,2.557l3.655,62.451a1.745,1.745,0,0,0,1.725,1.662h3.488A1.745,1.745,0,0,1,15.152,72.509Z" transform="translate(-6.928 -6.494)" fill="#4fb1d3"/>
      <path id="Trazado_9265" data-name="Trazado 9265" d="M28.155,38.417c1.378-3.064,5.389-4.5,8.561-3.575h0l1.242-24.532A2.646,2.646,0,0,0,35.349,7.5H10.364a2.391,2.391,0,0,0-2.356,2.558l2.4,41.074h8.965a7.684,7.684,0,0,0,7.542-6.622C27.538,40.373,27.542,39.78,28.155,38.417Z" transform="translate(-6.927 -6.494)" fill="#91cbf2"/>
      <path id="Trazado_9266" data-name="Trazado 9266" d="M10.564,51.131h3.488l-2.4-41.074A2.391,2.391,0,0,1,14,7.5H10.516A2.376,2.376,0,0,0,8.18,9.573C8.135,9.9,10.067,42.582,10.564,51.131Z" transform="translate(-7.079 -6.494)" fill="#69bde2"/>
      <path id="Trazado_9267" data-name="Trazado 9267" d="M33.19,456.327l.281,4.8a1.745,1.745,0,0,0,1.725,1.662H48.022a1.392,1.392,0,0,0,1.376-1.407v-1.22a.969.969,0,0,1,1.471-.847l4.017,2.49a6.543,6.543,0,0,0,3.448.985h22.3a2.684,2.684,0,0,0,2.653-2.713v-3.748Z" transform="translate(-28.735 -395.112)" fill="#a9a9aa"/>
      <path id="Trazado_9268" data-name="Trazado 9268" d="M33.47,461.125a1.745,1.745,0,0,0,1.725,1.662h3.488a1.745,1.745,0,0,1-1.725-1.662l-.281-4.8H33.189C33.291,458.075,33.377,459.535,33.47,461.125Z" transform="translate(-28.734 -395.11)" fill="#929293"/>
      <path id="Trazado_9269" data-name="Trazado 9269" d="M63.448,49.447c-3.617-1.752-8.394-1.519-12.562-1.711a7.993,7.993,0,0,1-7.513-8.479L44.7,13.108a1.006,1.006,0,1,0-2.01-.1l-.715,14.132a7.727,7.727,0,0,0-8.533,4.372c-1.584,3.523-.371,7.1-3.066,10.009a8.31,8.31,0,0,1-.2-2.262C31.9,3.179,32.321,3.494,31.58,2.012h9.97a1.64,1.64,0,0,1,1.6,1.753l-.23,4.547a1.006,1.006,0,0,0,2.01.1l.23-4.547a3.724,3.724,0,0,0-1.011-2.744A3.561,3.561,0,0,0,41.55,0H3.37A3.4,3.4,0,0,0,.009,3.622L1.811,34.4a1.006,1.006,0,1,0,2.009-.118L2.018,3.5A1.384,1.384,0,0,1,3.37,2.012c26.528.022,25-.054,25.406.059a1.655,1.655,0,0,1,1.183,1.693L28.776,27.138a7.826,7.826,0,0,0-9.273,6.9l-.573,3.831a6.642,6.642,0,0,1-6.547,5.765H4.367l-.272-4.653a1.006,1.006,0,1,0-2.009.118c.08,1.373,1.494,25.53,1.579,26.978a2.754,2.754,0,0,0,2.73,2.609c13.693,0,12.881.007,13.069-.012a2.4,2.4,0,0,0,2.139-2.4V65.1l3.952,2.449a7.549,7.549,0,0,0,3.978,1.136H65.027a3.694,3.694,0,0,0,3.659-3.719V59.343C68.686,54.391,66.972,51.154,63.448,49.447Zm3.226,9.9v.866H55.49c0-3.035-.166-5.7-2.017-8.166a8.544,8.544,0,0,0-2.646-2.294C59.151,50.125,66.673,49.4,66.673,59.343Zm-31.4-27.007a5.7,5.7,0,0,1,6.594-3.157l-.5,9.977a10.125,10.125,0,0,0,4.609,9.058c-6.609-.982-10.25.754-13.7-3.042a8.133,8.133,0,0,1-1.135-1.6C35.176,40.094,33.815,35.579,35.274,32.335Zm-8.66,33.5L22.6,63.346a1.975,1.975,0,0,0-3.007,1.7v1.22a.387.387,0,0,1-.37.4H6.394a.741.741,0,0,1-.721-.714l-.219-3.735H35.363a1.006,1.006,0,1,0,0-2.012H5.337L4.485,45.643h7.9a8.692,8.692,0,0,0,8.537-7.479c.56-3.33.475-4.309,1.159-5.829a5.7,5.7,0,0,1,6.594-3.157l-.5,9.978A10.005,10.005,0,0,0,37.6,49.747c8.429.386,15.88-.331,15.88,9.6v.866H40.058a1.006,1.006,0,0,0,0,2.012H53.478v2.742a1.68,1.68,0,0,1-1.647,1.707h-22.3A5.538,5.538,0,0,1,26.614,65.836Zm40.059-.873a1.68,1.68,0,0,1-1.647,1.707H55.082c.681-1.333.3-2.45.409-4.449H66.673v2.742Z" transform="translate(0)"/>
    </g>
  </g>
</svg>
