<?xml version="1.0" encoding="utf-8"?>
<!-- Generator: Adobe Illustrator 22.1.0, SVG Export Plug-In . SVG Version: 6.00 Build 0)  -->
<svg version="1.1" id="Layer_1" xmlns="http://www.w3.org/2000/svg" xmlns:xlink="http://www.w3.org/1999/xlink" x="0px" y="0px"
	 width="372px" height="338.3px" viewBox="0 0 372 338.3" style="enable-background:new 0 0 372 338.3;" xml:space="preserve">
<style type="text/css">
	.st0{fill:#889FA6;}
	.st1{fill:#9FBCC4;}
	.st2{fill:#BAD2D9;}
	.st3{fill:#62808A;}
	.st4{fill:#F59402;}
	.st5{fill:#F5B100;}
	.st6{fill:#F59C02;}
	.st7{fill:#161E2E;}
	.st8{fill:#373E54;}
	.st9{fill:#FFFFFF;}
	.st10{fill:#1F374A;}
	.st11{fill:#EC545B;}
	.st12{fill:#2F6C99;}
	.st13{opacity:0.66;}
	.st14{fill:#2A5F87;}
	.st15{fill:#616161;}
	.st16{fill:#2A2C59;}
	.st17{fill:#E0E0E0;}
	.st18{fill:#275A80;}
	.st19{fill:#FF4140;}
	.st20{fill:#CC2221;}
</style>
<g>
	<g>
		<g>
			<rect x="128.4" y="118.6" class="st0" width="232" height="191.4"/>
			<polygon class="st1" points="128.4,27.4 128.4,118.6 360.4,118.6 292.5,27.4 			"/>
		</g>
		<polygon class="st2" points="244.4,118.6 244.4,310 12.4,310 12.4,118.6 80.3,27.4 176.4,27.4 		"/>
		<g>
			<polygon class="st3" points="161.7,227.2 161.7,147.6 95.1,147.6 161.7,227.2 			"/>
			<polygon class="st0" points="95.1,227.2 161.7,227.2 95.1,147.6 95.1,147.6 			"/>
		</g>
		<g>
			<g>
				<path class="st4" d="M127.9,147.6c0.1,0,0.3,0,0.3,0.2c0.1,0.2,4.6,4,6.1,7c0.3,0.7,4.2,6.7,4.7,12.4c0.3,3.4,0,13,0.2,13.9
					c0,0.1,0.1,0.2,0.1,0.4c0.2-0.2,0.8-7,2.2-10c2.3-4.5,6.6-7.2,6.9-7.5c0.4-0.1,0.6,0.2,0.4,0.5c-0.1,0.2-1.5,3.2-1.9,4.4
					c0.1,0.1-0.6,2.1-0.7,3c-0.4,2.3-0.3,4.6,0.4,6.8c0.9,2.5,2.7,4.1,3.5,6.6c1.4,2.8,1.7,6.3,1.2,10c-0.2,1.2-0.6,3.2-1.2,5.3
					c4.4-4.5,4-8,4.3-9.2c0-0.2,0.2-0.4,0.4-0.4c0.1,0,0.2,0,0.2,0.1c0.1,0.2,1.5,3,1.7,4c1.1,4.7,0.2,11.2-1.8,15.4
					c-1.3,2.8-5.1,8.1-5.5,8.5c-1.9,2.3-6.9,7.7-20.9,9.2c-13.3,1.4-21.5-3.1-24.3-9.6c-0.4-1-2.7-5.3-2.6-8.1
					c0-0.2,0.2-0.6,0.4-0.6c0.1,0.8,0.8,0.9,1.5,0.8c0.2,0,0.4-0.1,0.6-0.1c0.2,0,0.4-0.1,0.5-0.1c0.4,0,0.7,0,0.9,0.1
					c0.3,0.1,1.2,0.2,1.5,0.4c-0.2-0.5-3-3.5-2.1-8.8c1.9-10.7,9.5-20.4,4.9-26.2c-0.1-0.2-0.8-0.6-0.5-0.9c0.6-0.1,3,1.9,3.5,2.6
					c0.5,0.8,3.2,3.5,4,6.1c0.6,1.8,0.7,4.2,0.7,4.3c1.2-1.6,4.6-5.4,2.8-11c-1.9-5.9-2.4-13.4,1.8-17.9c1-1,2.9-2.4,2.9-2.4
					c0.1-0.1,0.3-0.2,0.4-0.3c0.5-0.1,0.4,0.8,0.4,0.8c0,0.1-1.1,2.7-1.3,4c-0.1,0.7,0.3,3.1,0.9,3.1c0.1,0,0.2,0,0.3,0
					c2.9-0.3,3.4-5,3.6-6.5c0.2-1.5-0.9-6.7-1.1-7.4c-0.1-0.4-0.3-0.8-0.4-1.2c-0.2-0.3-0.3-0.7-0.4-1
					C127.3,148,127.6,147.6,127.9,147.6z"/>
			</g>
		</g>
		<g>
			<g>
				<path class="st5" d="M133.6,152.4c-0.1,0-0.2,0.1-0.3,0.2c-0.1,0.1-3.9,3.9-5.2,6.8c-0.3,0.6-3.6,6.4-4.2,11.8
					c-0.3,3.2-0.3,12.2-0.5,13.1c0,0.1-0.1,0.2-0.1,0.3c-0.1-0.2-0.4-6.6-1.6-9.3c-1.7-4.2-5.2-6.6-5.5-6.8
					c-0.3-0.1-0.5,0.2-0.4,0.5c0.1,0.2,1.1,2.9,1.4,4.1c-0.1,0.1,0.4,1.9,0.5,2.8c0.3,2.1,0.2,4.3-0.5,6.4c-0.8,2.4-2.3,4-3,6.3
					c-1.2,2.7-1.5,6-1.2,9.4c0.1,1.2,0.4,3,0.9,4.9c-3.5-4.1-3.1-7.4-3.3-8.6c0-0.2-0.2-0.3-0.3-0.3c-0.1,0-0.2,0-0.2,0.1
					c-0.1,0.2-1.3,2.9-1.5,3.8c-1.1,4.5-0.4,10.5,1.1,14.5c1,2.6,4,7.5,4.3,7.9c1.5,2.1,5.5,7.1,16.9,8.1c10.9,1,17.8-3.5,20.2-9.7
					c0.4-1,2.3-5,2.3-7.7c0-0.2-0.2-0.6-0.3-0.6c-0.1,0.8-0.7,0.9-1.3,0.8c-0.2,0-0.3,0-0.5-0.1c-0.1,0-0.3,0-0.4,0
					c-0.3,0-0.6,0-0.7,0.1c-0.2,0.1-1,0.3-1.3,0.4c0.1-0.4,2.6-3.4,2-8.3c-1.3-10.1-7.3-19-3.3-24.5c0.1-0.2,0.6-0.6,0.4-0.9
					c-0.5-0.1-2.5,1.8-2.9,2.6c-0.4,0.8-2.7,3.4-3.4,5.8c-0.5,1.7-0.7,4-0.7,4.1c-1-1.4-3.7-4.9-2-10.3c1.7-5.6,2.3-12.6-1-16.8
					c-0.8-0.9-2.3-2.2-2.3-2.2c-0.1-0.1-0.2-0.2-0.4-0.3c-0.4-0.1-0.3,0.8-0.3,0.8c0,0.1,0.8,2.5,1,3.7c0.1,0.7-0.4,3-0.8,3
					c-0.1,0-0.2,0-0.3,0c-2.4-0.2-2.7-4.6-2.8-6c-0.1-1.4,0.9-6.3,1.1-7c0.1-0.4,0.3-0.8,0.4-1.2c0.1-0.3,0.3-0.7,0.4-1
					C134.1,152.8,133.9,152.4,133.6,152.4z"/>
			</g>
		</g>
		<rect x="80.3" y="27.4" class="st0" width="6.6" height="282.6"/>
		<rect x="12.4" y="118.7" class="st0" width="71.3" height="6.6"/>
		<rect x="173" y="118.7" class="st0" width="71.3" height="6.6"/>
		<rect x="12.4" y="254.7" class="st0" width="71.3" height="6.6"/>
		<rect x="173" y="254.7" class="st0" width="71.3" height="6.6"/>
		<rect x="83.7" y="84.9" class="st0" width="89.4" height="6.6"/>
		<rect x="102.1" y="62.2" class="st0" width="52.6" height="15.5"/>
		<rect x="169.7" y="27.4" class="st0" width="6.6" height="282.6"/>
		<path class="st3" d="M152.1,112c0-5.3-4.3-9.6-9.6-9.6l0,0c-5.3,0-9.6,4.3-9.6,9.6l0,0c0,5.3,4.3,9.6,9.6,9.6l0,0
			C147.8,121.5,152.1,117.3,152.1,112L152.1,112z"/>
		<path class="st3" d="M114.3,112c0-5.3-4.3-9.6-9.6-9.6l0,0c-5.3,0-9.6,4.3-9.6,9.6l0,0c0,5.3,4.3,9.6,9.6,9.6l0,0
			C110,121.5,114.3,117.3,114.3,112L114.3,112z"/>
		<g>
			<g>
				<g>
					<g>
						<path class="st3" d="M255.6,131.9c0-1.3-1-2.3-2.3-2.3c-1.3,0-2.3,1-2.3,2.3c0,1.3,1,2.3,2.3,2.3
							C254.5,134.2,255.6,133.2,255.6,131.9z"/>
					</g>
					<g>
						<path class="st3" d="M262.8,131.9c0-1.3-1-2.3-2.3-2.3c-1.3,0-2.3,1-2.3,2.3c0,1.3,1,2.3,2.3,2.3
							C261.8,134.2,262.8,133.2,262.8,131.9z"/>
					</g>
					<g>
						<path class="st3" d="M270.1,131.9c0-1.3-1.1-2.3-2.3-2.3c-1.3,0-2.3,1-2.3,2.3c0,1.3,1,2.3,2.3,2.3
							C269.1,134.2,270.1,133.2,270.1,131.9z"/>
					</g>
					<g>
						<path class="st3" d="M277.4,131.9c0-1.3-1-2.3-2.3-2.3c-1.3,0-2.3,1-2.3,2.3c0,1.3,1,2.3,2.3,2.3
							C276.4,134.2,277.4,133.2,277.4,131.9z"/>
					</g>
					<g>
						<path class="st3" d="M284.7,131.9c0-1.3-1-2.3-2.3-2.3c-1.3,0-2.3,1-2.3,2.3c0,1.3,1,2.3,2.3,2.3
							C283.7,134.2,284.7,133.2,284.7,131.9z"/>
					</g>
					<g>
						<path class="st3" d="M292,131.9c0-1.3-1-2.3-2.3-2.3c-1.3,0-2.3,1-2.3,2.3c0,1.3,1,2.3,2.3,2.3
							C290.9,134.2,292,133.2,292,131.9z"/>
					</g>
					<g>
						<path class="st3" d="M299.3,131.9c0-1.3-1-2.3-2.3-2.3c-1.3,0-2.3,1-2.3,2.3c0,1.3,1,2.3,2.3,2.3
							C298.2,134.2,299.3,133.2,299.3,131.9z"/>
					</g>
					<g>
						<path class="st3" d="M306.5,131.9c0-1.3-1-2.3-2.3-2.3c-1.3,0-2.3,1-2.3,2.3c0,1.3,1,2.3,2.3,2.3
							C305.5,134.2,306.5,133.2,306.5,131.9z"/>
					</g>
					<g>
						<path class="st3" d="M313.8,131.9c0-1.3-1-2.3-2.3-2.3c-1.3,0-2.3,1-2.3,2.3c0,1.3,1,2.3,2.3,2.3
							C312.8,134.2,313.8,133.2,313.8,131.9z"/>
					</g>
					<g>
						<path class="st3" d="M321.1,131.9c0-1.3-1-2.3-2.3-2.3c-1.3,0-2.3,1-2.3,2.3c0,1.3,1,2.3,2.3,2.3
							C320.1,134.2,321.1,133.2,321.1,131.9z"/>
					</g>
					<g>
						<path class="st3" d="M328.4,131.9c0-1.3-1-2.3-2.3-2.3c-1.3,0-2.3,1-2.3,2.3c0,1.3,1,2.3,2.3,2.3
							C327.4,134.2,328.4,133.2,328.4,131.9z"/>
					</g>
				</g>
				<g>
					<g>
						<path class="st3" d="M255.6,141c0-1.3-1-2.3-2.3-2.3c-1.3,0-2.3,1-2.3,2.3c0,1.3,1,2.3,2.3,2.3
							C254.5,143.4,255.6,142.3,255.6,141z"/>
					</g>
					<g>
						<path class="st3" d="M262.8,141c0-1.3-1-2.3-2.3-2.3c-1.3,0-2.3,1-2.3,2.3c0,1.3,1,2.3,2.3,2.3
							C261.8,143.4,262.8,142.3,262.8,141z"/>
					</g>
					<g>
						<path class="st3" d="M270.1,141c0-1.3-1.1-2.3-2.3-2.3c-1.3,0-2.3,1-2.3,2.3c0,1.3,1,2.3,2.3,2.3
							C269.1,143.4,270.1,142.3,270.1,141z"/>
					</g>
					<g>
						<path class="st3" d="M277.4,141c0-1.3-1-2.3-2.3-2.3c-1.3,0-2.3,1-2.3,2.3c0,1.3,1,2.3,2.3,2.3
							C276.4,143.4,277.4,142.3,277.4,141z"/>
					</g>
					<g>
						<path class="st3" d="M284.7,141c0-1.3-1-2.3-2.3-2.3c-1.3,0-2.3,1-2.3,2.3c0,1.3,1,2.3,2.3,2.3
							C283.7,143.4,284.7,142.3,284.7,141z"/>
					</g>
					<g>
						<path class="st3" d="M292,141c0-1.3-1-2.3-2.3-2.3c-1.3,0-2.3,1-2.3,2.3c0,1.3,1,2.3,2.3,2.3C290.9,143.4,292,142.3,292,141z"
							/>
					</g>
					<g>
						<path class="st3" d="M299.3,141c0-1.3-1-2.3-2.3-2.3c-1.3,0-2.3,1-2.3,2.3c0,1.3,1,2.3,2.3,2.3
							C298.2,143.4,299.3,142.3,299.3,141z"/>
					</g>
					<g>
						<path class="st3" d="M306.5,141c0-1.3-1-2.3-2.3-2.3c-1.3,0-2.3,1-2.3,2.3c0,1.3,1,2.3,2.3,2.3
							C305.5,143.4,306.5,142.3,306.5,141z"/>
					</g>
					<g>
						<path class="st3" d="M313.8,141c0-1.3-1-2.3-2.3-2.3c-1.3,0-2.3,1-2.3,2.3c0,1.3,1,2.3,2.3,2.3
							C312.8,143.4,313.8,142.3,313.8,141z"/>
					</g>
					<g>
						<path class="st3" d="M321.1,141c0-1.3-1-2.3-2.3-2.3c-1.3,0-2.3,1-2.3,2.3c0,1.3,1,2.3,2.3,2.3
							C320.1,143.4,321.1,142.3,321.1,141z"/>
					</g>
					<g>
						<path class="st3" d="M328.4,141c0-1.3-1-2.3-2.3-2.3c-1.3,0-2.3,1-2.3,2.3c0,1.3,1,2.3,2.3,2.3
							C327.4,143.4,328.4,142.3,328.4,141z"/>
					</g>
				</g>
				<g>
					<g>
						<path class="st3" d="M255.6,150.2c0-1.3-1-2.3-2.3-2.3c-1.3,0-2.3,1-2.3,2.3c0,1.3,1,2.3,2.3,2.3
							C254.5,152.5,255.6,151.5,255.6,150.2z"/>
					</g>
					<g>
						<path class="st3" d="M262.8,150.2c0-1.3-1-2.3-2.3-2.3c-1.3,0-2.3,1-2.3,2.3c0,1.3,1,2.3,2.3,2.3
							C261.8,152.5,262.8,151.5,262.8,150.2z"/>
					</g>
					<g>
						<path class="st3" d="M270.1,150.2c0-1.3-1.1-2.3-2.3-2.3c-1.3,0-2.3,1-2.3,2.3c0,1.3,1,2.3,2.3,2.3
							C269.1,152.5,270.1,151.5,270.1,150.2z"/>
					</g>
					<g>
						<path class="st3" d="M277.4,150.2c0-1.3-1-2.3-2.3-2.3c-1.3,0-2.3,1-2.3,2.3c0,1.3,1,2.3,2.3,2.3
							C276.4,152.5,277.4,151.5,277.4,150.2z"/>
					</g>
					<g>
						<path class="st3" d="M284.7,150.2c0-1.3-1-2.3-2.3-2.3c-1.3,0-2.3,1-2.3,2.3c0,1.3,1,2.3,2.3,2.3
							C283.7,152.5,284.7,151.5,284.7,150.2z"/>
					</g>
					<g>
						<path class="st3" d="M292,150.2c0-1.3-1-2.3-2.3-2.3c-1.3,0-2.3,1-2.3,2.3c0,1.3,1,2.3,2.3,2.3
							C290.9,152.5,292,151.5,292,150.2z"/>
					</g>
					<g>
						<path class="st3" d="M299.3,150.2c0-1.3-1-2.3-2.3-2.3c-1.3,0-2.3,1-2.3,2.3c0,1.3,1,2.3,2.3,2.3
							C298.2,152.5,299.3,151.5,299.3,150.2z"/>
					</g>
					<g>
						<path class="st3" d="M306.5,150.2c0-1.3-1-2.3-2.3-2.3c-1.3,0-2.3,1-2.3,2.3c0,1.3,1,2.3,2.3,2.3
							C305.5,152.5,306.5,151.5,306.5,150.2z"/>
					</g>
					<g>
						<path class="st3" d="M313.8,150.2c0-1.3-1-2.3-2.3-2.3c-1.3,0-2.3,1-2.3,2.3c0,1.3,1,2.3,2.3,2.3
							C312.8,152.5,313.8,151.5,313.8,150.2z"/>
					</g>
					<g>
						<path class="st3" d="M321.1,150.2c0-1.3-1-2.3-2.3-2.3c-1.3,0-2.3,1-2.3,2.3c0,1.3,1,2.3,2.3,2.3
							C320.1,152.5,321.1,151.5,321.1,150.2z"/>
					</g>
					<g>
						<path class="st3" d="M328.4,150.2c0-1.3-1-2.3-2.3-2.3c-1.3,0-2.3,1-2.3,2.3c0,1.3,1,2.3,2.3,2.3
							C327.4,152.5,328.4,151.5,328.4,150.2z"/>
					</g>
				</g>
			</g>
			<g>
				<g>
					<g>
						<path class="st3" d="M335.7,131.9c0-1.3-1-2.3-2.3-2.3c-1.3,0-2.3,1-2.3,2.3c0,1.3,1,2.3,2.3,2.3
							C334.7,134.2,335.7,133.2,335.7,131.9z"/>
					</g>
					<g>
						<path class="st3" d="M343,131.9c0-1.3-1.1-2.3-2.3-2.3c-1.3,0-2.3,1-2.3,2.3c0,1.3,1,2.3,2.3,2.3
							C341.9,134.2,343,133.2,343,131.9z"/>
					</g>
					<g>
						<path class="st3" d="M350.3,131.9c0-1.3-1-2.3-2.3-2.3c-1.3,0-2.3,1-2.3,2.3c0,1.3,1,2.3,2.3,2.3
							C349.2,134.2,350.3,133.2,350.3,131.9z"/>
					</g>
					<g>
						<path class="st3" d="M357.6,131.9c0-1.3-1-2.3-2.3-2.3c-1.3,0-2.3,1-2.3,2.3c0,1.3,1,2.3,2.3,2.3
							C356.5,134.2,357.6,133.2,357.6,131.9z"/>
					</g>
				</g>
				<g>
					<g>
						<path class="st3" d="M335.7,141c0-1.3-1-2.3-2.3-2.3c-1.3,0-2.3,1-2.3,2.3c0,1.3,1,2.3,2.3,2.3
							C334.7,143.4,335.7,142.3,335.7,141z"/>
					</g>
					<g>
						<path class="st3" d="M343,141c0-1.3-1.1-2.3-2.3-2.3c-1.3,0-2.3,1-2.3,2.3c0,1.3,1,2.3,2.3,2.3C341.9,143.4,343,142.3,343,141
							z"/>
					</g>
					<g>
						<path class="st3" d="M350.3,141c0-1.3-1-2.3-2.3-2.3c-1.3,0-2.3,1-2.3,2.3c0,1.3,1,2.3,2.3,2.3
							C349.2,143.4,350.3,142.3,350.3,141z"/>
					</g>
					<g>
						<path class="st3" d="M357.6,141c0-1.3-1-2.3-2.3-2.3c-1.3,0-2.3,1-2.3,2.3c0,1.3,1,2.3,2.3,2.3
							C356.5,143.4,357.6,142.3,357.6,141z"/>
					</g>
				</g>
				<g>
					<g>
						<path class="st3" d="M335.7,150.2c0-1.3-1-2.3-2.3-2.3c-1.3,0-2.3,1-2.3,2.3c0,1.3,1,2.3,2.3,2.3
							C334.7,152.5,335.7,151.5,335.7,150.2z"/>
					</g>
					<g>
						<path class="st3" d="M343,150.2c0-1.3-1.1-2.3-2.3-2.3c-1.3,0-2.3,1-2.3,2.3c0,1.3,1,2.3,2.3,2.3
							C341.9,152.5,343,151.5,343,150.2z"/>
					</g>
					<g>
						<path class="st3" d="M350.3,150.2c0-1.3-1-2.3-2.3-2.3c-1.3,0-2.3,1-2.3,2.3c0,1.3,1,2.3,2.3,2.3
							C349.2,152.5,350.3,151.5,350.3,150.2z"/>
					</g>
					<g>
						<path class="st3" d="M357.6,150.2c0-1.3-1-2.3-2.3-2.3c-1.3,0-2.3,1-2.3,2.3c0,1.3,1,2.3,2.3,2.3
							C356.5,152.5,357.6,151.5,357.6,150.2z"/>
					</g>
				</g>
			</g>
		</g>
		<g>
			<rect x="10.8" y="83.2" class="st5" width="59" height="16.6"/>
			<rect x="10.8" y="93.7" class="st5" width="15.8" height="167.7"/>
			<rect x="6.5" y="119.5" class="st6" width="24.4" height="7.9"/>
			<rect x="53.9" y="2.2" class="st5" width="15.8" height="93.2"/>
			<g>
				<path class="st7" d="M34,218.3c0-8.1-6.5-14.6-14.6-14.6c-8.1,0-14.6,6.5-14.6,14.6c0,8.1,6.5,14.6,14.6,14.6
					C27.5,232.9,34,226.4,34,218.3z"/>
				<path class="st8" d="M30.3,218.3c0-8.1-6.5-14.6-14.6-14.6c-8.1,0-14.6,6.5-14.6,14.6c0,8.1,6.5,14.6,14.6,14.6
					C23.7,232.9,30.3,226.4,30.3,218.3z"/>
				<path class="st9" d="M27.5,218.3c0-6.5-5.3-11.8-11.8-11.8c-6.5,0-11.8,5.3-11.8,11.8c0,6.5,5.3,11.8,11.8,11.8
					C22.2,230.1,27.5,224.8,27.5,218.3z"/>
				<path class="st8" d="M14.2,209.9c-0.1-0.4-0.6-0.7-1-0.6l0,0c-0.4,0.1-0.7,0.6-0.6,1l2.3,8.4c0.1,0.4,0.6,0.7,1,0.6l0,0
					c0.4-0.1,0.7-0.6,0.6-1L14.2,209.9z"/>
				<path class="st8" d="M18.3,218.3c0-1.5-1.2-2.7-2.7-2.7c-1.5,0-2.7,1.2-2.7,2.7c0,1.5,1.2,2.7,2.7,2.7
					C17.1,221,18.3,219.8,18.3,218.3z"/>
			</g>
			<g>
				<path class="st7" d="M33,161.4c0-8.1-6.5-14.6-14.6-14.6c-8.1,0-14.6,6.5-14.6,14.6c0,8.1,6.5,14.6,14.6,14.6
					C26.4,175.9,33,169.4,33,161.4z"/>
				<path class="st8" d="M29.2,161.4c0-8.1-6.5-14.6-14.6-14.6c-8.1,0-14.6,6.5-14.6,14.6c0,8.1,6.5,14.6,14.6,14.6
					C22.7,175.9,29.2,169.4,29.2,161.4z"/>
				<path class="st9" d="M26.4,161.4c0-6.5-5.3-11.8-11.8-11.8c-6.5,0-11.8,5.3-11.8,11.8c0,6.5,5.3,11.8,11.8,11.8
					C21.1,173.2,26.4,167.9,26.4,161.4z"/>
				<path class="st8" d="M15.4,160.4c-0.4,0.1-0.7,0.6-0.6,1l0,0c0.1,0.4,0.6,0.7,1,0.6l8.4-2.2c0.4-0.1,0.7-0.6,0.6-1l0,0
					c-0.1-0.4-0.6-0.7-1-0.6L15.4,160.4z"/>
				<path class="st8" d="M17.5,161.5c0-1.5-1.2-2.7-2.7-2.7c-1.5,0-2.7,1.2-2.7,2.7c0,1.5,1.2,2.7,2.7,2.7
					C16.3,164.2,17.5,163,17.5,161.5z"/>
			</g>
			<g>
				<rect x="57" y="240.9" class="st5" width="7.9" height="24.4"/>
				<rect x="42.9" y="240.9" class="st6" width="14.5" height="24.4"/>
			</g>
			<g>
				<g>
					<g>
						<rect x="24.3" y="244.8" class="st5" width="26.2" height="16.6"/>
					</g>
					<g>
						<path class="st5" d="M48.3,253.1c0,4.6,1,8.3,2.2,8.3c1.2,0,2.2-3.7,2.2-8.3c0-4.6-1-8.3-2.2-8.3
							C49.3,244.8,48.3,248.5,48.3,253.1z"/>
					</g>
				</g>
			</g>
			<rect x="47.4" class="st6" width="29" height="7.9"/>
		</g>
	</g>
	<g>
		<g>
			<g id="Grupo_1587" transform="translate(63.959 169.576)">
				<path id="Trazado_8257" class="st10" d="M158.5,129.2c1.2-0.5,2.3-1.2,3.2-2c0.9,3.2,1.5,6.5,1.8,9.9c0.1,0.6-0.3,1.3-0.9,1.5
					l-3.6,0.7c-0.6,0.1-1.1-0.3-1.3-0.8c-0.3-0.6-0.8-0.1-1.1-0.2c-0.7-0.1-3.3,2-10.4,3.4c-4.7,0.9-4.1-1.8-3.9-2.5
					c0.2-0.6,6.7-2.7,9.6-6.1c2.7-3.3,2.2-4.6,4.5-4C157,129.4,157.7,129.4,158.5,129.2z"/>
			</g>
			<g id="Grupo_1604" transform="translate(95.774 171.515)">
				<path id="Trazado_8273" class="st10" d="M154.1,129.1c1.1-0.6,2.2-1.3,3.1-2.2c1.1,3.2,1.9,6.4,2.4,9.8c0.1,0.6-0.2,1.3-0.8,1.5
					l-3.6,0.9c-0.6,0.1-1.1-0.2-1.3-0.7c-0.3-0.5-0.8-0.1-1.2-0.1c-0.7,0-3.1,2.2-10.1,4.1c-4.6,1.2-4.2-1.6-4-2.2s6.5-3.1,9.2-6.7
					c2.5-3.4,1.4-6.2,3.7-5.6C152.1,128,153.4,129.4,154.1,129.1z"/>
			</g>
			<g>
				<g id="Grupo_1571" transform="translate(88.988 21.991)">
					<path id="Trazado_8246" class="st9" d="M140.3,145.6c0,0,0.1,2.1-0.9,2.4c-1,0.3,0.9,1.9,0.9,1.9c0.9-0.3,1.8-0.7,2.6-1.1
						c0.1-0.1,0.6-1.5,0.6-1.5l-0.8-2.3l-1-0.8L140.3,145.6z"/>
				</g>
				<g id="Grupo_1574" transform="translate(91.347 24.633)">
					<path id="Trazado_8249" class="st9" d="M138.9,144.4l2.2-0.5c0,0,1.3,3.2,1.2,3.3c-0.9-0.1-1.8-0.3-2.7-0.7
						C139.3,145.8,139.1,145.1,138.9,144.4z"/>
				</g>
				<g id="Grupo_1575" transform="translate(93.939 27.95)">
					<path id="Trazado_8250" class="st11" d="M138.8,143.5l-0.1,0.1l0,0.1l0,0.1l0.1,0c0,0,0.1-0.1,0.1-0.1
						C138.8,143.7,138.8,143.6,138.8,143.5L138.8,143.5z"/>
				</g>
				<g id="Grupo_1577" transform="translate(94.125 11.161)">
					<g id="Grupo_1576">
						<path id="Trazado_8251" class="st11" d="M146.7,145.5v5l0,0v8.6c-0.8-0.3-1.6-0.5-2.4-0.7c-1.9-0.4-3.9-0.2-5.7,0.6v-13.6
							L146.7,145.5z"/>
					</g>
				</g>
				<g id="Grupo_1579" transform="translate(103.305 28.08)">
					<g id="Grupo_1578">
						<path id="Trazado_8252" class="st9" d="M152,198.4c0,0-11.7,0.6-14.4,0l0.8-11.8l-0.9-43c2.2,0.4,4.2,0.8,6.3,1.2
							c3.2,0.6,6.3,1.8,9,3.6l-2.2,17.2l0,0l-0.2,1.8l0.3,5L152,198.4z"/>
					</g>
				</g>
				<g id="Grupo_1581" transform="translate(77.562 28.407)">
					<g id="Grupo_1580">
						<path id="Trazado_8253" class="st9" d="M152,174c0.1,21.1,2.9,23.7,2.9,23.7c-3.5,1.1-14.2,0-14.2,0
							c-0.8-5.9,0.7-47.6,0.7-47.6c2.7-1.8,5.5-3.4,8.5-4.5c2.8-1.2,5-2.1,5-2.1C152.7,146.3,151.9,151.6,152,174z"/>
					</g>
				</g>
				<g id="Grupo_1583" transform="translate(94.125 25.673)">
					<g id="Grupo_1582">
						<path id="Trazado_8254" class="st11" d="M146.7,144.6v0.8c-0.8-0.3-1.7-0.6-2.5-0.7c-1.9-0.4-3.9-0.1-5.6,0.7v-0.9
							c1.8-0.8,3.8-1,5.7-0.6C145.1,144.1,145.9,144.3,146.7,144.6z"/>
					</g>
				</g>
				<g id="Grupo_1586" transform="translate(89.87 2.547)">
					<g id="Grupo_1584">
						<path id="Trazado_8255" class="st11" d="M142.1,148c-3,8.7-4.4,16.2-1.1,17.9s6.5,0.8,12.4-3.7l3.5-5.2l-3.3-6.8l-3.4-3.8
							L142.1,148z"/>
					</g>
					<g id="Grupo_1585" transform="translate(11.317 9.339)">
						<path id="Trazado_8256" class="st11" d="M138,146.5c1.6-2,3.5-1.1,3.4,0.7s-1.6,3.8-3,3.1C137.2,149.5,138,146.5,138,146.5z"
							/>
					</g>
				</g>
				<g id="Grupo_1588" transform="translate(89.69 12.346)">
					<path id="Trazado_8258" class="st12" d="M150.3,154.7c-2.6,2.1-6.1,2.9-8.4,2.4c0,0,0,0,0,0c-1.1-0.2-2-0.8-2.4-1.8
						c0,0,0-0.1,0-0.1c-0.1-0.2-0.1-0.4-0.2-0.6c-0.6-3.5,0.8-9.2,0.9-9.4l0,0c2.3,1.5,5.1,2.2,7.9,1.8c0.1,0.6,0.3,1.2,0.4,1.8
						c0,0,0,0,0,0.1C149.2,151.8,150.3,154.7,150.3,154.7z"/>
				</g>
				<g id="Grupo_1589" transform="translate(101.315 17.512)">
					<path id="Trazado_8259" class="st12" d="M137.8,148.7c0.7-1.3,1.3-2.6,1.7-4c0,0,0.2,3.9-0.8,4.8
						C137.8,150.4,137.8,148.7,137.8,148.7z"/>
				</g>
				<g id="Grupo_1590" transform="translate(71.008 25.434)">
					<path id="Trazado_8260" class="st9" d="M166.1,145.5l-4.3,13.9l-8.7,13.3l-0.3,0.2l-0.3,0.2l-11.2,8.1c0,0,2.3-20.3,3.6-24.9
						c0.9-3,2.1-6.1,6.2-8.8c1.9-1.2,4-2.2,6.2-2.9c0.2-0.1,0.4-0.1,0.7-0.2c0.6-0.2,1.3-0.4,2.1-0.6l0.2,1.9L166.1,145.5z"/>
				</g>
				<g id="Grupo_1591" transform="translate(88.296 12.346)">
					<path id="Trazado_8261" class="st12" d="M143.3,149v8.2c-1.6,0.1-3.1-0.9-3.6-2.5c-0.1-0.2-0.1-0.4-0.2-0.6l0,0
						c-0.1-0.3-0.2-0.7-0.2-1c-0.3-2.7,2.1-7.6,2.2-7.7l0,0L143.3,149z"/>
				</g>
				<g id="Grupo_1592" transform="translate(89.794 7.333)" class="st13">
					<path id="Trazado_8262" class="st9" d="M149.8,150.7l-1.4-0.7c-2.1-1.8-4.5-3.2-7.2-4c-2.1,1.4-2.7,5.6-1.7,6
						c0.8,0.3,0.9-0.6,2.2-0.2c1.3,0.4,1.1,2.5,3.5,2.1c1-0.2,2.3-0.6,2.7-1.8L149.8,150.7z"/>
				</g>
				<g id="Grupo_1593" transform="translate(88.555 16.162)">
					<path id="Trazado_8263" class="st14" d="M152.1,148.9c-0.1,0.7-0.3,1.3-0.5,2l-0.2,0c-2.6,2.1-6.1,2.9-8.4,2.4c0,0,0,0,0,0
						c-1.6,0.1-3.1-0.9-3.6-2.5c-0.1-0.2-0.1-0.4-0.2-0.6l0,0c0.3,0.5,0.8,0.9,1.3,1.2c0.8,0.4,1.6,0.5,2.5,0.4c0.1,0,0.3,0,0.4,0
						c3.1-0.4,5-7,5-7l1.2,0.2l1.5,0.3C151.1,145.4,152.2,148.4,152.1,148.9z"/>
				</g>
				<g id="Grupo_1594" transform="translate(89.349 6.841)">
					<path id="Trazado_8264" class="st9" d="M145.1,154.9c-0.9,0-1.8-0.5-2.2-1.4c-0.2-0.4-0.5-0.7-0.9-0.8
						c-0.3-0.2-0.7-0.1-1.1,0.1c-0.3,0.2-0.8,0.2-1.1,0.1c-0.3-0.1-0.6-0.4-0.7-1.3c-0.2-1.5,0.6-4.3,2.3-5.5l0.2-0.1l0.2,0.1
						c2.7,0.9,5.1,2.2,7.3,4.1l1.9,1l-2.3,1.8c-0.4,1-1.4,1.7-3,1.9C145.5,154.8,145.3,154.8,145.1,154.9z M141.6,151.8
						c0.3,0,0.5,0.1,0.8,0.1c0.5,0.2,1,0.6,1.3,1.1c0.3,0.8,1.2,1.2,2,1c0.9-0.2,2.1-0.5,2.4-1.5l0-0.1l1.5-1.2l-0.9-0.5l0,0
						c-2-1.7-4.3-3-6.8-3.9c-1.3,1.2-1.9,2.9-1.8,4.6c0,0.4,0.2,0.6,0.2,0.6c0.2,0.1,0.3,0,0.5-0.1
						C140.9,151.9,141.2,151.8,141.6,151.8z"/>
				</g>
				<g id="Grupo_1595" transform="translate(92.199 0)">
					<path id="Trazado_8265" class="st9" d="M154.1,164.8c-0.8,0.7-1.5,1.5-2.2,2.4c0,0-0.1,0.1-0.1,0.1c-0.8,0.9-1.4,1.8-2,2.6
						c-0.7,1-1.2,1.7-1.2,1.7l-4.7,0.1l-3.6,0.1l-1-2.3c4.7-0.3,6-8.1,5.2-11.6c-0.8-3.5-5-3.2-5.7-4.6c-1-8.3,11.7-7.7,15.9-3.4
						C158.9,154,158.2,160.9,154.1,164.8z"/>
				</g>
				<g id="Grupo_1598" transform="translate(92.362 10.521)">
					<g id="Grupo_1596">
						<path id="Trazado_8266" class="st15" d="M139.3,146c-0.1,0.2-0.2,0.4-0.3,0.4c-0.1,0-0.2-0.2-0.1-0.5c0.1-0.2,0.2-0.4,0.3-0.4
							S139.3,145.8,139.3,146z"/>
					</g>
					<g id="Grupo_1597" transform="translate(3.756 1.431)">
						<path id="Trazado_8267" class="st15" d="M138.8,145.9c-0.1,0.2-0.2,0.4-0.3,0.4c-0.1,0-0.2-0.2-0.1-0.5
							c0.1-0.2,0.2-0.4,0.3-0.4C138.8,145.4,138.9,145.6,138.8,145.9z"/>
					</g>
				</g>
				<g id="Grupo_1599" transform="translate(95.862 23.201)">
					<path id="Trazado_8268" class="st9" d="M163.4,153.2l-4.9,8.4l-3.7,0.6l-4.3,0.7l-8.5,1.4l-3.6-11.9l1.9-3.9l0.8-1.7l0.6-1.1
						l0.3-0.7l2.4-0.4l2.3-0.4l0.4-0.1l1.1-0.2c0,0.1-0.1,0.1-0.1,0.2c-0.3,0.7,1,1.2,2.8,1.9l0,0c1.2,0.4,2.6,0.9,4,1.5
						c1.8,0.6,3.5,1.4,5.1,2.4C161.4,150.8,162.5,151.9,163.4,153.2z"/>
				</g>
				<g id="Grupo_1600" transform="translate(85.602 26.743)">
					<path id="Trazado_8269" class="st9" d="M146.9,145.1l5.7-1.4c0,0,3,7.1,4.4,7s6.3,13.9,6.3,13.9s-0.4,16.4-0.5,17.5
						s-1.7,9.1-1.7,9.1l-2.1,5l-5.1,2.3L142,196c0,0-2.9-10.4-2.3-11.2c0.6-0.8,2.8-23,2.3-23.9c-0.5-0.9-2.3-8.6-2.3-8.6
						L146.9,145.1z"/>
				</g>
				<g id="Grupo_1601" transform="translate(72.011 71.623)">
					<path id="Trazado_8270" class="st9" d="M146.5,151l-5.4,44.8l16.9-0.4l10.6-34.2l3.3-15.6l-9.5-7L146.5,151z"/>
				</g>
				<g id="Grupo_1602" transform="translate(72.011 132.188)">
					<path id="Trazado_8271" class="st9" d="M141.1,135.2l1.1,28.8c0.1,1.8,1.7,3.2,3.5,3.2c0.1,0,0.2,0,0.3,0l10.4-1.4
						c0.8-0.1,1.5-0.8,1.5-1.7l0.1-29.2l-7.2-3.4L141.1,135.2z"/>
				</g>
				<g id="Grupo_1603" transform="translate(105.321 145.263)">
					<path id="Trazado_8272" class="st16" d="M149.8,130c-0.6,15.1-1.2,28-1.2,28l-8.1-2.5c-0.9-6-2-13.8-3.1-22.6L149.8,130z"/>
				</g>
				<g id="Grupo_1605" transform="translate(94.801 70.297)">
					<path id="Trazado_8274" class="st9" d="M161.2,159.4L161.2,159.4l-0.8,34.4l-17.5,3.3l-4.4-40.5l11.7-18l10.8,4.8l0,1.5
						L161.2,159.4z"/>
				</g>
				<g id="Grupo_1606" transform="translate(99.743 132.676)">
					<path id="Trazado_8275" class="st9" d="M137.9,134.8l3.3,29.6c0.2,1.8,1.8,3.2,3.6,3c0.1,0,0.2,0,0.3,0l10.3-1.9
						c0.8-0.2,1.4-0.9,1.4-1.8l-1.4-32.2h-7.2L137.9,134.8z"/>
				</g>
				<g id="Grupo_1608" transform="translate(99.239 77.409)">
					<path id="Trazado_8277" class="st17" d="M156.8,152.3L156.8,152.3c-1.4,0.4-2.9,0.5-4.4,0.2c-2.4-0.4-4.9-1.2-7.2-1.2
						c-2.4,0-4.8,0.4-7.2,1c1.2-0.4,1.4-1.3,1.8-2c0.6-1.2,1.6-2.3,2.7-3.1c1.8-1.4,3.8-2.5,5.5-3.9c2.8-2.3,4.3-4.9,8.2-5.4
						c0.1,0,0.2,0,0.4,0L156.8,152.3z"/>
				</g>
				<g id="Grupo_1609" transform="translate(110.202 33.308)">
					<path id="Trazado_8278" class="st9" d="M149,142.9c0,0,8,8.9,10.2,29.4c0.4,3.6-14.3,3.3-14.3,3.3l-8.2-16.8L149,142.9z"/>
				</g>
				<g id="Grupo_1610" transform="translate(100.589 64.472)">
					<path id="Trazado_8279" class="st9" d="M156.7,139.3c0,0-16.4,19.2-18.8,21.3c0,0,0.6,2.8,2.1,4.1c0,0,26.9-9.7,28.9-23.1
						l-7.5-1.8c-0.7-0.1-3,0.7-2.5,0.2L156.7,139.3z"/>
				</g>
				<g id="Grupo_1611" transform="translate(50.606 54.499)">
					<path id="Trazado_8280" class="st9" d="M163.9,140.5c0,0-18.4,15.9-20.3,18.4c0.8,1.4,1.9,2.5,3.1,3.5c0,0,31.2-7.9,30.1-19
						l-10.7,0.6c-0.7,0-2.7,1.3-2.4,0.7L163.9,140.5z"/>
				</g>
				<g id="Grupo_1614" transform="translate(90.92 86.785)">
					<path id="Trazado_8283" class="st18" d="M139.7,141c-2-3,0.4-5.3,2.2-3.8c1.7,1.5,0,2.7,0,2.7L139.7,141z"/>
				</g>
				<g id="Grupo_1618" transform="translate(91.451 82.859)">
					<g id="Grupo_1617">
						<path id="Trazado_8285" class="st12" d="M148.4,146.6L148.4,146.6L148.4,146.6c-4,2.4-5.8,2.4-8.1-0.1
							c-1.1-1.2-3.2-4.7,1.9-5.8c-1.5-0.3-2.8-0.8-2.4-1.4c0.9-1.2,6.1-0.2,6.1-0.2l1.5,0.5l0,0l4.8-2.6l2.2,7.2
							C152.2,145.2,150.1,146,148.4,146.6z"/>
					</g>
				</g>
				<g id="Grupo_1619" transform="translate(106.568 76.784)">
					<path id="Trazado_8286" class="st9" d="M139.4,150.4c1.5,0.9,10.8-6.2,10.8-6.2v-3.4l-5.8-3c0,0-7.1,3.5-7.2,5.4
						C137,145.1,138.3,148.7,139.4,150.4z"/>
				</g>
				<g id="Grupo_1620" transform="translate(90.97 88.164)">
					<path id="Trazado_8287" class="st12" d="M139,136.6c0.2,0.3,0.6,0.4,1,0.4c0.6,0,0.4,2.6,0.4,2.6l0.1,1.4
						C140.5,141,138.5,138.9,139,136.6z"/>
				</g>
			</g>
		</g>
		<g>
			<path class="st19" d="M195.1,201.4c-0.2-0.2-1.3-1.9-3.4-2.3c-0.7-0.1-2.7-0.4-4.2,0.7c-0.8,0.6-1.4,1.4-1.7,2.3
				c-0.4,1.6-0.3,2.9,0,4c0.1,0.4,0.6,1.7,0.7,1.9c0.2,0.5,0.5,1.1,0.6,1.7c0,0.3,0.1,0.6,0,0.8c0,0.3-0.1,0.5-0.1,0.8
				c0.1-0.2,1.6-2,2.2-2.9c-1-1.7-1.6-3.5-1.5-4.6c0.1-0.9,0.4-2.2,1.9-2.6c2.5-0.8,3.4,1,3.5,1.2c0.2,0.4,0.4,0.8,0.4,1.2
				c0,0,0,0.5,0,0.7C194.3,203.4,195,202.6,195.1,201.4z"/>
			<path class="st19" d="M207.8,201.4c0.2-0.2,1.3-1.9,3.4-2.3c0.7-0.1,2.7-0.4,4.2,0.7c0.8,0.6,1.4,1.4,1.7,2.3
				c0.4,1.6,0.3,2.9,0,4c-0.1,0.4-0.6,1.7-0.7,1.9c-0.2,0.5-0.5,1.1-0.6,1.7c0,0.3-0.1,0.6,0,0.8c0,0.3,0.1,0.5,0.1,0.8
				c-0.1-0.2-1.6-2-2.2-2.9c1-1.7,1.6-3.5,1.5-4.6c-0.1-0.9-0.4-2.2-1.9-2.6c-2.5-0.8-3.4,1-3.5,1.2c-0.3,0.4-0.4,0.8-0.4,1.2
				c0,0,0,0.5,0,0.7C208.7,203.4,208,202.6,207.8,201.4z"/>
			<path class="st19" d="M208.8,239.1c-0.1-0.3-0.3-0.5-0.5-0.7c-0.6-0.7-1.3-0.9-1.3-1.3h-5.5h-5.5c0.1,0.4-0.7,0.6-1.3,1.3
				c-0.2,0.2-0.3,0.4-0.5,0.7c-0.2,0.5,0.3,0.9,1,1c1.3,0.1,3.8,0.1,6.3,0.1c2.5,0,5,0,6.3-0.1C208.5,240,209,239.6,208.8,239.1z"/>
			<path class="st20" d="M216.7,212.9c-0.2-0.7-0.8-3-3.1-5c-2.4-2.2-3.8-3.3-4.2-3.8c-1.6-1.8-1.7-3.7-1.7-3.8c0,0,0-0.1,0-0.2
				c0-0.6,0.1-2.3,0.1-2.3h-6.3h-6.3c0,0,0.1,1.7,0.1,2.3c0,0.1,0,0.2,0,0.2c0,0.1-0.1,2-1.7,3.8c-0.4,0.4-1.8,1.6-4.2,3.8
				c-2.2,2-2.9,4.3-3.1,5c-0.7,2.3-1.2,5.7-0.2,9.3c1.3,4.6,7.4,11.8,8.5,13.2c0.3,0.4,0.7,0.8,1,1.2c0.1,0.1,0.3,0.3,0.3,0.5h5.5
				h5.5c0-0.1,0.2-0.4,0.3-0.5c0.3-0.4,0.7-0.8,1-1.2c1.1-1.4,7.3-8.6,8.5-13.2C217.9,218.6,217.4,215.2,216.7,212.9z"/>
			<path class="st19" d="M209.3,196.2c0-0.5-0.3-1-0.8-1.1c-2.1-0.2-5.3-0.2-7-0.2c-1.8,0-4.9,0-7,0.2c-0.5,0-0.8,0.6-0.8,1.1
				c0,0.7,0.3,0.9,0.7,1.1c0.2,0.1,0.7,0.3,0.8,0.4h6.3h6.3c0.1-0.2,0.6-0.3,0.8-0.4C209,197.2,209.3,196.9,209.3,196.2z"/>
			<path class="st9" d="M188.4,215c0.4-0.6,0.5-0.8,0.8-0.8c0.3,0,0.5,0.2,0.8,0.8c0.4,0.6,0.9,1.5,2.1,1.5c1.1,0,1.7-0.9,2.1-1.5
				c0.4-0.6,0.5-0.8,0.8-0.8c0.3,0,0.5,0.2,0.8,0.8c0.4,0.6,0.9,1.5,2.1,1.5s1.7-0.9,2.1-1.5c0.4-0.6,0.5-0.8,0.8-0.8
				c0.3,0,0.5,0.2,0.8,0.8c0.4,0.6,0.9,1.5,2.1,1.5c1.1,0,1.7-0.9,2.1-1.5c0.4-0.6,0.5-0.8,0.8-0.8c0.3,0,0.5,0.2,0.8,0.8
				c0.4,0.6,0.9,1.5,2.1,1.5c1.1,0,1.7-0.9,2.1-1.5c0.3-0.6,0.5-0.8,0.8-0.8c0.3,0,0.5,0.2,0.8,0.8c0.4,0.6,0.9,1.5,2.1,1.5
				c1.1,0,1.7-0.9,2.1-1.5c0,0,0-0.1,0.1-0.1c-0.1-0.6-0.3-1.2-0.4-1.8c-0.4,0.3-0.7,0.8-0.9,1.1c-0.4,0.6-0.5,0.8-0.8,0.8
				c-0.3,0-0.5-0.2-0.8-0.8c-0.4-0.6-0.9-1.5-2.1-1.5c-1.1,0-1.7,0.9-2.1,1.5c-0.4,0.6-0.5,0.8-0.8,0.8c-0.3,0-0.5-0.2-0.8-0.8
				c-0.4-0.6-0.9-1.5-2.1-1.5c-1.1,0-1.7,0.9-2.1,1.5c-0.4,0.6-0.5,0.8-0.8,0.8c-0.3,0-0.5-0.2-0.8-0.8c-0.4-0.6-0.9-1.5-2.1-1.5
				c-1.1,0-1.7,0.9-2.1,1.5c-0.3,0.6-0.5,0.8-0.8,0.8c-0.3,0-0.5-0.2-0.8-0.8c-0.4-0.6-0.9-1.5-2.1-1.5c-1.1,0-1.7,0.9-2.1,1.5
				c-0.4,0.6-0.5,0.8-0.8,0.8c-0.3,0-0.5-0.2-0.8-0.8c-0.4-0.6-0.9-1.5-2.1-1.5c-1.1,0-1.7,0.9-2.1,1.5c-0.4,0.6-0.5,0.8-0.8,0.8
				c-0.2,0-0.3-0.1-0.5-0.3c-0.1,0.5-0.2,1.1-0.2,1.6c0.2,0.1,0.4,0.1,0.7,0.1C187.4,216.5,188,215.6,188.4,215z"/>
			<path class="st9" d="M188.4,219.8c0.4-0.6,0.5-0.8,0.8-0.8c0.3,0,0.5,0.3,0.8,0.8c0.4,0.6,0.9,1.5,2.1,1.5c1.1,0,1.7-0.9,2.1-1.5
				c0.4-0.6,0.5-0.8,0.8-0.8c0.3,0,0.5,0.3,0.8,0.8c0.4,0.6,0.9,1.5,2.1,1.5s1.7-0.9,2.1-1.5c0.4-0.6,0.5-0.8,0.8-0.8
				c0.3,0,0.5,0.3,0.8,0.8c0.4,0.6,0.9,1.5,2.1,1.5c1.1,0,1.7-0.9,2.1-1.5c0.4-0.6,0.5-0.8,0.8-0.8c0.3,0,0.5,0.3,0.8,0.8
				c0.4,0.6,0.9,1.5,2.1,1.5c1.1,0,1.7-0.9,2.1-1.5c0.3-0.6,0.5-0.8,0.8-0.8c0.3,0,0.5,0.3,0.8,0.8c0.4,0.6,0.9,1.5,2.1,1.5
				c1.1,0,1.7-0.9,2.1-1.5c0.1-0.2,0.2-0.3,0.3-0.4c0.1-0.6,0.1-1.2,0.1-1.8c-0.8,0.2-1.2,0.9-1.6,1.4c-0.4,0.6-0.5,0.8-0.8,0.8
				c-0.3,0-0.5-0.3-0.8-0.8c-0.4-0.6-0.9-1.5-2.1-1.5c-1.1,0-1.7,0.9-2.1,1.5c-0.4,0.6-0.5,0.8-0.8,0.8c-0.3,0-0.5-0.3-0.8-0.8
				c-0.4-0.6-0.9-1.5-2.1-1.5c-1.1,0-1.7,0.9-2.1,1.5c-0.4,0.6-0.5,0.8-0.8,0.8c-0.3,0-0.5-0.3-0.8-0.8c-0.4-0.6-0.9-1.5-2.1-1.5
				c-1.1,0-1.7,0.9-2.1,1.5c-0.3,0.6-0.5,0.8-0.8,0.8c-0.3,0-0.5-0.3-0.8-0.8c-0.4-0.6-0.9-1.5-2.1-1.5c-1.1,0-1.7,0.9-2.1,1.5
				c-0.4,0.6-0.5,0.8-0.8,0.8c-0.3,0-0.5-0.3-0.8-0.8c-0.4-0.6-0.9-1.5-2.1-1.5c-1.1,0-1.7,0.9-2.1,1.5c-0.4,0.6-0.5,0.8-0.8,0.8
				c-0.3,0-0.4-0.2-0.7-0.7c0.1,0.7,0.1,1.4,0.3,2.1c0.1,0,0.3,0,0.4,0C187.4,221.4,188,220.5,188.4,219.8z"/>
			<path class="st9" d="M188.4,224.4c0.4-0.6,0.5-0.8,0.8-0.8c0.3,0,0.5,0.3,0.8,0.8c0.4,0.6,0.9,1.5,2.1,1.5c1.1,0,1.7-0.9,2.1-1.5
				c0.4-0.6,0.5-0.8,0.8-0.8c0.3,0,0.5,0.3,0.8,0.8c0.4,0.6,0.9,1.5,2.1,1.5s1.7-0.9,2.1-1.5c0.4-0.6,0.5-0.8,0.8-0.8
				c0.3,0,0.5,0.3,0.8,0.8c0.4,0.6,0.9,1.5,2.1,1.5c1.1,0,1.7-0.9,2.1-1.5c0.4-0.6,0.5-0.8,0.8-0.8c0.3,0,0.5,0.3,0.8,0.8
				c0.4,0.6,0.9,1.5,2.1,1.5c1.1,0,1.7-0.9,2.1-1.5c0.3-0.6,0.5-0.8,0.8-0.8c0.3,0,0.5,0.3,0.8,0.8c0.4,0.6,0.9,1.5,2.1,1.5
				c0.1,0,0.1,0,0.2,0c0.7-1.2,1.2-2.4,1.5-3.4c-0.4,0.3-0.7,0.8-0.9,1.2c-0.4,0.6-0.5,0.8-0.8,0.8c-0.3,0-0.5-0.2-0.8-0.8
				c-0.4-0.6-0.9-1.5-2.1-1.5c-1.1,0-1.7,0.9-2.1,1.5c-0.4,0.6-0.5,0.8-0.8,0.8c-0.3,0-0.5-0.2-0.8-0.8c-0.4-0.6-0.9-1.5-2.1-1.5
				c-1.1,0-1.7,0.9-2.1,1.5c-0.4,0.6-0.5,0.8-0.8,0.8c-0.3,0-0.5-0.2-0.8-0.8c-0.4-0.6-0.9-1.5-2.1-1.5c-1.1,0-1.7,0.9-2.1,1.5
				c-0.3,0.6-0.5,0.8-0.8,0.8c-0.3,0-0.5-0.2-0.8-0.8c-0.4-0.6-0.9-1.5-2.1-1.5c-1.1,0-1.7,0.9-2.1,1.5c-0.4,0.6-0.5,0.8-0.8,0.8
				c-0.3,0-0.5-0.2-0.8-0.8c-0.4-0.6-0.9-1.5-2.1-1.5c-1.1,0-1.7,0.9-2.1,1.5c-0.1,0.2-0.2,0.3-0.3,0.5c0.2,0.5,0.4,0.9,0.7,1.4
				C187.9,225.2,188.1,224.8,188.4,224.4z"/>
		</g>
		<g>
			<path class="st19" d="M288.6,271.6c-0.2-0.2-1.3-1.9-3.4-2.3c-0.7-0.1-2.7-0.4-4.2,0.7c-0.8,0.6-1.4,1.4-1.7,2.3
				c-0.4,1.6-0.3,2.9,0,4c0.1,0.4,0.6,1.7,0.7,1.9c0.2,0.5,0.5,1.1,0.6,1.7c0,0.3,0.1,0.6,0,0.8c0,0.3-0.1,0.5-0.1,0.8
				c0.1-0.2,1.6-2,2.2-2.9c-1-1.7-1.6-3.5-1.5-4.6c0.1-0.9,0.4-2.2,1.9-2.6c2.5-0.8,3.4,1,3.5,1.2c0.2,0.4,0.4,0.8,0.4,1.2
				c0,0,0,0.5,0,0.7C287.8,273.6,288.5,272.8,288.6,271.6z"/>
			<path class="st19" d="M301.3,271.6c0.2-0.2,1.3-1.9,3.4-2.3c0.7-0.1,2.7-0.4,4.2,0.7c0.8,0.6,1.4,1.4,1.7,2.3
				c0.4,1.6,0.3,2.9,0,4c-0.1,0.4-0.6,1.7-0.7,1.9c-0.2,0.5-0.5,1.1-0.6,1.7c0,0.3-0.1,0.6,0,0.8c0,0.3,0.1,0.5,0.1,0.8
				c-0.1-0.2-1.6-2-2.2-2.9c1-1.7,1.6-3.5,1.5-4.6c-0.1-0.9-0.4-2.2-1.9-2.6c-2.5-0.8-3.4,1-3.5,1.2c-0.3,0.4-0.4,0.8-0.4,1.2
				c0,0,0,0.5,0,0.7C302.1,273.6,301.5,272.8,301.3,271.6z"/>
			<path class="st19" d="M302.2,309.3c-0.1-0.3-0.3-0.5-0.5-0.7c-0.6-0.7-1.3-0.9-1.3-1.3H295h-5.5c0.1,0.4-0.7,0.6-1.3,1.3
				c-0.2,0.2-0.3,0.4-0.5,0.7c-0.2,0.5,0.3,0.9,1,1c1.3,0.1,3.8,0.1,6.3,0.1c2.5,0,5,0,6.3-0.1C301.9,310.2,302.5,309.8,302.2,309.3
				z"/>
			<path class="st20" d="M310.2,283.1c-0.2-0.7-0.8-3-3.1-5c-2.4-2.2-3.8-3.3-4.2-3.8c-1.6-1.8-1.7-3.7-1.7-3.8c0,0,0-0.1,0-0.2
				c0-0.6,0.1-2.3,0.1-2.3H295h-6.3c0,0,0.1,1.7,0.1,2.3c0,0.1,0,0.2,0,0.2c0,0.1-0.1,2-1.7,3.8c-0.4,0.4-1.8,1.6-4.2,3.8
				c-2.2,2-2.9,4.3-3.1,5c-0.7,2.3-1.2,5.7-0.2,9.3c1.3,4.6,7.4,11.8,8.5,13.2c0.3,0.4,0.7,0.8,1,1.2c0.1,0.1,0.3,0.3,0.3,0.5h5.5
				h5.5c0-0.1,0.2-0.4,0.3-0.5c0.3-0.4,0.7-0.8,1-1.2c1.1-1.4,7.3-8.6,8.5-13.2C311.4,288.7,310.8,285.3,310.2,283.1z"/>
			<path class="st19" d="M302.8,266.4c0-0.5-0.3-1-0.8-1.1c-2.1-0.2-5.3-0.2-7-0.2c-1.8,0-4.9,0-7,0.2c-0.5,0-0.8,0.6-0.8,1.1
				c0,0.7,0.3,0.9,0.7,1.1c0.2,0.1,0.7,0.3,0.8,0.4h6.3h6.3c0.1-0.2,0.6-0.3,0.8-0.4C302.5,267.3,302.8,267.1,302.8,266.4z"/>
			<path class="st9" d="M281.8,285.2c0.4-0.6,0.5-0.8,0.8-0.8c0.3,0,0.5,0.2,0.8,0.8c0.4,0.6,0.9,1.5,2.1,1.5c1.1,0,1.7-0.9,2.1-1.5
				c0.4-0.6,0.5-0.8,0.8-0.8c0.3,0,0.5,0.2,0.8,0.8c0.4,0.6,0.9,1.5,2.1,1.5c1.1,0,1.7-0.9,2.1-1.5c0.4-0.6,0.5-0.8,0.8-0.8
				s0.5,0.2,0.8,0.8c0.4,0.6,0.9,1.5,2.1,1.5c1.1,0,1.7-0.9,2.1-1.5c0.4-0.6,0.5-0.8,0.8-0.8c0.3,0,0.5,0.2,0.8,0.8
				c0.4,0.6,0.9,1.5,2.1,1.5c1.1,0,1.7-0.9,2.1-1.5c0.3-0.6,0.5-0.8,0.8-0.8c0.3,0,0.5,0.2,0.8,0.8c0.4,0.6,0.9,1.5,2.1,1.5
				c1.1,0,1.7-0.9,2.1-1.5c0,0,0-0.1,0.1-0.1c-0.1-0.6-0.3-1.2-0.4-1.8c-0.4,0.3-0.7,0.8-0.9,1.1c-0.4,0.6-0.5,0.8-0.8,0.8
				c-0.3,0-0.5-0.2-0.8-0.8c-0.4-0.6-0.9-1.5-2.1-1.5c-1.1,0-1.7,0.9-2.1,1.5c-0.4,0.6-0.5,0.8-0.8,0.8c-0.3,0-0.5-0.2-0.8-0.8
				c-0.4-0.6-0.9-1.5-2.1-1.5c-1.1,0-1.7,0.9-2.1,1.5c-0.4,0.6-0.5,0.8-0.8,0.8c-0.3,0-0.5-0.2-0.8-0.8c-0.4-0.6-0.9-1.5-2.1-1.5
				c-1.1,0-1.7,0.9-2.1,1.5c-0.3,0.6-0.5,0.8-0.8,0.8c-0.3,0-0.5-0.2-0.8-0.8c-0.4-0.6-0.9-1.5-2.1-1.5c-1.1,0-1.7,0.9-2.1,1.5
				c-0.4,0.6-0.5,0.8-0.8,0.8c-0.3,0-0.5-0.2-0.8-0.8c-0.4-0.6-0.9-1.5-2.1-1.5c-1.1,0-1.7,0.9-2.1,1.5c-0.4,0.6-0.5,0.8-0.8,0.8
				c-0.2,0-0.3-0.1-0.5-0.3c-0.1,0.5-0.2,1.1-0.2,1.6c0.2,0.1,0.4,0.1,0.7,0.1C280.9,286.7,281.4,285.8,281.8,285.2z"/>
			<path class="st9" d="M281.8,290c0.4-0.6,0.5-0.8,0.8-0.8c0.3,0,0.5,0.3,0.8,0.8c0.4,0.6,0.9,1.5,2.1,1.5c1.1,0,1.7-0.9,2.1-1.5
				c0.4-0.6,0.5-0.8,0.8-0.8c0.3,0,0.5,0.3,0.8,0.8c0.4,0.6,0.9,1.5,2.1,1.5c1.1,0,1.7-0.9,2.1-1.5c0.4-0.6,0.5-0.8,0.8-0.8
				s0.5,0.3,0.8,0.8c0.4,0.6,0.9,1.5,2.1,1.5c1.1,0,1.7-0.9,2.1-1.5c0.4-0.6,0.5-0.8,0.8-0.8c0.3,0,0.5,0.3,0.8,0.8
				c0.4,0.6,0.9,1.5,2.1,1.5c1.1,0,1.7-0.9,2.1-1.5c0.3-0.6,0.5-0.8,0.8-0.8c0.3,0,0.5,0.3,0.8,0.8c0.4,0.6,0.9,1.5,2.1,1.5
				c1.1,0,1.7-0.9,2.1-1.5c0.1-0.2,0.2-0.3,0.3-0.4c0.1-0.6,0.1-1.2,0.1-1.8c-0.8,0.2-1.2,0.9-1.6,1.4c-0.4,0.6-0.5,0.8-0.8,0.8
				c-0.3,0-0.5-0.3-0.8-0.8c-0.4-0.6-0.9-1.5-2.1-1.5c-1.1,0-1.7,0.9-2.1,1.5c-0.4,0.6-0.5,0.8-0.8,0.8c-0.3,0-0.5-0.3-0.8-0.8
				c-0.4-0.6-0.9-1.5-2.1-1.5c-1.1,0-1.7,0.9-2.1,1.5c-0.4,0.6-0.5,0.8-0.8,0.8c-0.3,0-0.5-0.3-0.8-0.8c-0.4-0.6-0.9-1.5-2.1-1.5
				c-1.1,0-1.7,0.9-2.1,1.5c-0.3,0.6-0.5,0.8-0.8,0.8c-0.3,0-0.5-0.3-0.8-0.8c-0.4-0.6-0.9-1.5-2.1-1.5c-1.1,0-1.7,0.9-2.1,1.5
				c-0.4,0.6-0.5,0.8-0.8,0.8c-0.3,0-0.5-0.3-0.8-0.8c-0.4-0.6-0.9-1.5-2.1-1.5c-1.1,0-1.7,0.9-2.1,1.5c-0.4,0.6-0.5,0.8-0.8,0.8
				c-0.3,0-0.4-0.2-0.7-0.7c0.1,0.7,0.1,1.4,0.3,2.1c0.1,0,0.3,0,0.4,0C280.9,291.5,281.4,290.7,281.8,290z"/>
			<path class="st9" d="M281.8,294.6c0.4-0.6,0.5-0.8,0.8-0.8c0.3,0,0.5,0.3,0.8,0.8c0.4,0.6,0.9,1.5,2.1,1.5c1.1,0,1.7-0.9,2.1-1.5
				c0.4-0.6,0.5-0.8,0.8-0.8c0.3,0,0.5,0.3,0.8,0.8c0.4,0.6,0.9,1.5,2.1,1.5c1.1,0,1.7-0.9,2.1-1.5c0.4-0.6,0.5-0.8,0.8-0.8
				s0.5,0.3,0.8,0.8c0.4,0.6,0.9,1.5,2.1,1.5c1.1,0,1.7-0.9,2.1-1.5c0.4-0.6,0.5-0.8,0.8-0.8c0.3,0,0.5,0.3,0.8,0.8
				c0.4,0.6,0.9,1.5,2.1,1.5c1.1,0,1.7-0.9,2.1-1.5c0.3-0.6,0.5-0.8,0.8-0.8c0.3,0,0.5,0.3,0.8,0.8c0.4,0.6,0.9,1.5,2.1,1.5
				c0.1,0,0.1,0,0.2,0c0.7-1.2,1.2-2.4,1.5-3.4c-0.4,0.3-0.7,0.8-0.9,1.2c-0.4,0.6-0.5,0.8-0.8,0.8c-0.3,0-0.5-0.2-0.8-0.8
				c-0.4-0.6-0.9-1.5-2.1-1.5c-1.1,0-1.7,0.9-2.1,1.5c-0.4,0.6-0.5,0.8-0.8,0.8c-0.3,0-0.5-0.2-0.8-0.8c-0.4-0.6-0.9-1.5-2.1-1.5
				c-1.1,0-1.7,0.9-2.1,1.5c-0.4,0.6-0.5,0.8-0.8,0.8c-0.3,0-0.5-0.2-0.8-0.8c-0.4-0.6-0.9-1.5-2.1-1.5c-1.1,0-1.7,0.9-2.1,1.5
				c-0.3,0.6-0.5,0.8-0.8,0.8c-0.3,0-0.5-0.2-0.8-0.8c-0.4-0.6-0.9-1.5-2.1-1.5c-1.1,0-1.7,0.9-2.1,1.5c-0.4,0.6-0.5,0.8-0.8,0.8
				c-0.3,0-0.5-0.2-0.8-0.8c-0.4-0.6-0.9-1.5-2.1-1.5c-1.1,0-1.7,0.9-2.1,1.5c-0.1,0.2-0.2,0.3-0.3,0.5c0.2,0.5,0.4,0.9,0.7,1.4
				C281.4,295.4,281.6,295,281.8,294.6z"/>
		</g>
		<g>
			<path class="st19" d="M329.3,271.6c-0.2-0.2-1.3-1.9-3.4-2.3c-0.7-0.1-2.7-0.4-4.2,0.7c-0.8,0.6-1.4,1.4-1.7,2.3
				c-0.4,1.6-0.3,2.9,0,4c0.1,0.4,0.6,1.7,0.7,1.9c0.2,0.5,0.5,1.1,0.6,1.7c0,0.3,0.1,0.6,0,0.8c0,0.3-0.1,0.5-0.1,0.8
				c0.1-0.2,1.6-2,2.2-2.9c-1-1.7-1.6-3.5-1.5-4.6c0.1-0.9,0.4-2.2,1.9-2.6c2.5-0.8,3.4,1,3.5,1.2c0.2,0.4,0.4,0.8,0.4,1.2
				c0,0,0,0.5,0,0.7C328.5,273.6,329.2,272.8,329.3,271.6z"/>
			<path class="st19" d="M342,271.6c0.2-0.2,1.3-1.9,3.4-2.3c0.7-0.1,2.7-0.4,4.2,0.7c0.8,0.6,1.4,1.4,1.7,2.3c0.4,1.6,0.3,2.9,0,4
				c-0.1,0.4-0.6,1.7-0.7,1.9c-0.2,0.5-0.5,1.1-0.6,1.7c0,0.3-0.1,0.6,0,0.8c0,0.3,0.1,0.5,0.1,0.8c-0.1-0.2-1.6-2-2.2-2.9
				c1-1.7,1.6-3.5,1.5-4.6c-0.1-0.9-0.4-2.2-1.9-2.6c-2.5-0.8-3.4,1-3.5,1.2c-0.3,0.4-0.4,0.8-0.4,1.2c0,0,0,0.5,0,0.7
				C342.9,273.6,342.2,272.8,342,271.6z"/>
			<path class="st19" d="M343,309.3c-0.1-0.3-0.3-0.5-0.5-0.7c-0.6-0.7-1.3-0.9-1.3-1.3h-5.5h-5.5c0.1,0.4-0.7,0.6-1.3,1.3
				c-0.2,0.2-0.3,0.4-0.5,0.7c-0.2,0.5,0.3,0.9,1,1c1.3,0.1,3.8,0.1,6.3,0.1c2.5,0,5,0,6.3-0.1C342.6,310.2,343.2,309.8,343,309.3z"
				/>
			<path class="st20" d="M350.9,283.1c-0.2-0.7-0.8-3-3.1-5c-2.4-2.2-3.8-3.3-4.2-3.8c-1.6-1.8-1.7-3.7-1.7-3.8c0,0,0-0.1,0-0.2
				c0-0.6,0.1-2.3,0.1-2.3h-6.3h-6.3c0,0,0.1,1.7,0.1,2.3c0,0.1,0,0.2,0,0.2c0,0.1-0.1,2-1.7,3.8c-0.4,0.4-1.8,1.6-4.2,3.8
				c-2.2,2-2.9,4.3-3.1,5c-0.7,2.3-1.2,5.7-0.2,9.3c1.3,4.6,7.4,11.8,8.5,13.2c0.3,0.4,0.7,0.8,1,1.2c0.1,0.1,0.3,0.3,0.3,0.5h5.5
				h5.5c0-0.1,0.2-0.4,0.3-0.5c0.3-0.4,0.7-0.8,1-1.2c1.1-1.4,7.3-8.6,8.5-13.2C352.1,288.7,351.6,285.3,350.9,283.1z"/>
			<path class="st19" d="M343.5,266.4c0-0.5-0.3-1-0.8-1.1c-2.1-0.2-5.3-0.2-7-0.2c-1.8,0-4.9,0-7,0.2c-0.5,0-0.8,0.6-0.8,1.1
				c0,0.7,0.3,0.9,0.7,1.1c0.2,0.1,0.7,0.3,0.8,0.4h6.3h6.3c0.1-0.2,0.6-0.3,0.8-0.4C343.2,267.3,343.5,267.1,343.5,266.4z"/>
			<path class="st9" d="M322.6,285.2c0.4-0.6,0.5-0.8,0.8-0.8c0.3,0,0.5,0.2,0.8,0.8c0.4,0.6,0.9,1.5,2.1,1.5c1.1,0,1.7-0.9,2.1-1.5
				c0.4-0.6,0.5-0.8,0.8-0.8c0.3,0,0.5,0.2,0.8,0.8c0.4,0.6,0.9,1.5,2.1,1.5c1.1,0,1.7-0.9,2.1-1.5c0.4-0.6,0.5-0.8,0.8-0.8
				s0.5,0.2,0.8,0.8c0.4,0.6,0.9,1.5,2.1,1.5c1.1,0,1.7-0.9,2.1-1.5c0.4-0.6,0.5-0.8,0.8-0.8c0.3,0,0.5,0.2,0.8,0.8
				c0.4,0.6,0.9,1.5,2.1,1.5c1.1,0,1.7-0.9,2.1-1.5c0.3-0.6,0.5-0.8,0.8-0.8c0.3,0,0.5,0.2,0.8,0.8c0.4,0.6,0.9,1.5,2.1,1.5
				c1.1,0,1.7-0.9,2.1-1.5c0,0,0-0.1,0.1-0.1c-0.1-0.6-0.3-1.2-0.4-1.8c-0.4,0.3-0.7,0.8-0.9,1.1c-0.4,0.6-0.5,0.8-0.8,0.8
				c-0.3,0-0.5-0.2-0.8-0.8c-0.4-0.6-0.9-1.5-2.1-1.5c-1.1,0-1.7,0.9-2.1,1.5c-0.4,0.6-0.5,0.8-0.8,0.8c-0.3,0-0.5-0.2-0.8-0.8
				c-0.4-0.6-0.9-1.5-2.1-1.5c-1.1,0-1.7,0.9-2.1,1.5c-0.4,0.6-0.5,0.8-0.8,0.8c-0.3,0-0.5-0.2-0.8-0.8c-0.4-0.6-0.9-1.5-2.1-1.5
				c-1.1,0-1.7,0.9-2.1,1.5c-0.3,0.6-0.5,0.8-0.8,0.8c-0.3,0-0.5-0.2-0.8-0.8c-0.4-0.6-0.9-1.5-2.1-1.5c-1.1,0-1.7,0.9-2.1,1.5
				c-0.4,0.6-0.5,0.8-0.8,0.8c-0.3,0-0.5-0.2-0.8-0.8c-0.4-0.6-0.9-1.5-2.1-1.5c-1.1,0-1.7,0.9-2.1,1.5c-0.4,0.6-0.5,0.8-0.8,0.8
				c-0.2,0-0.3-0.1-0.5-0.3c-0.1,0.5-0.2,1.1-0.2,1.6c0.2,0.1,0.4,0.1,0.7,0.1C321.6,286.7,322.2,285.8,322.6,285.2z"/>
			<path class="st9" d="M322.6,290c0.4-0.6,0.5-0.8,0.8-0.8c0.3,0,0.5,0.3,0.8,0.8c0.4,0.6,0.9,1.5,2.1,1.5c1.1,0,1.7-0.9,2.1-1.5
				c0.4-0.6,0.5-0.8,0.8-0.8c0.3,0,0.5,0.3,0.8,0.8c0.4,0.6,0.9,1.5,2.1,1.5c1.1,0,1.7-0.9,2.1-1.5c0.4-0.6,0.5-0.8,0.8-0.8
				s0.5,0.3,0.8,0.8c0.4,0.6,0.9,1.5,2.1,1.5c1.1,0,1.7-0.9,2.1-1.5c0.4-0.6,0.5-0.8,0.8-0.8c0.3,0,0.5,0.3,0.8,0.8
				c0.4,0.6,0.9,1.5,2.1,1.5c1.1,0,1.7-0.9,2.1-1.5c0.3-0.6,0.5-0.8,0.8-0.8c0.3,0,0.5,0.3,0.8,0.8c0.4,0.6,0.9,1.5,2.1,1.5
				c1.1,0,1.7-0.9,2.1-1.5c0.1-0.2,0.2-0.3,0.3-0.4c0.1-0.6,0.1-1.2,0.1-1.8c-0.8,0.2-1.2,0.9-1.6,1.4c-0.4,0.6-0.5,0.8-0.8,0.8
				c-0.3,0-0.5-0.3-0.8-0.8c-0.4-0.6-0.9-1.5-2.1-1.5c-1.1,0-1.7,0.9-2.1,1.5c-0.4,0.6-0.5,0.8-0.8,0.8c-0.3,0-0.5-0.3-0.8-0.8
				c-0.4-0.6-0.9-1.5-2.1-1.5c-1.1,0-1.7,0.9-2.1,1.5c-0.4,0.6-0.5,0.8-0.8,0.8c-0.3,0-0.5-0.3-0.8-0.8c-0.4-0.6-0.9-1.5-2.1-1.5
				c-1.1,0-1.7,0.9-2.1,1.5c-0.3,0.6-0.5,0.8-0.8,0.8c-0.3,0-0.5-0.3-0.8-0.8c-0.4-0.6-0.9-1.5-2.1-1.5c-1.1,0-1.7,0.9-2.1,1.5
				c-0.4,0.6-0.5,0.8-0.8,0.8c-0.3,0-0.5-0.3-0.8-0.8c-0.4-0.6-0.9-1.5-2.1-1.5c-1.1,0-1.7,0.9-2.1,1.5c-0.4,0.6-0.5,0.8-0.8,0.8
				c-0.3,0-0.4-0.2-0.7-0.7c0.1,0.7,0.1,1.4,0.3,2.1c0.1,0,0.3,0,0.4,0C321.6,291.5,322.2,290.7,322.6,290z"/>
			<path class="st9" d="M322.6,294.6c0.4-0.6,0.5-0.8,0.8-0.8c0.3,0,0.5,0.3,0.8,0.8c0.4,0.6,0.9,1.5,2.1,1.5c1.1,0,1.7-0.9,2.1-1.5
				c0.4-0.6,0.5-0.8,0.8-0.8c0.3,0,0.5,0.3,0.8,0.8c0.4,0.6,0.9,1.5,2.1,1.5c1.1,0,1.7-0.9,2.1-1.5c0.4-0.6,0.5-0.8,0.8-0.8
				s0.5,0.3,0.8,0.8c0.4,0.6,0.9,1.5,2.1,1.5c1.1,0,1.7-0.9,2.1-1.5c0.4-0.6,0.5-0.8,0.8-0.8c0.3,0,0.5,0.3,0.8,0.8
				c0.4,0.6,0.9,1.5,2.1,1.5c1.1,0,1.7-0.9,2.1-1.5c0.3-0.6,0.5-0.8,0.8-0.8c0.3,0,0.5,0.3,0.8,0.8c0.4,0.6,0.9,1.5,2.1,1.5
				c0.1,0,0.1,0,0.2,0c0.7-1.2,1.2-2.4,1.5-3.4c-0.4,0.3-0.7,0.8-0.9,1.2c-0.4,0.6-0.5,0.8-0.8,0.8c-0.3,0-0.5-0.2-0.8-0.8
				c-0.4-0.6-0.9-1.5-2.1-1.5c-1.1,0-1.7,0.9-2.1,1.5c-0.4,0.6-0.5,0.8-0.8,0.8c-0.3,0-0.5-0.2-0.8-0.8c-0.4-0.6-0.9-1.5-2.1-1.5
				c-1.1,0-1.7,0.9-2.1,1.5c-0.4,0.6-0.5,0.8-0.8,0.8c-0.3,0-0.5-0.2-0.8-0.8c-0.4-0.6-0.9-1.5-2.1-1.5c-1.1,0-1.7,0.9-2.1,1.5
				c-0.3,0.6-0.5,0.8-0.8,0.8c-0.3,0-0.5-0.2-0.8-0.8c-0.4-0.6-0.9-1.5-2.1-1.5c-1.1,0-1.7,0.9-2.1,1.5c-0.4,0.6-0.5,0.8-0.8,0.8
				c-0.3,0-0.5-0.2-0.8-0.8c-0.4-0.6-0.9-1.5-2.1-1.5c-1.1,0-1.7,0.9-2.1,1.5c-0.1,0.2-0.2,0.3-0.3,0.5c0.2,0.5,0.4,0.9,0.7,1.4
				C322.1,295.4,322.3,295,322.6,294.6z"/>
		</g>
	</g>
	<rect x="3.8" y="309.6" class="st3" width="368.2" height="28.6"/>
</g>
</svg>
